<mxfile host="www.draw.io" modified="2020-02-17T15:39:31.237Z" agent="Mozilla/5.0 (Windows NT 10.0; Win64; x64) AppleWebKit/537.36 (KHTML, like Gecko) Chrome/79.0.3945.130 Safari/537.36" etag="lyKu99b-Q9kEWyXnePRO" version="12.7.0" type="github">
  <diagram id="pkmUY02CGxxfnmNja6YL" name="Page-1">
    <mxGraphModel dx="1102" dy="565" grid="0" gridSize="10" guides="1" tooltips="1" connect="1" arrows="1" fold="1" page="1" pageScale="1" pageWidth="1100" pageHeight="850" math="0" shadow="0">
      <root>
        <mxCell id="0"/>
        <mxCell id="1" parent="0"/>
        <mxCell id="IiBEUlHa28SNpaY48bWn-1" value="&lt;b&gt;Simulator&amp;nbsp;&lt;/b&gt;&lt;br&gt;&lt;br&gt;Reads Input excel&lt;br&gt;&amp;nbsp;&lt;br&gt;Parses the data &lt;br&gt;&lt;br&gt;Plays the Parsed data to Adapter based on Device Type and Time Ticks&lt;br&gt;&lt;br&gt;Converts Meaningful to Raw data Wraps it in protocol format based on Device Family and send to UCB" style="rounded=0;whiteSpace=wrap;html=1;fillColor=#dae8fc;strokeColor=#6c8ebf;" vertex="1" parent="1">
          <mxGeometry x="38" y="98" width="213" height="184" as="geometry"/>
        </mxCell>
        <mxCell id="IiBEUlHa28SNpaY48bWn-2" value="&lt;b&gt;UCB&lt;/b&gt;&lt;br&gt;&lt;br&gt;Processes the Raw data &lt;br&gt;&lt;br&gt;Generates Cycle File &lt;br&gt;&lt;br&gt;Triggers Events for IRDS&amp;nbsp;" style="rounded=0;whiteSpace=wrap;html=1;fillColor=#e1d5e7;strokeColor=#9673a6;" vertex="1" parent="1">
          <mxGeometry x="42" y="337" width="209" height="182" as="geometry"/>
        </mxCell>
        <mxCell id="IiBEUlHa28SNpaY48bWn-3" value="&lt;b&gt;MQTT&lt;br&gt;&lt;br&gt;&lt;br&gt;&lt;br&gt;&lt;br&gt;&lt;br&gt;&lt;br&gt;&lt;br&gt;&lt;br&gt;&lt;br&gt;&lt;br&gt;&lt;br&gt;&lt;br&gt;&lt;br&gt;&lt;br&gt;&lt;br&gt;&lt;br&gt;&lt;br&gt;&lt;br&gt;&lt;br&gt;&lt;br&gt;&lt;br&gt;&lt;br&gt;&lt;br&gt;&lt;br&gt;&lt;br&gt;&lt;/b&gt;" style="rounded=0;whiteSpace=wrap;html=1;fillColor=#fff2cc;strokeColor=#d6b656;" vertex="1" parent="1">
          <mxGeometry x="452" y="127" width="165" height="386" as="geometry"/>
        </mxCell>
        <mxCell id="IiBEUlHa28SNpaY48bWn-4" value="" style="endArrow=classic;html=1;" edge="1" parent="1">
          <mxGeometry width="50" height="50" relative="1" as="geometry">
            <mxPoint x="251" y="167" as="sourcePoint"/>
            <mxPoint x="448" y="189" as="targetPoint"/>
          </mxGeometry>
        </mxCell>
        <mxCell id="IiBEUlHa28SNpaY48bWn-5" value="" style="endArrow=classic;html=1;exitX=1;exitY=0.421;exitDx=0;exitDy=0;exitPerimeter=0;" edge="1" parent="1" source="IiBEUlHa28SNpaY48bWn-1">
          <mxGeometry width="50" height="50" relative="1" as="geometry">
            <mxPoint x="261" y="177" as="sourcePoint"/>
            <mxPoint x="448" y="245" as="targetPoint"/>
          </mxGeometry>
        </mxCell>
        <mxCell id="IiBEUlHa28SNpaY48bWn-6" value="Publish Cycle File &amp;amp; Meaningful data" style="text;html=1;align=center;verticalAlign=middle;resizable=0;points=[];autosize=1;rotation=5;" vertex="1" parent="1">
          <mxGeometry x="249.5" y="154" width="205" height="18" as="geometry"/>
        </mxCell>
        <mxCell id="IiBEUlHa28SNpaY48bWn-7" value="Simulator Data&amp;nbsp;" style="rounded=1;whiteSpace=wrap;html=1;fillColor=#dae8fc;strokeColor=#6c8ebf;" vertex="1" parent="1">
          <mxGeometry x="465" y="180" width="139" height="31" as="geometry"/>
        </mxCell>
        <mxCell id="IiBEUlHa28SNpaY48bWn-8" value="Publish Simulator state" style="text;html=1;align=center;verticalAlign=middle;resizable=0;points=[];autosize=1;rotation=20;" vertex="1" parent="1">
          <mxGeometry x="274" y="211" width="133" height="18" as="geometry"/>
        </mxCell>
        <mxCell id="IiBEUlHa28SNpaY48bWn-9" value="Simulator State&lt;br&gt;(Active,Aborted, Completed)" style="rounded=1;whiteSpace=wrap;html=1;fillColor=#dae8fc;strokeColor=#6c8ebf;" vertex="1" parent="1">
          <mxGeometry x="464" y="237" width="135" height="44" as="geometry"/>
        </mxCell>
        <mxCell id="IiBEUlHa28SNpaY48bWn-10" value="" style="endArrow=classic;html=1;entryX=0;entryY=0.75;entryDx=0;entryDy=0;" edge="1" parent="1" target="IiBEUlHa28SNpaY48bWn-3">
          <mxGeometry width="50" height="50" relative="1" as="geometry">
            <mxPoint x="251" y="412" as="sourcePoint"/>
            <mxPoint x="450" y="384" as="targetPoint"/>
          </mxGeometry>
        </mxCell>
        <mxCell id="IiBEUlHa28SNpaY48bWn-11" value="" style="endArrow=classic;html=1;" edge="1" parent="1">
          <mxGeometry width="50" height="50" relative="1" as="geometry">
            <mxPoint x="252" y="415" as="sourcePoint"/>
            <mxPoint x="449" y="472" as="targetPoint"/>
          </mxGeometry>
        </mxCell>
        <mxCell id="IiBEUlHa28SNpaY48bWn-12" value="Remote Monitoring&amp;nbsp;" style="rounded=1;whiteSpace=wrap;html=1;fillColor=#e1d5e7;strokeColor=#9673a6;" vertex="1" parent="1">
          <mxGeometry x="465" y="409" width="139" height="31" as="geometry"/>
        </mxCell>
        <mxCell id="IiBEUlHa28SNpaY48bWn-13" value="Publish Cycle File under&lt;br&gt;&quot;Remote Monitoring&quot; Topic&amp;nbsp;" style="text;html=1;align=center;verticalAlign=middle;resizable=0;points=[];autosize=1;rotation=0;" vertex="1" parent="1">
          <mxGeometry x="274" y="377" width="154" height="32" as="geometry"/>
        </mxCell>
        <mxCell id="IiBEUlHa28SNpaY48bWn-14" value="Instrument Tracking&amp;nbsp;" style="rounded=1;whiteSpace=wrap;html=1;fillColor=#e1d5e7;strokeColor=#9673a6;" vertex="1" parent="1">
          <mxGeometry x="464" y="457" width="139" height="31" as="geometry"/>
        </mxCell>
        <mxCell id="IiBEUlHa28SNpaY48bWn-15" value="Publish IRDS data under&amp;nbsp;&lt;br&gt;&quot;Instrument Tracking&quot; Topic&amp;nbsp;" style="text;html=1;align=center;verticalAlign=middle;resizable=0;points=[];autosize=1;rotation=15;" vertex="1" parent="1">
          <mxGeometry x="261.5" y="448" width="158" height="32" as="geometry"/>
        </mxCell>
        <mxCell id="IiBEUlHa28SNpaY48bWn-16" value="Automation Validation Tool" style="rounded=0;whiteSpace=wrap;html=1;fillColor=#dae8fc;strokeColor=#6c8ebf;" vertex="1" parent="1">
          <mxGeometry x="804" y="218" width="130" height="87" as="geometry"/>
        </mxCell>
        <mxCell id="IiBEUlHa28SNpaY48bWn-17" value="" style="endArrow=classic;html=1;" edge="1" parent="1">
          <mxGeometry width="50" height="50" relative="1" as="geometry">
            <mxPoint x="801" y="256" as="sourcePoint"/>
            <mxPoint x="616" y="256" as="targetPoint"/>
          </mxGeometry>
        </mxCell>
        <mxCell id="IiBEUlHa28SNpaY48bWn-18" value="Subscribes to&lt;br&gt;&amp;nbsp;these Topic" style="text;html=1;align=center;verticalAlign=middle;resizable=0;points=[];autosize=1;" vertex="1" parent="1">
          <mxGeometry x="651" y="218" width="83" height="32" as="geometry"/>
        </mxCell>
        <mxCell id="IiBEUlHa28SNpaY48bWn-25" value="" style="endArrow=classic;html=1;entryX=1;entryY=0.5;entryDx=0;entryDy=0;" edge="1" parent="1" target="IiBEUlHa28SNpaY48bWn-3">
          <mxGeometry width="50" height="50" relative="1" as="geometry">
            <mxPoint x="803" y="265" as="sourcePoint"/>
            <mxPoint x="626" y="266" as="targetPoint"/>
          </mxGeometry>
        </mxCell>
        <mxCell id="IiBEUlHa28SNpaY48bWn-27" value="Instrument Tracking &amp;amp; Remote Monitoring Request" style="rounded=1;whiteSpace=wrap;html=1;fillColor=#d5e8d4;strokeColor=#82b366;" vertex="1" parent="1">
          <mxGeometry x="465" y="309" width="139" height="44" as="geometry"/>
        </mxCell>
        <mxCell id="IiBEUlHa28SNpaY48bWn-28" value="" style="endArrow=classic;html=1;" edge="1" parent="1">
          <mxGeometry width="50" height="50" relative="1" as="geometry">
            <mxPoint x="450" y="335" as="sourcePoint"/>
            <mxPoint x="247" y="377" as="targetPoint"/>
          </mxGeometry>
        </mxCell>
        <mxCell id="IiBEUlHa28SNpaY48bWn-29" value="UCB subscribes" style="text;html=1;align=center;verticalAlign=middle;resizable=0;points=[];autosize=1;rotation=-10;" vertex="1" parent="1">
          <mxGeometry x="311" y="335" width="96" height="18" as="geometry"/>
        </mxCell>
        <mxCell id="IiBEUlHa28SNpaY48bWn-30" value="Publishes data to UCB&amp;nbsp;&lt;br&gt;like LOT No" style="text;html=1;align=center;verticalAlign=middle;resizable=0;points=[];autosize=1;rotation=-15;" vertex="1" parent="1">
          <mxGeometry x="635" y="304" width="134" height="32" as="geometry"/>
        </mxCell>
        <mxCell id="IiBEUlHa28SNpaY48bWn-31" value="" style="endArrow=classic;startArrow=classic;html=1;" edge="1" parent="1">
          <mxGeometry width="50" height="50" relative="1" as="geometry">
            <mxPoint x="138" y="339" as="sourcePoint"/>
            <mxPoint x="138" y="282" as="targetPoint"/>
          </mxGeometry>
        </mxCell>
        <mxCell id="IiBEUlHa28SNpaY48bWn-32" value="" style="endArrow=classic;html=1;" edge="1" parent="1">
          <mxGeometry width="50" height="50" relative="1" as="geometry">
            <mxPoint x="844" y="305" as="sourcePoint"/>
            <mxPoint x="764" y="408" as="targetPoint"/>
          </mxGeometry>
        </mxCell>
        <mxCell id="IiBEUlHa28SNpaY48bWn-33" value="" style="endArrow=classic;html=1;" edge="1" parent="1">
          <mxGeometry width="50" height="50" relative="1" as="geometry">
            <mxPoint x="876" y="305" as="sourcePoint"/>
            <mxPoint x="898" y="412" as="targetPoint"/>
          </mxGeometry>
        </mxCell>
        <mxCell id="IiBEUlHa28SNpaY48bWn-36" value="&lt;b&gt;Cycle Comparison&lt;br&gt;&lt;br&gt;&lt;br&gt;&lt;/b&gt;&lt;span style=&quot;color: rgba(0 , 0 , 0 , 0) ; font-family: monospace ; font-size: 0px ; white-space: nowrap&quot;&gt;%3CmxGraphModel%3E%3Croot%3E%3CmxCell%20id%3D%220%22%2F%3E%3CmxCell%20id%3D%221%22%20parent%3D%220%22%2F%3E%3CmxCell%20id%3D%222%22%20value%3D%22%22%20style%3D%22shape%3Dimage%3BimageAspect%3D0%3Baspect%3Dfixed%3BverticalLabelPosition%3Dbottom%3BverticalAlign%3Dtop%3Bimage%3Ddata%3Aimage%2Fpng%2CiVBORw0KGgoAAAANSUhEUgAAAecAAAEICAYAAABlHzwDAAAAAXNSR0IArs4c6QAAAARnQU1BAACxjwv8YQUAAAAJcEhZcwAADsMAAA7DAcdvqGQAADD1SURBVHhe7Z09sus4sq33pMrQG82xFNGzeNZx9bzrtl%2FRrgZw%2FS7zRnTIbPM6PQO9TAAJJpIJEpQEiRTWV5VnkyCQAEECiwB%2F9POf%2F%2FznDoPBYDAYbD8GcYbBYDAYbGcGcYbBYDAYbGcGcYbBYDAYbGcGcd6B%2Fetf%2F4LtyLxjBIPBYO80iPMOjAUB7AOIMwwG24P96BED7HMG9gEfC6%2BhwGAw2DstiLO3AfY%2BgzjvB7QHGAy2B4M478AgzvsB7QEGg%2B3BIM47sBZxvl3O99PPz%2F2H7XS6n6%2B3tKWR2%2BV%2BOl3uW1I9necBQXuAwWB7MIjzDmxNnG%2BXE4nj5Z618Xa9n39O98s2pd0kzi%2FJ81U8cGHxKGgPMBhsD1YX579%2B3%2F%2F44%2Ff9L1mWEVS2P%2B6%2F%2FlRxZ9v%2BmvuT7X%2F8cf8taY399ftXEW%2Fm5wttTZwvNGp9WhQ3CdztNXkeEIgzDAbbg7WLsywn%2B%2BtPEtHa9r%2F%2BvP%2F%2B4%2Bf%2Bx28R1j%2Fvv0iwf%2F8l21mof93%2FlPjJ%2Fvr9Bwny7%2FufOZ5J905z9rmXrYlzTVTD6PZ8TWv3%2B%2FX8cw%2BrPMo9pQscGu2G6WgtzrSct5%2FOcxFeE3KTPpQgpDnfz2cqE4WfLtf7JSzr%2FGm7Tcdc1fR5iE9hxh%2BP4rk8YZ8lnhR8oTyxDMrvChBnGAy2B3tYnKPgJoH1tq%2Bmt%2FYXCfqHhPjD9qg4BwH6EZHjaWde5lEviXQWrjQdfWWxYj9mVBxEzPj3wjLJf5rvzhcIoSzJr11mXyFsuhCwFxaZIj6XmxJIWN7HFE%2Fvb6U8%2BT45XwBU92kC4gyDwfZgfUbOwZR4B%2BH9uf%2F6%2Fef9r5r4rgk4bf9FPsIo6A99UfDr%2FusXjbgp%2FA%2Fy%2Fzssp%2Blw2W7TsXH5w4iKLU3RG388iufyhBG9xJPZgIXyxDIov5JnxR4WZyKPlkl8sih58SU8iFYqdzYl1kzNB2O3ab8S7i3X0qXlM10w5PLY%2BHk5CnF4OI1G5jfeWPNbC0%2BrNSDOMBhsD%2Fb4PWcWJD1NPRNWMxLmqW4lWrMRsutDLIl7uv8cxPLXn6lcyZddZl8hjMQy5ZXTFb5tfPKRhZ3LY2YIwvJyefJ9cn0Bs2Br4rx4%2FzeJ8vVsRqpx64QWrTzarmFG15qa6Olwb7mWLoyG0whZh3s%2BQgTiJlPmtB81v7XwtFoD4gyDwfZgj42cwz1lNSq024PpkXNpPOqWUWkOd31Utsm6DveWa%2BnS8i%2Fah%2Bliw8TPy1GIw8NpMvKv%2Ba2Fy3rF1sQ5TNWSsIh%2BlU9O03IYTYrwpGleUVZ3Wltv90WrnufCNLL48Zb5rzutzX51OF1sSPyZP73fcgHRUB7GrleAOMNgsD3Y4%2FecWWBlFOptXxQmT7jNSFub9SXrOtxbrqUL%2BacRcou%2FsC4jf54xqPithct6xdbEmSneOSaByvdSCZ7aPom6MSykLNg6biF2ajs%2FNFVRrGqe5GtKbwW0shz%2Bkg%2BbLkSZ8uE4dXE2cSdFXy4PY9crQJxhMNgerM8DYelpbRlZx2nfabs7cuZwjkfh86e1F6aRvTLKMv%2BlMs6ntWPZp%2FBUHteflIHjygVEQ3kKH2m9Yi3iXIeFdm2aegc0iuOngTjDYLA92BPirEa6vD2NZqKp%2B64p7p%2F5fjOZvl9trHjPWfuhPKYHsJxyecvhL%2Fmw6ch0PhynLs4mrvtA2DyNxCnWK%2FawOPP9Zsq%2FGDXvFYgzDAaDNVtdnL%2FBGsXx0%2FawOIOXA3GGwWB7MIjzDgzivB8gzjAYbA%2F23eJ8EIM47we0BxgMtgeDOO%2FAIM77Ae0BBoPtwYI4wz5vYB94xwYGg8HebT%2BpTwIAAADAToA4AwAAADsD4gwAAADsDIgzAAAAsDN2J85%2F%2F%2FvfYTDYC%2ByVeP5hMNjzVmOX4vy3v%2F0NBoM9Yf%2F%2B979Ti3oNaJcw2OttqZ3uVpwBAI%2FTS5wBABPe%2B8lbDOIMwGBAnAHojye4WwziDMBgQJwB6I8nuFvs2OLMPzWYfq7x53S6X17xw8UH%2BflCAB6lrzhf7%2Bcf%2BxviZdjtci7a7fmaWptuz2Hb%2BX6EXzwFwMMT3C12YHHmBk%2BCLI03NGzqAJ4V17X0EG9wcD4pzrfLiUT3Qu00brnfVDuWNhy3UDK0NXBcPMHdYscV514iCXEGX87nxPl2v%2FAMV63xWHF2fQFwDDzB3WIHHjlzQ%2F%2B5ny%2FU5HVjF%2FEMf8%2F385mu1H9%2B7ieKdwnLaRrNimyRLoVf1fRbSsd5xim3FIfin3NY6kiKvNG5gH3xMXG2bc7C23VajJzBgfEEV%2BzXr19uuLYDizNxE8GN4pmnxkRki%2BkyZ7tu%2BLVwwd2eLhDSHF2YsjtT18JxOL88dwfAfti3OKcL3dSmuTkBcEQ8wWVjYRbztosdW5wVNxrlhtGsJ6Lesg5jKunOJxF%2FMmf7qg8AdsZhRs52HYAD4QmuFuY1gf4acZ51ALoj8JZ1GDMLZ39q9OulW%2FUBwP7oK87OfeXcHrbec16JD8COsWJrBdmuWzusOMcp5EkAN4%2Bck5hLw%2Bf0ZTqz%2FWL8x9D6tHaOA8C%2B6CvOdJl8ntoEE9pmmp%2Fe9LS2XQfgQFix9YT4K8WZWi51AnrKmUfNHJyEUQtkZTl0FHJv62zFmbdPD4SdeHo7hF%2BDIOcHvSj%2B9EDYPA8A9kZvcaYGEJ4F4TYTTF1EM8V7zuG%2BctrK7SaHy7a4CYCjYcW2JsJfKM4AgEfoL84AAE9wtxjEGYDBgDgD0B9PcLcYxBmAwYA4A9AfT3C3GMQZgMGAOAPQH09wtxjEGYDBgDgD0B9PcLcYxBmAwYA4A9Cff%2F7znw8bxBmAAYE4A9AfT3RbDeIMwIBAnAHojye6rQZxBmBAIM4A9McT3VaDOAMwIBBnAPrjiW6rQZwBGBCIMwD98US31SDOAAwIxBmA%2Fnii22oQZwAGBOIMQH880W01iDMAAwJxBqA%2Fnui2GsQZgAGBOAPQH090Ww3iDMCAQJwB6I8nuq0GcQZzbjf%2BH3wxEOcDgnZ5ODzRbbUvFefb%2FXo%2B3X9%2BfoKdLg%2Be0bfL%2FXS6kLeDcT3ff85XWrjdL6fTvdh92qfzz%2FnOWz1ivZ3uJ6634CME1v29m57H5MH9lHNNqmuGV%2BeUF9dxOD8X6%2FlF57LhM%2BKMdvm17RK4eKLbat8pzuGklcbLJ%2B5Cx7nEOzqBHnkUjVYafKyH2DFWOoGiLKrBu%2F4%2BhJTxbfXmUOR9XehUa3XOaeScpDjntOzl%2F6pz2fARcX7VvvQ49pa3nV%2BxHg7fLoGLJ7qt9lXifLuc7xfnDL1d6IrzkcvKd3QCPaByn9P%2BXs%2B20S6ISW7skauIxqK%2FN9PzmLTupy5DU3lMnXM9e2ka8s%2Fn8pXjXh%2Buh3eKM9plYvH4HrxdAhdPdFvtO8T5Ric2XU36nVW6QqeTN3eI3Li5IYRGfqZtcartROkvafrofKWYbifAjUhNIYmvtHyWq2DyG%2BIUeVAYdUjxKpnLa%2FIw6cUnp4%2FlSumeaoX1TsB2ls2d58J%2Bu%2BUOxyvFl7oO4c7%2BMyr8RMc5HMfgX%2F7W8tH%2BUrq0qQnJI63KPmmfMjVdHfUEyjrnetWdbTvpXA5Jb6TP57jvm3Yq8hZxRrvcQId2CT6OJ7qtdnBxjvewTucLNegUZOCrTOkIeTk0dO4wOIgbmDRou8wNU%2F5yYkX0E0OnjlZNNzHaB%2FsNBVQNMIRLR8R5SMdr%2FKb0WcDoKjqXia%2BoQ8cw2XoH8epOYHm%2F5%2BVO%2BykJuAMP9V7Zf1svMupszUfCJT4vt9abTsPoPCXcxnEp6zzUK4lSvuBYP2gBfS5nqP5YINjHchlK%2Booz2mXT%2BVXw6nYJ9oAnuq12bHHmBrF01nMjKRoxNwDVweUGWFnWYZocrho%2Bh5kGyVfTl6v2ERs6j7jCaELSeXmthafV7by4E%2BDyrO43Udsfobafa%2BFb06XVJlp8mzhBdLgOivNyLs6b773OzuUS9rkuABNdxRnt8gEgzt%2BIJ7qt9tUj59lJzA2IG6c0It2gvOVqg5PGb9J4jcvzkUY7YSq0ltdaOC9zJ2c6nvUOut4JBH%2FKAQvNqj8uT8t%2B1%2FZHaI1vw7em4%2BXWemvxbeO4mDpn8drY2VbjHHDkjHbp8eJ2CXaBJ7qtNsA9ZyE2XJ6GCh0Hdw66QXnLtgEqQgdD%2FqZOJl59T9O1ng9ugOmKPsTXV%2FApvTd9psuwUKY2FjqBwrd0dGFlgZb9JvK6jS91Utl%2Fia%2FDtf%2B1fEQdWBB1vCZiXU1FTT50njZ%2FF1vnaT06SOUMGzZA5%2FGh7zkLvP9ol%2FNzRFH4TuV7PCPwRjzRbbXvEOeEfSo0NNR0Fk%2BdPZMao57a0g1AlpcaHG%2FLDToROqN0tVw8eDL54DLKNJvXEU3pTVl4mbHrm7GdQLnOHSRP%2B3EZW%2B%2BFtux3uZ8qPuWVBdTbf4bThrhcJu58aZv4W8xnSvfQA2FEOG%2BCDyrnWQSe749yGAusyd%2FF1jnBQp%2F3ab2e9bkcoHN3WfSWeYs4J9AuW7DnSLn%2BULsEH8cT3Vb7KnEGL4JGseG%2B2xfBo95JBMA7xRm8iC9sl9%2BOJ7qtBnEGX0scbZgREwhAnAHojye6rQZxBmBAIM4A9McT3VaDOAMwIBBnAPrjiW6rQZwBGJCvEeenH8RaID%2BnsO0JabmdUn3EgR8wa3lA0M0%2FPtUut2uKhwTB7vBEt9UgzgAMyNeJcw%2BRLsTRiKmmyNt5Mj8TX8uKwmqfzBYxpzjyHrOXfwiTvKK%2FmA7sEU90Ww3iDMCAYOTcAI9w08j0238IBfTBE91WgzgDMCBdxZlFxX2vmJbzlCy%2F3x6jt733rsRJheOHUKYR9zMfpQF98ES31SDOAAxIP3FmwVD3Z7VoauGl0WIUuiQwkoCFmuLhh1DWCd9xt3Gp%2Fh75nCvogye6rQZxBmBAuokzi5MROh69lj80QXjCprHhtfg2fGu6tNpEi28T5yg%2FhAL64Iluq0GcARiQvuLsTOm2CJumNb4N35qOlz88cub89VPXYSS9MjddjYOR867wRLfVIM4ADEg3cSZJKKepHQFj8rqNv3Fam8O1%2F7V8ZtPdW4iiOhU1%2BdB52vxdjDjLenSQyhk2bAD3nPeIJ7qtBnEGYED6iTOhH%2FASsaiKJi%2Br%2BPp%2BMcWZ%2FJi0aYSLH0JJ4GntXeKJbqtBnAEYkK7ifAB41PvYE9IAtOOJbqtBnAEYkBHFGT%2BEAt6NJ7qtBnEGYEBGHzkD8A480W01iDMAAwJxBqA%2Fnui22veKs3n445JuL%2BX3Dq3x%2FSedRll8SNTbpt4ltA%2BCVPJnbvxUpdqWH4BpxeYFwEYgzgD0xxPdVvtSceanIfl1jLQahNI8Hek9Mbkkes42fqgkhxXb6%2FnLqx9Zj%2FOrI2m9haVyAtAAxBmA%2Fnii22pfJc48Ig0j1Cbxel6cCx96e9UPv8O4UYg9WvYPr1aABSDOAPTHE91W%2Bw5xDu9JnpQYpRf5eb2qTs%2BLc33kXMl%2Fwf%2F0kYUIT7%2FH6XTetzQFHqbRKbX2Q8uzd0oD%2BCgBqANxBqA%2Fnui22sHFOf7w%2BOmspokFEjX9yzRzgaqIs9wLzqZGxnYbCd80PW2E18vfxtEE%2F1IeKZuIfEohU%2BD5O8VmJO75T%2BXA5%2FyABuIMQH880W21Y4szj1zVaLMGj3DnXwN6cuTMohce5pL1etqc%2F5J%2FIo%2BWOT4v1OJLOP%2B1FwyV%2B9c8Mm%2BoKjAIEGcA%2BuOJbqt978i5wBHiZ8WZERFlltLmvFbuOSd%2FvE%2BLI20J57%2Bz%2FTJg5AwcIM4A9McT3Vb7ynvO8f7tJGpdRs4B5UNtX8p%2F%2BWlt3g8a%2FeZ8Wqa19XZdRtxzBnUgzgD0xxPdVvsOcU7kp7VZmPL9XhY7EtCZQFXEuZgijhY%2BMO%2BKsxoJW2FcyL94z5nEVr%2FnzFPbxQftw4WHiavz0tu1EONpbbAAxBmA%2Fnii22pfJc7Hh4XWXDAA0AGIMwD98US31SDOe4Gnvmn0u%2FYj6wC8AogzAP3xRLfVIM4ADAjEGYD%2BeKLbahBnAAYE4gxAfzzRbbWxxHn2wFf5MNa7WPzxjd7oOuCH2Z7J0n1Irif8BPrVeb97wOP4JB8T58r5t1iXs%2BMdLVSzu43Ph%2Bh3do5W8mfwgzTg1Xii22rjiXPRUPlDIg%2Fe531JQ3SeGO8K55eeLmdCR8VPkm%2FcF4lv%2F6bN3bhS58mFt%2FkNdxyf5zPiXDn%2F0mrEqculY%2BRsu%2FF5ImHF9nr%2By684NrJUTjAknui22hDivPiDGB9tUJ069dprVLV9fbQOOtbd9FqcwK%2Btpboa%2FTi%2BgHeK82L7m%2FG8OBc%2B9Paqn5WPA7XSsn94xXEoPNFtte8W5%2FAO8GlqDA0Nef7OMG9fGW3qd40pbp4Oc%2F1pVN5E%2FHjJ1C2Fz3leOJ9z4SfHqPqvfYBEPlrCU8MpKIVFH1MnNvMb9pfKIe9vc1ypA%2FlL0crpyYV6LfzpfTLHTJBRM6PymxjpOD7PW8R5diy9889S1mVAHyOLs%2B1WHTlX8l%2Fw7x5LXvXOFe2Hlt99TMH%2B8ES31b5UnONHQGaf9XQboVw1y18JnuJygxRhyI01b5cGnxJyow0iUPc3YToijpPX07YUlt3nzqLBP5Vl9unOFCadSkhfpK34DeWgcN0J2b8pCbNaTu0vbvCPWYB9mHoy%2BU351Ovlq47jk%2FQV54Vj6Z1%2FBaYumVB3SeiypTjeNj5XavW5ev4bgn9zLCmme64UX%2B57%2FzEF%2B8MT3Vb7TnHmK%2BfQ8RncRqg7T9PIZ41XNToJc30SS%2F4y844oX5nTPpTikdD5rvqPsBC41cF52H2o%2Bc0dT4qj0%2Bn0TPCR9qvFH1M7Zgxv0ztm8wuMexwfoas4Lx1LRT7%2F0npkXpezutPM6pVEj45tzn4hrXv%2BO6weS0HC%2Be8HjinYH57othpGzkWDMp1CRjpzlV6nsz6ZRX%2BC0xGlDoDLXwpKQue75n%2F16lwJmt4vz6%2BNI2XQf2NEqqvUmYXVBn%2BB2miL%2FZn0s7SELku1Xr71OG7nYyPnAqfevLDasWG8bSKizFLanJe6WPNYO5aChPPfDxxTsD880W21se85h6tsEZIkKtJCTVy%2Bwj2Rr%2Fl9T5uOGzw34mV%2FkUrnROn0%2FV9u6JMbPR1a80%2Bdo3NfK6ZV%2B8SdDqcxaV2%2FOo4NU9um8gkN%2FjT2mFEZi1EzY9MOdhxfQV9xTphjWT3%2F0nrEqUu3zhNrx0NtX8o%2FbKPlaTqcfYhgm2NJ%2F7rnSjGt%2Ff5jCvaHJ7qt9t3inCieFjVTTcW7jKEzSdts4wlppbGmdWlwOp32ueQvwI16foWt743GfMhn9iONnKj5rz4RGkc0sZwxTSxqFLfpPp7jt9jftGz%2F0n%2FRj1iqrzV%2FDvGYsb95%2FYS0OY%2BYz1jH8XneIs6J6cn72vmncepydryjhbrVxy%2FD542ce3r7cv5czimf8pwqjiXjnSu1c%2BlNxxTsD090W20IcT4W3KhV5%2BR2PmD%2F7Ps4vlOcj485lgA04oluq0Gc9wRPs9GVdnmFDnE%2BHAc4jhDnRrxjCUAjnui2GsQZgAGBOAPQH090Ww3iDMCAQJwB6I8nuq0GcQZgQHYlzjzlHx6sMg9YvRl%2B6Gsqg7Li7YNO6Drgh9meyfLtt1D4CfRrfDBU19uIx9HgiW6rQZwBGJDdibMWk1t8e%2BCh%2B7wvEaar%2B%2FR9Pzg%2F8wYB5791XyS%2B%2FZs2d%2BOaXne0%2BQ13HOd4ottqEGcABmQP4rz4gxjvEhaXTp167TWq2r4%2BWgcd6256LU5QrzuOfhwdPNFtNYgzAAPyUXEO7wCfpg7O7cBVx0rb5%2B8M8%2FaV0ab3LnII9%2Fxpyk59%2BmBMhKdN8YM0CRk1Myq%2FiZGO4xxPdFsN4gzAgHxGnONHQJo%2Bq0tr8UMi6oMiIXiKy52rCEPuePN2EbyUkDv4IAJ1fxNlpx7i5PW0LYVl97njb%2FBPZZl9ujOFiQCF9EXait9QDgrnCtVh%2Bm9KwqyWU%2FuLG%2FxjFmAfpp5MflM%2B9Xr5quNo8ES31SDOAAzIR8SZR1mh4zMsdayh80yjl2yp08zpVEcqYa5PYslfxnTqRBhlcQC%2F91yIR0Lnu%2Bo%2FwkLgVgfnYfeh5vdq4uh0Oj0TfKT9avHH1I4Zo0fNjM0vMO5xZDzRbTWIMwADsvuRc9FJlh3shHTmKr1OZ30yi%2F6EeacunTmXvxSUhM53zf%2FqiEsJmt4vz6%2BNI2XQf2NEqqskTGG1wV%2BgNnJmfyb9LC2hy1Ktl289jhBnAMBGPiPOCZ6apM64es%2BZO70sJElUZMhi4vKoBT9Ik%2BLYMLVtKp%2FQ4E9jj5kdNTM27WDH0cMT3VaDOAMwIB8V50TxtLaZPizejw3CkLbZDjGkTaMgWc8dr0qnfS75C3idOuuRei0o5EM%2Bsx8lDDX%2F1ad84%2Bg0ljOmiUWN4oYfpFHpdn0c53ii22oQZwAGZA%2FifCy4o1Yd%2FYqIgb3y3uPoiW6rQZwBGBCI8wZ4mplGT8U0LsT5eHzgOHqi22oQZwAGBOIMQH880W01iDMAAwJxBqA%2Fnui22lji7E1hvGpaA9Nc4EBAnAHojye6rQZxhjiDAYE4A9AfT3RbbQhxfssH9rf62fA4PgCvBuIMQH880W217xbn8J7aaRLBNXGmZf%2B9trN6f4%2Ffs0vhKj6%2FK6dfbJ%2F5CfnoD8q3v8gOwKuBOAPQH090W%2B1LxbnyyTkWyCyyyoKo8ov1lZfgNTk8fUEmZXCTr%2FrU%2FIS8KbwoEEEXEGufgAPg1UCcAeiPJ7qt9p3izCPd4lN1CU9wC%2FG0wi1f0uGRsP6CT4qvfa35sR%2BUN%2FBn47wiA9ADiDMA%2FfFEt9XGGzlbgSxE1fkkHX9RRo94dXzta82PjS9g5Aw%2BAMQZgP54ottquOecw9I0tcxH53AW5%2Bm%2BMD9cNk1fq2lt%2FmD6kp9Z3rjnDD4HxBmA%2Fnii22rfLc6J5qe1Kx865%2FQyVW0f%2FMrhPPpd8mPzxtPa4INAnAHojye6rTaEOAMASiDOAPTHE91WgzgDMCAQZwD644luq0GcARgQiDMA%2FfFEt9UgzgAMCMQZgP54ottqEOdXoh4Qi3acd5evZ11uZd12gJ9WvzrvheN973ewK3G2D0syXtgjvMoPAA%2FgiW6rQZxfie0IDtkxxFfHuusjfyiGH2P%2Fijo7HhBnAPrjiW6rQZxfQP1VrTcJ3RZWX%2BF6fZlz%2FWT4XfCUx1fU2fHYgzg3v%2BL4DFv94BVH8EI80W01iPMzrHzk5MajQ14P4epHL2jdf59aPhHKPmPgLMx2NrLemAcloP5n6eMnjjgaX5OoSn4xfPpRj4StH0FGzYyUP64dtM6Ox0fFedPHgeKye1z4XAnHmY38yYmn4uMHacAn8US31SDOD0ENmBrz6g9r6A6AOo%2F4CdDKD2NoUQzxedkJy%2FETsh62r%2BWhoA7S%2F2yoFWfnS2jcC%2Br8irxDLL9%2BAmrUzIS0R6%2Bz4%2FEZcW5sN%2Flc4PpvOC5MDjfnKwn4op%2BQt5wDii861uBzeKLbahDnR%2BAr9nyZrljtONLyrCPiTiN2Kj%2FUgYQRRYw8D7N5yHpTHiFFAYttuStGnFvz03Fq9cPwNl0Qm1aw%2Ft392UudHY%2BPiPOWdqOPUe240Db8IA3YM57othrE%2BSEWRgBeQ9fhoZNQ4mdJV%2Bx2ejiH2TxkfUseTOvIuTU%2FHYeW%2FJEzC6cp1yxtwvrfdZ0dj92NnO05oI%2BRe1z4PGVxTal0fO1rzY%2BNL3zRsQafwxPdVoM4PwM14NV7Z0wRHkd2sx%2FGkM4mOqI4vFwLm%2B6H3Xg0Ip3Pah5hZeM95%2BQrdYLFtLb4LPwrbP3YUTNTTduyP3ups%2BPxGXFO2PPCOwdy2NKxV8eUjs80fW3O1yU%2Fs7y%2F71iDz%2BGJbqtBnF%2FA4lOnjA0PnVOaWlOdAPuRqTcRMT%2BMR4RxWu589oSGqORBPc%2FUKbrETq8YYZDvyVfKQ%2BdX2%2B9ErB%2FuHLeMXI5UZ8fjo%2BKciOdFWJifAzqs5diT2BfnpoTz6HfJj80bT2uDF%2BKJbqtBnAEYkD2IMwDfjie6rQZxBmBAIM4A9McT3VaDOAMwIBBnAPrjiW6rQZwBGBCIMwD98US31SDOC7z%2FxyD2i374JrxDXLwLswY%2FAcuvpqg61DZgfX6aocRZPSAWjc%2FftG3n4Adpjo0nuq0GcW7CeYJ5L9inTTsgr6NkPeanXvPrSg3MXqEauz73wHDirI%2FpIY%2Fxm9qMtNWvqLPP44luq0GcHfIrHplBxMR9jYRfgWoX4nndea9QjVyf%2B2AEca6%2FqrXD8%2B%2BRVxyfZLGtfkWdfR5PdFsN4qwJ70GenAPunJh08vrvTE4%2FBnEiP%2FErVWkaWLardNnnqj%2BKy1e1YYqJLfrkDyvENNSQQnzVoGTd%2BvHyCjgfYLA%2Ba9TqzvvwyMj1uRO%2BWpztuWiO442P%2B4bjWLwjnwJnYSaP158r620mbCvyi%2BE575CIaGmrUv64dtA6%2Bzye6LYaxDlAB5lOBP%2BHGhjbMMxoUp9UdOKFcLuct5sTONzIWfHnFUrH4b86LEQgXD%2BVvNJqgBpv%2FnSht71gqe44L11vwsD1mYI%2BzXeKc%2BVcDMcrde66g286jupcDfF52QnL8ROyHra%2F4lzx2oz5Ehqf%2Bzq%2FIu8Qq72thrRHr7PP44luq0GcGb4qDJ16DdMwwsmjTtxgfDKpE0efRPqk0yeWDl%2Fzx1A8vuLNcazPJf86TpEPmzr5Fdzgzxfj07JUd%2FpKvGDg%2Blw6zd7IV4pz7Vy0x1FoOo5RBPGDNAnr392fvdTZ5%2FFEt9UgzoGlK0rGExO1LtiTyi7rMEaHr%2FkLZaCTUgro%2BSziE7U4Xl6a4krUXLnOqNUdp6vlM3J97oPhRs76OApbjmM6hnZ6OIfZPGR9Sx5M9Vx5gTjTUnNbnaVNWP%2B7rrPP44luq0GcNXSQ3XsxdGoUDYO2hiklUazaSWWX04k2JaOTNFzqNfhLZZiipA%2F9L8Xhq%2BFZnEpeccW9hxPKSXFyg%2BZ6slevtu6qo2Zm7PrcA98pzgl7LhbHRNF0HPkckHOd4%2FByLaznuRL9z9pMapT53Nc%2BC%2F%2BKlrZaTduyP3ups8%2FjiW6rQZwd5k8x2oZBhBM8TbPIyaFPHG85%2FKVGkdPJSUas%2BQurdCKmqZ3pQ%2F901RjSxfKFRhriUD4v%2FIEHnXfwXV56Z2LdcYMy9VWA%2Bvw0Xy3OidyO7fESGo9jcZ6kQD%2Bs57lC6WZthm%2FLiK%2BUh86vtt%2BJxbZaS9u4P%2Fuos8%2FjiW6rQZzfyUpjARtBfT7MCOIMwKfxRLfVIM7vBGLyWlCfDwNxBqA%2Fnui2GsQZgAGBOAPQH090Ww3iDMCAQJwB6I8nuq0GcZ7BTwBe5w8lMDqMl%2FkBhfB0sBCfLHQfzvAe6HDDAOgPxBmA%2Fnii22oQZ4u8VtAizqdTGUcE%2B1XiLOkLPwA8D8QZgP54ottqQ4tzfJUgrQTUawWeIOqwtMwvv0%2BP9pOwy%2BsAvF74eGLk3CLOB3itAOwHiDMA%2FfFEt9XGFOfw3txpLmb6ZfxGcb6pNPz1neonJ5fEOcSjC4Xw5Rx%2Bn4%2FKxhFTuH2XsXg3MF8Z7P%2BFfLAfIM4A9McT3VYbTJxJwMJn3rzPdJqX8VkYgwAas8KbBZgFX6%2BrOLy8Js5BkFOh7Jdyan5COuOTLjz2%2Bik7sB8gzgD0xxPdVhtLnMO0cymPGT1qZgpBTOiwvJxEXXy7cZgVcdZ5ybr9Gzemh87SyD8nKuHRdW1XAYA4A9AfT3RbDSPngBk1M1YwGR2mllkIw2ck2UElDq1QHur%2BNCPbi3iEDbfbmTRCLj4qz2DkDBqAOAPQH090Ww33nHndjpoZVxBVmF3WU81eHOJ6nj5Uz9wo39nH6hlZt3%2FDRh5t2w%2FIx2XccwatQJwB6I8nuq02pjgnNn%2F4XYd525nFOJQXj2pJUIPRCN6NJ%2Bs53P4YA4lwugeeLyrwtDbYAMQZgP54ottqQ4szAKMCcQagP57othrEGYABgTgD0B9PdFsN4gzAgECcAeiPJ7qtBnEGYEAgzgD0xxPdVoM4AzAgEGcA%2BuOJbqtBnAEYEIgzAP3xRLfVIM4ADAjEGYD%2BsMA%2BYxBnAAYD4gxAfzzB3WIQZwAGA%2BIM7v%2F9f8jw2aKeeIK7xSDOAAzGZ8WZBOG%2FqGv5v8b%2B6%2F%2Bl7WAZW38ksv%2BbNjXDPjgdjkVPPMHdYhBnAAbjM%2BKchOB%2F0ipz2NGbiFtafRX%2Fc24Qxq15O%2FX%2Bv5SHzQfHoqTpWCzjCe4WgzgDMBhvF%2Bd%2FUFfijfA8QWDh0KO4vP0aO8vgi406Tx1X%2B1nzwfnabZzmH2QsZKFTprjaRy4%2FxdejzX%2FwF%2B85LpUno9ZnflOY9u2VPfj14PwbxWhLvXc5FimeV99MzT%2BHH%2BJYLOMJ7haDOAMwGG8TZ%2BmU9ahNMxME27Fy5ysdMW9TvoIwqE43p2vwocVDOvrgQ%2BI58Hbp0GcCafNU6zO%2FS%2BVT8MjNrTuOz%2Fsupn0lFuu9kl%2B3Y0HbvPpe8n%2BYY7GMJ7hbDOIMwGDsVpxD58kdvbGQnjrS3CETRVrbAS%2F4KDpjgoWFtxUdfkI6ZbFHBUH7XSyfQvIuBJOpCIhmqd69%2FWR6HIu1%2Bq7598q4y2OxjCe4WwziDMBgvE2chTCycgTFEwRPOAKNgrDmY0ksZh23iltsf1IQquUjRAh6TWvbOhd6HIst9a3x6myXx2IZT3C3GMQZgMF4uzgHuBNNHbMwEwruSHVHq6FtuiNdFIQFH3oEpDv9tY6b88vrVhDMOset%2BV0qH4vBqhDYvNfg%2BFLvC2m7HYtKfS%2F5P8yxWMYT3C0GcQZgMD4jzg4zQSBCB05dTzbVmTcJArHkg5fDiDKZXCzMOm4idOwp3j8onc0%2FhKcOXEZZIYx9pTw9v9XytWDFaANeWYQux2Khvpmaf6%2BcuzwWy3iCu8W%2BV5yv5%2FvPz%2Bl%2BMedbM7fL%2FXS6cFPYDqf9%2BaH8xU7383Xd0%2FV8CvHP6Rz7PLf79XJ9rA7AbtmNOL8dLRwDwiKmxbE7Y9e3J7hb7GvFmYXufD7fT4%2Bq87PirNPervfL6WelLNf7%2BefMp%2FN63rJdx3umvDXoAufh%2BgO7BeI8ItSOZQT5NiDOz9jXiPPtcr7TIC9xIzFkoSPBe1SwnhE7L%2B2av0fy6yHIGalD4nq5nzGC%2FhrGFWcA3ocnuFvs%2BOJMo9LziUbJWjxYtMLcMAtMmtoOQkYCnqaO41RziB1HiMUUNIVp4aPlM418w3YRLKYIJ78q%2Flw0y5Gx9nfhfcj5UxxJH%2F46ZU7hkw%2BJu1Demq8axaiZp7dpPZQ1BYHDAnEGoD%2Be4G6xA4szCQYJzel8ITFLQYnbZRIeXg4iw%2BKk7%2F2y%2BMwElBCRy2LHAs%2F3gWNM9vcTFbIIz%2BnsckYuFNQFQwi2%2BZkwr8xLaUI%2BTnlrvuKagX2oixCBp%2BdDnWMUfWQgzgD0xxPcLXZccWZxcYd%2BUZzi6FBGj0bIGCNsPPp249fS1cLtciaNnHmbLlswEuurk76Wh7e9NU0K9suYKEbNc%2FTFDzgeEGcA%2BuMJ7hb7vpEzi06hHGmkqsWPyeLEosnb0xYrZlbE1sLtsqDTyfS2xktv%2FdjwR9Kk4CK%2FgsqomcHI%2BSuAOAPQH09wt9iBxTlh7jnnaWxFCOMnt11xiiNaScIPlpUj7co0sQkvpolnQhif1o7XDCndlGGMq9N4YYwN99KIf1vemq%2B0mnFHzbjn%2FE1AnAHojye4W%2Bz44pyIT2uzMKn7uQILkUxXpyAtTpxWpppPPL3N4Vq8aLl4%2BIrDGPEbwlM6Gx5M3etlwgWFpEuCZ%2FILyzqMmYVH0S8eIkvxZuWt%2BUqrEa4%2FZ9SMp7W%2FCogzAP3xBHeLfY04f5objTjjiBqAfQNxBqA%2FnuBuMYjzE8gXvYoRMAA7B%2BIMQH88wd1iEGcABgPiDEB%2FPMHdYhBnAAYD4gxAfzzB3WKDijM%2FfXydP3DFuA9KPcCr%2FADwYo4nzo3tlZf5FlPx7Ed8e8F%2FMDJ9eyAsC14YANvxBHeLjSnO8rrQWmN%2Fhlf5AeDFHE6cW9trWD6VcTis%2BtbCA%2BIs6Qs%2FAMzxBHeLfb04lz%2BIwajXhbwG9qpGt9UPXlcCb2LP4vxUe03L%2FKGc%2FHAmC7v%2BxkHh44mRc0v7RpseGk9wt9j3irP5OElGf2SjobHP3kdm2Ic8pR3eYU7hKn5%2BX9qEl%2B81n%2B%2Fn8MQ3dwb40Ad4D7sU5xe117Cs0vAbFe6ncePWujin9tn0ozMhWMXLDRhtemQ8wd1iXyjO1CCoQXk%2FiMHbio9scEMLDcpYaHAcV12BF41akcPjva38ZS7qIBb9hLy54zAe%2BWtiofy44gZ92Jc4v6q9pu3StkIYC75eV3F4WYQ4LAtKnPXHg1jwta%2Ban5DO%2BESbHhJPcLfY94kzN6LigRCFvgpnigaW0I1v1hEkkaVt1R%2FKiF7W%2FdhvfRv4Sry2GwA8w67E%2BVXttVhOoi6%2B3TjMijjrvGTd%2Fo0bw4U5fyUwjPxzohK06bHwBHeLDTRyNlfhjG2AjG58s4bLcONVI163sRJrfmx8AVfZoDPHGDlvbK9mmYWQby0FMazEoRXKQ81qMbK9iEfYcLudSW033qZSoE0PiSe4W%2BwLxTlBDaK4h2Wvwhm3gUlYvBqe%2FUBFEOfpHlL%2BoQyJn3qYcA9qyc8sb%2FKM%2B1PgDexLnBNPt1dnWUSyFoe4nqc2y9wo38UfirF%2Fw8Z0wR4zUIKPNj0ynuBuse8V58T0gxiNo1cdFjqMNBWtGpj7QxlxwxTOV8pLfmzeeLITvIldinPiufbqbGcW41Beoa0moxG8G0%2FWcziNhkObjuUs%2BgTpKNCmh8YT3C329eIMACjZszgD8C14grvFIM4ADAbEGYD%2BeIK7xSDOAAwGxBmA%2FniCu8UgzgAMBsQZgP54grvFIM4ADMahxJmfns5PQj%2FA7AGwDXDa9JBXNH41a90TvxrG8ffzTjM%2FNY4H096NJ7hbDOIMwGAcSZxZ6M78bexH1flZcS6e2I5PaC%2BXJb5qGXR5LW%2FZruM9U94a3mtpoDue4G4xiDMAg7FncY6vUqUVkqj4ShW%2FivigYD0jdl7aNX%2BP5NdDkDPqtTS82vVWPMHdYhBnAAZjl%2BJsP0LCsGjFT3yRwKSp7SBkJOBp6jhONYfYcYRYTEFTmBY%2BWtbfG5iuAXS4%2BW7BTDTLkXH5%2FQLeltY5jqQPf50yp%2FDJh8RdKG%2FNV41i1IyPorwTT3C3GMQZgMHYlziTYJDQeD98ob9FHT7HyYrC4qTv%2FbL4zASUEJHLYscCb77gFxWyCM%2Fp7HJGLhTUBUMItvmZMK%2FMS2lCPk55a77imoF9qIsQgafnQ51jFN0TT3C3GMQZgMHYlTizuLhDvyhOcXQoo0cjZIwRtuoP0tTS1cLtciaNnHmbLlswEmvv5ylreXjbW9OkYL%2BMiWLUPEdf%2FIDX4wnuFoM4AzAYhxg5s%2BgUypFGqvbX3LI4sWjy9rTFipkVsbVwuyzodDK9rfHSWz82%2FJE0KbjIr6AyamYwcn4LnuBuMYgzAIOxL3FOmHvOeRpbEcL4yW1XnOKIVpLwg2XlSLsyTWzCi2nimRDGp7XjNUNKN2UY4%2Bo0Xhhjw7004t%2BWt%2BYrrWbcUTPuOb8TT3C3GMQZgMHYpTgnph%2B%2BUPdzBRYima5OQVqcih%2Bf4OltDtfiRcvFw1ccxojfEJ7S2fBg6l4vEy4oJF0SPJNfWNZhzCxc%2FYiGST8rb81XWo1w%2FTmjZjyt%2FVY8wd1iEGcABmPP4vxpbjTijCNqAJ7DE9wtBnEGYDAgziXyRa9iBAzAk3iCu8UgzgAMBsQZgP54grvFIM4ADAbEGYD%2BeIK7xSDOAAzGfsWZnya%2Bzh%2BgYtwHnx7gVX4AWMET3C0GcQZgMHYrzvL6D8QZfAGe4G4xiDMAg7EHcS5%2F4IJRr%2F%2FsSZzx%2BhF4EE9wtxjEGYDB%2BKg4m4%2BNZPRHM9bEmZZn7xcz7EOeug7vJKdwFT%2B%2F%2F2zCy%2FeUz%2FdzeIKbLxbw4Q7wGJ7gbjGIMwCD8RlxJpHzPtMZMB%2FNYIHMIqssiKr5QEkQU2cknMM5vvrSFr%2FHvOQn5K0%2BAyrgk5dgI57gbjGIMwCD8RFx5lFt7eMeetTMeIJbiKcV7iSytK36wxfRy7of%2B%2B1uA34sArTiCe4WgzgDMBj7GjmbUTNjBZUpRNX5NCWFLP7wRQxd92PjCxg5g414grvFIM4ADMZnxDlh7znbUTPjCWQOS9PUkiaHV374QuLLtDb%2FgMSSn1neuOcMHsMT3C0GcQZgMD4qzonpBy4aR686zPvBCQ5mEU1T1PbBrxzOo98lPzZvPK0NHsQT3C0GcQZgMPYgzgB8O57gbjGIMwCDAXEGoD%2Be4G4xiDMAgwFxBqA%2FnuBuMYgzAIMBcQagP57gbjGIMwCDAXEGoD%2Be4G4xiDMAgwFxBqA%2FnuBuMYgzAIMBcQagP57gbjGIMwCDAXEGoD%2Be4G4xiDMAgwFxBqA%2FnuBuMYgzAIMBcQagP57gbjGIMwCDAXEGoD%2Be4G4xiDMAgwFxBqA%2FVmx%2F%2Ffo1C1sKhzgDMBgQZwD6Y8WWRdgKsRcmBnEGYDAgzgD0x4qtCLGIsV23BnEGYDAgzgD0xxNcLchLwswGcQZgMCDOAPTHE1y2FmFmgzgDMBgQZwD64wmu2Jows0GcARgMiDMA%2FfEEd4tBnAEYDIgzAP3xBHeLQZwBGAyIMwD98QR3i0GcARgMiDMA%2FfEEd4tBnAEYDIgzAP3xBHeLHU6cucAwGOw5eyVolzBYH6uxO3EGAAAARgfiDAAAAOwMiDMAAACwK%2B73%2Fw9IsknvHsBweAAAAABJRU5ErkJggg%3D%3D%3B%22%20vertex%3D%221%22%20parent%3D%221%22%3E%3CmxGeometry%20x%3D%22559%22%20y%3D%22316%22%20width%3D%22285.92%22%20height%3D%22155%22%20as%3D%22geometry%22%2F%3E%3C%2FmxCell%3E%3C%2Froot%3E%3C%2FmxGraphModel%3E&lt;/span&gt;&lt;span style=&quot;color: rgba(0 , 0 , 0 , 0) ; font-family: monospace ; font-size: 0px ; white-space: nowrap&quot;&gt;%3CmxGraphModel%3E%3Croot%3E%3CmxCell%20id%3D%220%22%2F%3E%3CmxCell%20id%3D%221%22%20parent%3D%220%22%2F%3E%3CmxCell%20id%3D%222%22%20value%3D%22%22%20style%3D%22shape%3Dimage%3BimageAspect%3D0%3Baspect%3Dfixed%3BverticalLabelPosition%3Dbottom%3BverticalAlign%3Dtop%3Bimage%3Ddata%3Aimage%2Fpng%2CiVBORw0KGgoAAAANSUhEUgAAAecAAAEICAYAAABlHzwDAAAAAXNSR0IArs4c6QAAAARnQU1BAACxjwv8YQUAAAAJcEhZcwAADsMAAA7DAcdvqGQAADD1SURBVHhe7Z09sus4sq33pMrQG82xFNGzeNZx9bzrtl%2FRrgZw%2FS7zRnTIbPM6PQO9TAAJJpIJEpQEiRTWV5VnkyCQAEECiwB%2F9POf%2F%2FznDoPBYDAYbD8GcYbBYDAYbGcGcYbBYDAYbGcGcYbBYDAYbGcGcd6B%2Fetf%2F4LtyLxjBIPBYO80iPMOjAUB7AOIMwwG24P96BED7HMG9gEfC6%2BhwGAw2DstiLO3AfY%2BgzjvB7QHGAy2B4M478AgzvsB7QEGg%2B3BIM47sBZxvl3O99PPz%2F2H7XS6n6%2B3tKWR2%2BV%2BOl3uW1I9necBQXuAwWB7MIjzDmxNnG%2BXE4nj5Z618Xa9n39O98s2pd0kzi%2FJ81U8cGHxKGgPMBhsD1YX579%2B3%2F%2F44%2Ff9L1mWEVS2P%2B6%2F%2FlRxZ9v%2BmvuT7X%2F8cf8taY399ftXEW%2Fm5wttTZwvNGp9WhQ3CdztNXkeEIgzDAbbg7WLsywn%2B%2BtPEtHa9r%2F%2BvP%2F%2B4%2Bf%2Bx28R1j%2Fvv0iwf%2F8l21mof93%2FlPjJ%2Fvr9Bwny7%2FufOZ5J905z9rmXrYlzTVTD6PZ8TWv3%2B%2FX8cw%2BrPMo9pQscGu2G6WgtzrSct5%2FOcxFeE3KTPpQgpDnfz2cqE4WfLtf7JSzr%2FGm7Tcdc1fR5iE9hxh%2BP4rk8YZ8lnhR8oTyxDMrvChBnGAy2B3tYnKPgJoH1tq%2Bmt%2FYXCfqHhPjD9qg4BwH6EZHjaWde5lEviXQWrjQdfWWxYj9mVBxEzPj3wjLJf5rvzhcIoSzJr11mXyFsuhCwFxaZIj6XmxJIWN7HFE%2Fvb6U8%2BT45XwBU92kC4gyDwfZgfUbOwZR4B%2BH9uf%2F6%2Fef9r5r4rgk4bf9FPsIo6A99UfDr%2FusXjbgp%2FA%2Fy%2Fzssp%2Blw2W7TsXH5w4iKLU3RG388iufyhBG9xJPZgIXyxDIov5JnxR4WZyKPlkl8sih58SU8iFYqdzYl1kzNB2O3ab8S7i3X0qXlM10w5PLY%2BHk5CnF4OI1G5jfeWPNbC0%2BrNSDOMBhsD%2Fb4PWcWJD1NPRNWMxLmqW4lWrMRsutDLIl7uv8cxPLXn6lcyZddZl8hjMQy5ZXTFb5tfPKRhZ3LY2YIwvJyefJ9cn0Bs2Br4rx4%2FzeJ8vVsRqpx64QWrTzarmFG15qa6Olwb7mWLoyG0whZh3s%2BQgTiJlPmtB81v7XwtFoD4gyDwfZgj42cwz1lNSq024PpkXNpPOqWUWkOd31Utsm6DveWa%2BnS8i%2Fah%2Bliw8TPy1GIw8NpMvKv%2Ba2Fy3rF1sQ5TNWSsIh%2BlU9O03IYTYrwpGleUVZ3Wltv90WrnufCNLL48Zb5rzutzX51OF1sSPyZP73fcgHRUB7GrleAOMNgsD3Y4%2FecWWBlFOptXxQmT7jNSFub9SXrOtxbrqUL%2BacRcou%2FsC4jf54xqPithct6xdbEmSneOSaByvdSCZ7aPom6MSykLNg6biF2ajs%2FNFVRrGqe5GtKbwW0shz%2Bkg%2BbLkSZ8uE4dXE2cSdFXy4PY9crQJxhMNgerM8DYelpbRlZx2nfabs7cuZwjkfh86e1F6aRvTLKMv%2BlMs6ntWPZp%2FBUHteflIHjygVEQ3kKH2m9Yi3iXIeFdm2aegc0iuOngTjDYLA92BPirEa6vD2NZqKp%2B64p7p%2F5fjOZvl9trHjPWfuhPKYHsJxyecvhL%2Fmw6ch0PhynLs4mrvtA2DyNxCnWK%2FawOPP9Zsq%2FGDXvFYgzDAaDNVtdnL%2FBGsXx0%2FawOIOXA3GGwWB7MIjzDgzivB8gzjAYbA%2F23eJ8EIM47we0BxgMtgeDOO%2FAIM77Ae0BBoPtwYI4wz5vYB94xwYGg8HebT%2BpTwIAAADAToA4AwAAADsD4gwAAADsDIgzAAAAsDN2J85%2F%2F%2FvfYTDYC%2ByVeP5hMNjzVmOX4vy3v%2F0NBoM9Yf%2F%2B979Ti3oNaJcw2OttqZ3uVpwBAI%2FTS5wBABPe%2B8lbDOIMwGBAnAHojye4WwziDMBgQJwB6I8nuFvs2OLMPzWYfq7x53S6X17xw8UH%2BflCAB6lrzhf7%2Bcf%2BxviZdjtci7a7fmaWptuz2Hb%2BX6EXzwFwMMT3C12YHHmBk%2BCLI03NGzqAJ4V17X0EG9wcD4pzrfLiUT3Qu00brnfVDuWNhy3UDK0NXBcPMHdYscV514iCXEGX87nxPl2v%2FAMV63xWHF2fQFwDDzB3WIHHjlzQ%2F%2B5ny%2FU5HVjF%2FEMf8%2F385mu1H9%2B7ieKdwnLaRrNimyRLoVf1fRbSsd5xim3FIfin3NY6kiKvNG5gH3xMXG2bc7C23VajJzBgfEEV%2BzXr19uuLYDizNxE8GN4pmnxkRki%2BkyZ7tu%2BLVwwd2eLhDSHF2YsjtT18JxOL88dwfAfti3OKcL3dSmuTkBcEQ8wWVjYRbztosdW5wVNxrlhtGsJ6Lesg5jKunOJxF%2FMmf7qg8AdsZhRs52HYAD4QmuFuY1gf4acZ51ALoj8JZ1GDMLZ39q9OulW%2FUBwP7oK87OfeXcHrbec16JD8COsWJrBdmuWzusOMcp5EkAN4%2Bck5hLw%2Bf0ZTqz%2FWL8x9D6tHaOA8C%2B6CvOdJl8ntoEE9pmmp%2Fe9LS2XQfgQFix9YT4K8WZWi51AnrKmUfNHJyEUQtkZTl0FHJv62zFmbdPD4SdeHo7hF%2BDIOcHvSj%2B9EDYPA8A9kZvcaYGEJ4F4TYTTF1EM8V7zuG%2BctrK7SaHy7a4CYCjYcW2JsJfKM4AgEfoL84AAE9wtxjEGYDBgDgD0B9PcLcYxBmAwYA4A9AfT3C3GMQZgMGAOAPQH09wtxjEGYDBgDgD0B9PcLcYxBmAwYA4A9Cff%2F7znw8bxBmAAYE4A9AfT3RbDeIMwIBAnAHojye6rQZxBmBAIM4A9McT3VaDOAMwIBBnAPrjiW6rQZwBGBCIMwD98US31SDOAAwIxBmA%2Fnii22oQZwAGBOIMQH880W01iDMAAwJxBqA%2Fnui2GsQZgAGBOAPQH090Ww3iDMCAQJwB6I8nuq0GcQZzbjf%2BH3wxEOcDgnZ5ODzRbbUvFefb%2FXo%2B3X9%2BfoKdLg%2Be0bfL%2FXS6kLeDcT3ff85XWrjdL6fTvdh92qfzz%2FnOWz1ivZ3uJ6634CME1v29m57H5MH9lHNNqmuGV%2BeUF9dxOD8X6%2FlF57LhM%2BKMdvm17RK4eKLbat8pzuGklcbLJ%2B5Cx7nEOzqBHnkUjVYafKyH2DFWOoGiLKrBu%2F4%2BhJTxbfXmUOR9XehUa3XOaeScpDjntOzl%2F6pz2fARcX7VvvQ49pa3nV%2BxHg7fLoGLJ7qt9lXifLuc7xfnDL1d6IrzkcvKd3QCPaByn9P%2BXs%2B20S6ISW7skauIxqK%2FN9PzmLTupy5DU3lMnXM9e2ka8s%2Fn8pXjXh%2Buh3eKM9plYvH4HrxdAhdPdFvtO8T5Ric2XU36nVW6QqeTN3eI3Li5IYRGfqZtcartROkvafrofKWYbifAjUhNIYmvtHyWq2DyG%2BIUeVAYdUjxKpnLa%2FIw6cUnp4%2FlSumeaoX1TsB2ls2d58J%2Bu%2BUOxyvFl7oO4c7%2BMyr8RMc5HMfgX%2F7W8tH%2BUrq0qQnJI63KPmmfMjVdHfUEyjrnetWdbTvpXA5Jb6TP57jvm3Yq8hZxRrvcQId2CT6OJ7qtdnBxjvewTucLNegUZOCrTOkIeTk0dO4wOIgbmDRou8wNU%2F5yYkX0E0OnjlZNNzHaB%2FsNBVQNMIRLR8R5SMdr%2FKb0WcDoKjqXia%2BoQ8cw2XoH8epOYHm%2F5%2BVO%2BykJuAMP9V7Zf1svMupszUfCJT4vt9abTsPoPCXcxnEp6zzUK4lSvuBYP2gBfS5nqP5YINjHchlK%2Booz2mXT%2BVXw6nYJ9oAnuq12bHHmBrF01nMjKRoxNwDVweUGWFnWYZocrho%2Bh5kGyVfTl6v2ERs6j7jCaELSeXmthafV7by4E%2BDyrO43Udsfobafa%2BFb06XVJlp8mzhBdLgOivNyLs6b773OzuUS9rkuABNdxRnt8gEgzt%2BIJ7qt9tUj59lJzA2IG6c0It2gvOVqg5PGb9J4jcvzkUY7YSq0ltdaOC9zJ2c6nvUOut4JBH%2FKAQvNqj8uT8t%2B1%2FZHaI1vw7em4%2BXWemvxbeO4mDpn8drY2VbjHHDkjHbp8eJ2CXaBJ7qtNsA9ZyE2XJ6GCh0Hdw66QXnLtgEqQgdD%2FqZOJl59T9O1ng9ugOmKPsTXV%2FApvTd9psuwUKY2FjqBwrd0dGFlgZb9JvK6jS91Utl%2Fia%2FDtf%2B1fEQdWBB1vCZiXU1FTT50njZ%2FF1vnaT06SOUMGzZA5%2FGh7zkLvP9ol%2FNzRFH4TuV7PCPwRjzRbbXvEOeEfSo0NNR0Fk%2BdPZMao57a0g1AlpcaHG%2FLDToROqN0tVw8eDL54DLKNJvXEU3pTVl4mbHrm7GdQLnOHSRP%2B3EZW%2B%2BFtux3uZ8qPuWVBdTbf4bThrhcJu58aZv4W8xnSvfQA2FEOG%2BCDyrnWQSe749yGAusyd%2FF1jnBQp%2F3ab2e9bkcoHN3WfSWeYs4J9AuW7DnSLn%2BULsEH8cT3Vb7KnEGL4JGseG%2B2xfBo95JBMA7xRm8iC9sl9%2BOJ7qtBnEGX0scbZgREwhAnAHojye6rQZxBmBAIM4A9McT3VaDOAMwIBBnAPrjiW6rQZwBGJCvEeenH8RaID%2BnsO0JabmdUn3EgR8wa3lA0M0%2FPtUut2uKhwTB7vBEt9UgzgAMyNeJcw%2BRLsTRiKmmyNt5Mj8TX8uKwmqfzBYxpzjyHrOXfwiTvKK%2FmA7sEU90Ww3iDMCAYOTcAI9w08j0238IBfTBE91WgzgDMCBdxZlFxX2vmJbzlCy%2F3x6jt733rsRJheOHUKYR9zMfpQF98ES31SDOAAxIP3FmwVD3Z7VoauGl0WIUuiQwkoCFmuLhh1DWCd9xt3Gp%2Fh75nCvogye6rQZxBmBAuokzi5MROh69lj80QXjCprHhtfg2fGu6tNpEi28T5yg%2FhAL64Iluq0GcARiQvuLsTOm2CJumNb4N35qOlz88cub89VPXYSS9MjddjYOR867wRLfVIM4ADEg3cSZJKKepHQFj8rqNv3Fam8O1%2F7V8ZtPdW4iiOhU1%2BdB52vxdjDjLenSQyhk2bAD3nPeIJ7qtBnEGYED6iTOhH%2FASsaiKJi%2Br%2BPp%2BMcWZ%2FJi0aYSLH0JJ4GntXeKJbqtBnAEYkK7ifAB41PvYE9IAtOOJbqtBnAEYkBHFGT%2BEAt6NJ7qtBnEGYEBGHzkD8A480W01iDMAAwJxBqA%2Fnui22veKs3n445JuL%2BX3Dq3x%2FSedRll8SNTbpt4ltA%2BCVPJnbvxUpdqWH4BpxeYFwEYgzgD0xxPdVvtSceanIfl1jLQahNI8Hek9Mbkkes42fqgkhxXb6%2FnLqx9Zj%2FOrI2m9haVyAtAAxBmA%2Fnii22pfJc48Ig0j1Cbxel6cCx96e9UPv8O4UYg9WvYPr1aABSDOAPTHE91W%2Bw5xDu9JnpQYpRf5eb2qTs%2BLc33kXMl%2Fwf%2F0kYUIT7%2FH6XTetzQFHqbRKbX2Q8uzd0oD%2BCgBqANxBqA%2Fnui22sHFOf7w%2BOmspokFEjX9yzRzgaqIs9wLzqZGxnYbCd80PW2E18vfxtEE%2F1IeKZuIfEohU%2BD5O8VmJO75T%2BXA5%2FyABuIMQH880W21Y4szj1zVaLMGj3DnXwN6cuTMohce5pL1etqc%2F5J%2FIo%2BWOT4v1OJLOP%2B1FwyV%2B9c8Mm%2BoKjAIEGcA%2BuOJbqt978i5wBHiZ8WZERFlltLmvFbuOSd%2FvE%2BLI20J57%2Bz%2FTJg5AwcIM4A9McT3Vb7ynvO8f7tJGpdRs4B5UNtX8p%2F%2BWlt3g8a%2FeZ8Wqa19XZdRtxzBnUgzgD0xxPdVvsOcU7kp7VZmPL9XhY7EtCZQFXEuZgijhY%2BMO%2BKsxoJW2FcyL94z5nEVr%2FnzFPbxQftw4WHiavz0tu1EONpbbAAxBmA%2Fnii22pfJc7Hh4XWXDAA0AGIMwD98US31SDOe4Gnvmn0u%2FYj6wC8AogzAP3xRLfVIM4ADAjEGYD%2BeKLbahBnAAYE4gxAfzzRbbWxxHn2wFf5MNa7WPzxjd7oOuCH2Z7J0n1Irif8BPrVeb97wOP4JB8T58r5t1iXs%2BMdLVSzu43Ph%2Bh3do5W8mfwgzTg1Xii22rjiXPRUPlDIg%2Fe531JQ3SeGO8K55eeLmdCR8VPkm%2FcF4lv%2F6bN3bhS58mFt%2FkNdxyf5zPiXDn%2F0mrEqculY%2BRsu%2FF5ImHF9nr%2By684NrJUTjAknui22hDivPiDGB9tUJ069dprVLV9fbQOOtbd9FqcwK%2Btpboa%2FTi%2BgHeK82L7m%2FG8OBc%2B9Paqn5WPA7XSsn94xXEoPNFtte8W5%2FAO8GlqDA0Nef7OMG9fGW3qd40pbp4Oc%2F1pVN5E%2FHjJ1C2Fz3leOJ9z4SfHqPqvfYBEPlrCU8MpKIVFH1MnNvMb9pfKIe9vc1ypA%2FlL0crpyYV6LfzpfTLHTJBRM6PymxjpOD7PW8R5diy9889S1mVAHyOLs%2B1WHTlX8l%2Fw7x5LXvXOFe2Hlt99TMH%2B8ES31b5UnONHQGaf9XQboVw1y18JnuJygxRhyI01b5cGnxJyow0iUPc3YToijpPX07YUlt3nzqLBP5Vl9unOFCadSkhfpK34DeWgcN0J2b8pCbNaTu0vbvCPWYB9mHoy%2BU351Ovlq47jk%2FQV54Vj6Z1%2FBaYumVB3SeiypTjeNj5XavW5ev4bgn9zLCmme64UX%2B57%2FzEF%2B8MT3Vb7TnHmK%2BfQ8RncRqg7T9PIZ41XNToJc30SS%2F4y844oX5nTPpTikdD5rvqPsBC41cF52H2o%2Bc0dT4qj0%2Bn0TPCR9qvFH1M7Zgxv0ztm8wuMexwfoas4Lx1LRT7%2F0npkXpezutPM6pVEj45tzn4hrXv%2BO6weS0HC%2Be8HjinYH57othpGzkWDMp1CRjpzlV6nsz6ZRX%2BC0xGlDoDLXwpKQue75n%2F16lwJmt4vz6%2BNI2XQf2NEqqvUmYXVBn%2BB2miL%2FZn0s7SELku1Xr71OG7nYyPnAqfevLDasWG8bSKizFLanJe6WPNYO5aChPPfDxxTsD880W21se85h6tsEZIkKtJCTVy%2Bwj2Rr%2Fl9T5uOGzw34mV%2FkUrnROn0%2FV9u6JMbPR1a80%2Bdo3NfK6ZV%2B8SdDqcxaV2%2FOo4NU9um8gkN%2FjT2mFEZi1EzY9MOdhxfQV9xTphjWT3%2F0nrEqUu3zhNrx0NtX8o%2FbKPlaTqcfYhgm2NJ%2F7rnSjGt%2Ff5jCvaHJ7qt9t3inCieFjVTTcW7jKEzSdts4wlppbGmdWlwOp32ueQvwI16foWt743GfMhn9iONnKj5rz4RGkc0sZwxTSxqFLfpPp7jt9jftGz%2F0n%2FRj1iqrzV%2FDvGYsb95%2FYS0OY%2BYz1jH8XneIs6J6cn72vmncepydryjhbrVxy%2FD542ce3r7cv5czimf8pwqjiXjnSu1c%2BlNxxTsD090W20IcT4W3KhV5%2BR2PmD%2F7Ps4vlOcj485lgA04oluq0Gc9wRPs9GVdnmFDnE%2BHAc4jhDnRrxjCUAjnui2GsQZgAGBOAPQH090Ww3iDMCAQJwB6I8nuq0GcQZgQHYlzjzlHx6sMg9YvRl%2B6Gsqg7Li7YNO6Drgh9meyfLtt1D4CfRrfDBU19uIx9HgiW6rQZwBGJDdibMWk1t8e%2BCh%2B7wvEaar%2B%2FR9Pzg%2F8wYB5791XyS%2B%2FZs2d%2BOaXne0%2BQ13HOd4ottqEGcABmQP4rz4gxjvEhaXTp167TWq2r4%2BWgcd6256LU5QrzuOfhwdPNFtNYgzAAPyUXEO7wCfpg7O7cBVx0rb5%2B8M8%2FaV0ab3LnII9%2Fxpyk59%2BmBMhKdN8YM0CRk1Myq%2FiZGO4xxPdFsN4gzAgHxGnONHQJo%2Bq0tr8UMi6oMiIXiKy52rCEPuePN2EbyUkDv4IAJ1fxNlpx7i5PW0LYVl97njb%2FBPZZl9ujOFiQCF9EXait9QDgrnCtVh%2Bm9KwqyWU%2FuLG%2FxjFmAfpp5MflM%2B9Xr5quNo8ES31SDOAAzIR8SZR1mh4zMsdayh80yjl2yp08zpVEcqYa5PYslfxnTqRBhlcQC%2F91yIR0Lnu%2Bo%2FwkLgVgfnYfeh5vdq4uh0Oj0TfKT9avHH1I4Zo0fNjM0vMO5xZDzRbTWIMwADsvuRc9FJlh3shHTmKr1OZ30yi%2F6EeacunTmXvxSUhM53zf%2FqiEsJmt4vz6%2BNI2XQf2NEqqskTGG1wV%2BgNnJmfyb9LC2hy1Ktl289jhBnAMBGPiPOCZ6apM64es%2BZO70sJElUZMhi4vKoBT9Ik%2BLYMLVtKp%2FQ4E9jj5kdNTM27WDH0cMT3VaDOAMwIB8V50TxtLaZPizejw3CkLbZDjGkTaMgWc8dr0qnfS75C3idOuuRei0o5EM%2Bsx8lDDX%2F1ad84%2Bg0ljOmiUWN4oYfpFHpdn0c53ii22oQZwAGZA%2FifCy4o1Yd%2FYqIgb3y3uPoiW6rQZwBGBCI8wZ4mplGT8U0LsT5eHzgOHqi22oQZwAGBOIMQH880W01iDMAAwJxBqA%2Fnui22lji7E1hvGpaA9Nc4EBAnAHojye6rQZxhjiDAYE4A9AfT3RbbQhxfssH9rf62fA4PgCvBuIMQH880W217xbn8J7aaRLBNXGmZf%2B9trN6f4%2Ffs0vhKj6%2FK6dfbJ%2F5CfnoD8q3v8gOwKuBOAPQH090W%2B1LxbnyyTkWyCyyyoKo8ov1lZfgNTk8fUEmZXCTr%2FrU%2FIS8KbwoEEEXEGufgAPg1UCcAeiPJ7qt9p3izCPd4lN1CU9wC%2FG0wi1f0uGRsP6CT4qvfa35sR%2BUN%2FBn47wiA9ADiDMA%2FfFEt9XGGzlbgSxE1fkkHX9RRo94dXzta82PjS9g5Aw%2BAMQZgP54ottquOecw9I0tcxH53AW5%2Bm%2BMD9cNk1fq2lt%2FmD6kp9Z3rjnDD4HxBmA%2Fnii22rfLc6J5qe1Kx865%2FQyVW0f%2FMrhPPpd8mPzxtPa4INAnAHojye6rTaEOAMASiDOAPTHE91WgzgDMCAQZwD644luq0GcARgQiDMA%2FfFEt9UgzgAMCMQZgP54ottqEOdXoh4Qi3acd5evZ11uZd12gJ9WvzrvheN973ewK3G2D0syXtgjvMoPAA%2FgiW6rQZxfie0IDtkxxFfHuusjfyiGH2P%2Fijo7HhBnAPrjiW6rQZxfQP1VrTcJ3RZWX%2BF6fZlz%2FWT4XfCUx1fU2fHYgzg3v%2BL4DFv94BVH8EI80W01iPMzrHzk5MajQ14P4epHL2jdf59aPhHKPmPgLMx2NrLemAcloP5n6eMnjjgaX5OoSn4xfPpRj4StH0FGzYyUP64dtM6Ox0fFedPHgeKye1z4XAnHmY38yYmn4uMHacAn8US31SDOD0ENmBrz6g9r6A6AOo%2F4CdDKD2NoUQzxedkJy%2FETsh62r%2BWhoA7S%2F2yoFWfnS2jcC%2Br8irxDLL9%2BAmrUzIS0R6%2Bz4%2FEZcW5sN%2Flc4PpvOC5MDjfnKwn4op%2BQt5wDii861uBzeKLbahDnR%2BAr9nyZrljtONLyrCPiTiN2Kj%2FUgYQRRYw8D7N5yHpTHiFFAYttuStGnFvz03Fq9cPwNl0Qm1aw%2Ft392UudHY%2BPiPOWdqOPUe240Db8IA3YM57othrE%2BSEWRgBeQ9fhoZNQ4mdJV%2Bx2ejiH2TxkfUseTOvIuTU%2FHYeW%2FJEzC6cp1yxtwvrfdZ0dj92NnO05oI%2BRe1z4PGVxTal0fO1rzY%2BNL3zRsQafwxPdVoM4PwM14NV7Z0wRHkd2sx%2FGkM4mOqI4vFwLm%2B6H3Xg0Ip3Pah5hZeM95%2BQrdYLFtLb4LPwrbP3YUTNTTduyP3ups%2BPxGXFO2PPCOwdy2NKxV8eUjs80fW3O1yU%2Fs7y%2F71iDz%2BGJbqtBnF%2FA4lOnjA0PnVOaWlOdAPuRqTcRMT%2BMR4RxWu589oSGqORBPc%2FUKbrETq8YYZDvyVfKQ%2BdX2%2B9ErB%2FuHLeMXI5UZ8fjo%2BKciOdFWJifAzqs5diT2BfnpoTz6HfJj80bT2uDF%2BKJbqtBnAEYkD2IMwDfjie6rQZxBmBAIM4A9McT3VaDOAMwIBBnAPrjiW6rQZwBGBCIMwD98US31SDOC7z%2FxyD2i374JrxDXLwLswY%2FAcuvpqg61DZgfX6aocRZPSAWjc%2FftG3n4Adpjo0nuq0GcW7CeYJ5L9inTTsgr6NkPeanXvPrSg3MXqEauz73wHDirI%2FpIY%2Fxm9qMtNWvqLPP44luq0GcHfIrHplBxMR9jYRfgWoX4nndea9QjVyf%2B2AEca6%2FqrXD8%2B%2BRVxyfZLGtfkWdfR5PdFsN4qwJ70GenAPunJh08vrvTE4%2FBnEiP%2FErVWkaWLardNnnqj%2BKy1e1YYqJLfrkDyvENNSQQnzVoGTd%2BvHyCjgfYLA%2Ba9TqzvvwyMj1uRO%2BWpztuWiO442P%2B4bjWLwjnwJnYSaP158r620mbCvyi%2BE575CIaGmrUv64dtA6%2Bzye6LYaxDlAB5lOBP%2BHGhjbMMxoUp9UdOKFcLuct5sTONzIWfHnFUrH4b86LEQgXD%2BVvNJqgBpv%2FnSht71gqe44L11vwsD1mYI%2BzXeKc%2BVcDMcrde66g286jupcDfF52QnL8ROyHra%2F4lzx2oz5Ehqf%2Bzq%2FIu8Qq72thrRHr7PP44luq0GcGb4qDJ16DdMwwsmjTtxgfDKpE0efRPqk0yeWDl%2Fzx1A8vuLNcazPJf86TpEPmzr5Fdzgzxfj07JUd%2FpKvGDg%2Blw6zd7IV4pz7Vy0x1FoOo5RBPGDNAnr392fvdTZ5%2FFEt9UgzoGlK0rGExO1LtiTyi7rMEaHr%2FkLZaCTUgro%2BSziE7U4Xl6a4krUXLnOqNUdp6vlM3J97oPhRs76OApbjmM6hnZ6OIfZPGR9Sx5M9Vx5gTjTUnNbnaVNWP%2B7rrPP44luq0GcNXSQ3XsxdGoUDYO2hiklUazaSWWX04k2JaOTNFzqNfhLZZiipA%2F9L8Xhq%2BFZnEpeccW9hxPKSXFyg%2BZ6slevtu6qo2Zm7PrcA98pzgl7LhbHRNF0HPkckHOd4%2FByLaznuRL9z9pMapT53Nc%2BC%2F%2BKlrZaTduyP3ups8%2FjiW6rQZwd5k8x2oZBhBM8TbPIyaFPHG85%2FKVGkdPJSUas%2BQurdCKmqZ3pQ%2F901RjSxfKFRhriUD4v%2FIEHnXfwXV56Z2LdcYMy9VWA%2Bvw0Xy3OidyO7fESGo9jcZ6kQD%2Bs57lC6WZthm%2FLiK%2BUh86vtt%2BJxbZaS9u4P%2Fuos8%2FjiW6rQZzfyUpjARtBfT7MCOIMwKfxRLfVIM7vBGLyWlCfDwNxBqA%2Fnui2GsQZgAGBOAPQH090Ww3iDMCAQJwB6I8nuq0GcZ7BTwBe5w8lMDqMl%2FkBhfB0sBCfLHQfzvAe6HDDAOgPxBmA%2Fnii22oQZ4u8VtAizqdTGUcE%2B1XiLOkLPwA8D8QZgP54ottqQ4tzfJUgrQTUawWeIOqwtMwvv0%2BP9pOwy%2BsAvF74eGLk3CLOB3itAOwHiDMA%2FfFEt9XGFOfw3txpLmb6ZfxGcb6pNPz1neonJ5fEOcSjC4Xw5Rx%2Bn4%2FKxhFTuH2XsXg3MF8Z7P%2BFfLAfIM4A9McT3VYbTJxJwMJn3rzPdJqX8VkYgwAas8KbBZgFX6%2BrOLy8Js5BkFOh7Jdyan5COuOTLjz2%2Bik7sB8gzgD0xxPdVhtLnMO0cymPGT1qZgpBTOiwvJxEXXy7cZgVcdZ5ybr9Gzemh87SyD8nKuHRdW1XAYA4A9AfT3RbDSPngBk1M1YwGR2mllkIw2ck2UElDq1QHur%2BNCPbi3iEDbfbmTRCLj4qz2DkDBqAOAPQH090Ww33nHndjpoZVxBVmF3WU81eHOJ6nj5Uz9wo39nH6hlZt3%2FDRh5t2w%2FIx2XccwatQJwB6I8nuq02pjgnNn%2F4XYd525nFOJQXj2pJUIPRCN6NJ%2Bs53P4YA4lwugeeLyrwtDbYAMQZgP54ottqQ4szAKMCcQagP57othrEGYABgTgD0B9PdFsN4gzAgECcAeiPJ7qtBnEGYEAgzgD0xxPdVoM4AzAgEGcA%2BuOJbqtBnAEYEIgzAP3xRLfVIM4ADAjEGYD%2BsMA%2BYxBnAAYD4gxAfzzB3WIQZwAGA%2BIM7v%2F9f8jw2aKeeIK7xSDOAAzGZ8WZBOG%2FqGv5v8b%2B6%2F%2Bl7WAZW38ksv%2BbNjXDPjgdjkVPPMHdYhBnAAbjM%2BKchOB%2F0ipz2NGbiFtafRX%2Fc24Qxq15O%2FX%2Bv5SHzQfHoqTpWCzjCe4WgzgDMBhvF%2Bd%2FUFfijfA8QWDh0KO4vP0aO8vgi406Tx1X%2B1nzwfnabZzmH2QsZKFTprjaRy4%2FxdejzX%2FwF%2B85LpUno9ZnflOY9u2VPfj14PwbxWhLvXc5FimeV99MzT%2BHH%2BJYLOMJ7haDOAMwGG8TZ%2BmU9ahNMxME27Fy5ysdMW9TvoIwqE43p2vwocVDOvrgQ%2BI58Hbp0GcCafNU6zO%2FS%2BVT8MjNrTuOz%2Fsupn0lFuu9kl%2B3Y0HbvPpe8n%2BYY7GMJ7hbDOIMwGDsVpxD58kdvbGQnjrS3CETRVrbAS%2F4KDpjgoWFtxUdfkI6ZbFHBUH7XSyfQvIuBJOpCIhmqd69%2FWR6HIu1%2Bq7598q4y2OxjCe4WwziDMBgvE2chTCycgTFEwRPOAKNgrDmY0ksZh23iltsf1IQquUjRAh6TWvbOhd6HIst9a3x6myXx2IZT3C3GMQZgMF4uzgHuBNNHbMwEwruSHVHq6FtuiNdFIQFH3oEpDv9tY6b88vrVhDMOset%2BV0qH4vBqhDYvNfg%2BFLvC2m7HYtKfS%2F5P8yxWMYT3C0GcQZgMD4jzg4zQSBCB05dTzbVmTcJArHkg5fDiDKZXCzMOm4idOwp3j8onc0%2FhKcOXEZZIYx9pTw9v9XytWDFaANeWYQux2Khvpmaf6%2BcuzwWy3iCu8W%2BV5yv5%2FvPz%2Bl%2BMedbM7fL%2FXS6cFPYDqf9%2BaH8xU7383Xd0%2FV8CvHP6Rz7PLf79XJ9rA7AbtmNOL8dLRwDwiKmxbE7Y9e3J7hb7GvFmYXufD7fT4%2Bq87PirNPervfL6WelLNf7%2BefMp%2FN63rJdx3umvDXoAufh%2BgO7BeI8ItSOZQT5NiDOz9jXiPPtcr7TIC9xIzFkoSPBe1SwnhE7L%2B2av0fy6yHIGalD4nq5nzGC%2FhrGFWcA3ocnuFvs%2BOJMo9LziUbJWjxYtMLcMAtMmtoOQkYCnqaO41RziB1HiMUUNIVp4aPlM418w3YRLKYIJ78q%2Flw0y5Gx9nfhfcj5UxxJH%2F46ZU7hkw%2BJu1Demq8axaiZp7dpPZQ1BYHDAnEGoD%2Be4G6xA4szCQYJzel8ITFLQYnbZRIeXg4iw%2BKk7%2F2y%2BMwElBCRy2LHAs%2F3gWNM9vcTFbIIz%2BnsckYuFNQFQwi2%2BZkwr8xLaUI%2BTnlrvuKagX2oixCBp%2BdDnWMUfWQgzgD0xxPcLXZccWZxcYd%2BUZzi6FBGj0bIGCNsPPp249fS1cLtciaNnHmbLlswEuurk76Wh7e9NU0K9suYKEbNc%2FTFDzgeEGcA%2BuMJ7hb7vpEzi06hHGmkqsWPyeLEosnb0xYrZlbE1sLtsqDTyfS2xktv%2FdjwR9Kk4CK%2FgsqomcHI%2BSuAOAPQH09wt9iBxTlh7jnnaWxFCOMnt11xiiNaScIPlpUj7co0sQkvpolnQhif1o7XDCndlGGMq9N4YYwN99KIf1vemq%2B0mnFHzbjn%2FE1AnAHojye4W%2Bz44pyIT2uzMKn7uQILkUxXpyAtTpxWpppPPL3N4Vq8aLl4%2BIrDGPEbwlM6Gx5M3etlwgWFpEuCZ%2FILyzqMmYVH0S8eIkvxZuWt%2BUqrEa4%2FZ9SMp7W%2FCogzAP3xBHeLfY04f5objTjjiBqAfQNxBqA%2FnuBuMYjzE8gXvYoRMAA7B%2BIMQH88wd1iEGcABgPiDEB%2FPMHdYhBnAAYD4gxAfzzB3WKDijM%2FfXydP3DFuA9KPcCr%2FADwYo4nzo3tlZf5FlPx7Ed8e8F%2FMDJ9eyAsC14YANvxBHeLjSnO8rrQWmN%2Fhlf5AeDFHE6cW9trWD6VcTis%2BtbCA%2BIs6Qs%2FAMzxBHeLfb04lz%2BIwajXhbwG9qpGt9UPXlcCb2LP4vxUe03L%2FKGc%2FHAmC7v%2BxkHh44mRc0v7RpseGk9wt9j3irP5OElGf2SjobHP3kdm2Ic8pR3eYU7hKn5%2BX9qEl%2B81n%2B%2Fn8MQ3dwb40Ad4D7sU5xe117Cs0vAbFe6ncePWujin9tn0ozMhWMXLDRhtemQ8wd1iXyjO1CCoQXk%2FiMHbio9scEMLDcpYaHAcV12BF41akcPjva38ZS7qIBb9hLy54zAe%2BWtiofy44gZ92Jc4v6q9pu3StkIYC75eV3F4WYQ4LAtKnPXHg1jwta%2Ban5DO%2BESbHhJPcLfY94kzN6LigRCFvgpnigaW0I1v1hEkkaVt1R%2FKiF7W%2FdhvfRv4Sry2GwA8w67E%2BVXttVhOoi6%2B3TjMijjrvGTd%2Fo0bw4U5fyUwjPxzohK06bHwBHeLDTRyNlfhjG2AjG58s4bLcONVI163sRJrfmx8AVfZoDPHGDlvbK9mmYWQby0FMazEoRXKQ81qMbK9iEfYcLudSW033qZSoE0PiSe4W%2BwLxTlBDaK4h2Wvwhm3gUlYvBqe%2FUBFEOfpHlL%2BoQyJn3qYcA9qyc8sb%2FKM%2B1PgDexLnBNPt1dnWUSyFoe4nqc2y9wo38UfirF%2Fw8Z0wR4zUIKPNj0ynuBuse8V58T0gxiNo1cdFjqMNBWtGpj7QxlxwxTOV8pLfmzeeLITvIldinPiufbqbGcW41Beoa0moxG8G0%2FWcziNhkObjuUs%2BgTpKNCmh8YT3C329eIMACjZszgD8C14grvFIM4ADAbEGYD%2BeIK7xSDOAAwGxBmA%2FniCu8UgzgAMBsQZgP54grvFIM4ADMahxJmfns5PQj%2FA7AGwDXDa9JBXNH41a90TvxrG8ffzTjM%2FNY4H096NJ7hbDOIMwGAcSZxZ6M78bexH1flZcS6e2I5PaC%2BXJb5qGXR5LW%2FZruM9U94a3mtpoDue4G4xiDMAg7FncY6vUqUVkqj4ShW%2FivigYD0jdl7aNX%2BP5NdDkDPqtTS82vVWPMHdYhBnAAZjl%2BJsP0LCsGjFT3yRwKSp7SBkJOBp6jhONYfYcYRYTEFTmBY%2BWtbfG5iuAXS4%2BW7BTDTLkXH5%2FQLeltY5jqQPf50yp%2FDJh8RdKG%2FNV41i1IyPorwTT3C3GMQZgMHYlziTYJDQeD98ob9FHT7HyYrC4qTv%2FbL4zASUEJHLYscCb77gFxWyCM%2Fp7HJGLhTUBUMItvmZMK%2FMS2lCPk55a77imoF9qIsQgafnQ51jFN0TT3C3GMQZgMHYlTizuLhDvyhOcXQoo0cjZIwRtuoP0tTS1cLtciaNnHmbLlswEmvv5ylreXjbW9OkYL%2BMiWLUPEdf%2FIDX4wnuFoM4AzAYhxg5s%2BgUypFGqvbX3LI4sWjy9rTFipkVsbVwuyzodDK9rfHSWz82%2FJE0KbjIr6AyamYwcn4LnuBuMYgzAIOxL3FOmHvOeRpbEcL4yW1XnOKIVpLwg2XlSLsyTWzCi2nimRDGp7XjNUNKN2UY4%2Bo0Xhhjw7004t%2BWt%2BYrrWbcUTPuOb8TT3C3GMQZgMHYpTgnph%2B%2BUPdzBRYima5OQVqcih%2Bf4OltDtfiRcvFw1ccxojfEJ7S2fBg6l4vEy4oJF0SPJNfWNZhzCxc%2FYiGST8rb81XWo1w%2FTmjZjyt%2FVY8wd1iEGcABmPP4vxpbjTijCNqAJ7DE9wtBnEGYDAgziXyRa9iBAzAk3iCu8UgzgAMBsQZgP54grvFIM4ADAbEGYD%2BeIK7xSDOAAzGfsWZnya%2Bzh%2BgYtwHnx7gVX4AWMET3C0GcQZgMHYrzvL6D8QZfAGe4G4xiDMAg7EHcS5%2F4IJRr%2F%2FsSZzx%2BhF4EE9wtxjEGYDB%2BKg4m4%2BNZPRHM9bEmZZn7xcz7EOeug7vJKdwFT%2B%2F%2F2zCy%2FeUz%2FdzeIKbLxbw4Q7wGJ7gbjGIMwCD8RlxJpHzPtMZMB%2FNYIHMIqssiKr5QEkQU2cknMM5vvrSFr%2FHvOQn5K0%2BAyrgk5dgI57gbjGIMwCD8RFx5lFt7eMeetTMeIJbiKcV7iSytK36wxfRy7of%2B%2B1uA34sArTiCe4WgzgDMBj7GjmbUTNjBZUpRNX5NCWFLP7wRQxd92PjCxg5g414grvFIM4ADMZnxDlh7znbUTPjCWQOS9PUkiaHV374QuLLtDb%2FgMSSn1neuOcMHsMT3C0GcQZgMD4qzonpBy4aR686zPvBCQ5mEU1T1PbBrxzOo98lPzZvPK0NHsQT3C0GcQZgMPYgzgB8O57gbjGIMwCDAXEGoD%2Be4G4xiDMAgwFxBqA%2FnuBuMYgzAIMBcQagP57gbjGIMwCDAXEGoD%2Be4G4xiDMAgwFxBqA%2FnuBuMYgzAIMBcQagP57gbjGIMwCDAXEGoD%2Be4G4xiDMAgwFxBqA%2FnuBuMYgzAIMBcQagP57gbjGIMwCDAXEGoD%2Be4G4xiDMAgwFxBqA%2FVmx%2F%2Ffo1C1sKhzgDMBgQZwD6Y8WWRdgKsRcmBnEGYDAgzgD0x4qtCLGIsV23BnEGYDAgzgD0xxNcLchLwswGcQZgMCDOAPTHE1y2FmFmgzgDMBgQZwD64wmu2Jows0GcARgMiDMA%2FfEEd4tBnAEYDIgzAP3xBHeLQZwBGAyIMwD98QR3i0GcARgMiDMA%2FfEEd4tBnAEYDIgzAP3xBHeLHU6cucAwGOw5eyVolzBYH6uxO3EGAAAARgfiDAAAAOwMiDMAAACwK%2B73%2Fw9IsknvHsBweAAAAABJRU5ErkJggg%3D%3D%3B%22%20vertex%3D%221%22%20parent%3D%221%22%3E%3CmxGeometry%20x%3D%22559%22%20y%3D%22316%22%20width%3D%22285.92%22%20height%3D%22155%22%20as%3D%22geometry%22%2F%3E%3C%2FmxCell%3E%3C%2Froot%3E%3C%2FmxGraphModel%3E&lt;/span&gt;&lt;b&gt;&lt;br&gt;&lt;br&gt;&lt;/b&gt;&lt;span style=&quot;color: rgba(0 , 0 , 0 , 0) ; font-family: monospace ; font-size: 0px ; white-space: nowrap&quot;&gt;%3CmxGraphModel%3E%3Croot%3E%3CmxCell%20id%3D%220%22%2F%3E%3CmxCell%20id%3D%221%22%20parent%3D%220%22%2F%3E%3CmxCell%20id%3D%222%22%20value%3D%22%22%20style%3D%22shape%3Dimage%3BimageAspect%3D0%3Baspect%3Dfixed%3BverticalLabelPosition%3Dbottom%3BverticalAlign%3Dtop%3Bimage%3Ddata%3Aimage%2Fpng%2CiVBORw0KGgoAAAANSUhEUgAAAecAAAEICAYAAABlHzwDAAAAAXNSR0IArs4c6QAAAARnQU1BAACxjwv8YQUAAAAJcEhZcwAADsMAAA7DAcdvqGQAADD1SURBVHhe7Z09sus4sq33pMrQG82xFNGzeNZx9bzrtl%2FRrgZw%2FS7zRnTIbPM6PQO9TAAJJpIJEpQEiRTWV5VnkyCQAEECiwB%2F9POf%2F%2FznDoPBYDAYbD8GcYbBYDAYbGcGcYbBYDAYbGcGcYbBYDAYbGcGcd6B%2Fetf%2F4LtyLxjBIPBYO80iPMOjAUB7AOIMwwG24P96BED7HMG9gEfC6%2BhwGAw2DstiLO3AfY%2BgzjvB7QHGAy2B4M478AgzvsB7QEGg%2B3BIM47sBZxvl3O99PPz%2F2H7XS6n6%2B3tKWR2%2BV%2BOl3uW1I9necBQXuAwWB7MIjzDmxNnG%2BXE4nj5Z618Xa9n39O98s2pd0kzi%2FJ81U8cGHxKGgPMBhsD1YX579%2B3%2F%2F44%2Ff9L1mWEVS2P%2B6%2F%2FlRxZ9v%2BmvuT7X%2F8cf8taY399ftXEW%2Fm5wttTZwvNGp9WhQ3CdztNXkeEIgzDAbbg7WLsywn%2B%2BtPEtHa9r%2F%2BvP%2F%2B4%2Bf%2Bx28R1j%2Fvv0iwf%2F8l21mof93%2FlPjJ%2Fvr9Bwny7%2FufOZ5J905z9rmXrYlzTVTD6PZ8TWv3%2B%2FX8cw%2BrPMo9pQscGu2G6WgtzrSct5%2FOcxFeE3KTPpQgpDnfz2cqE4WfLtf7JSzr%2FGm7Tcdc1fR5iE9hxh%2BP4rk8YZ8lnhR8oTyxDMrvChBnGAy2B3tYnKPgJoH1tq%2Bmt%2FYXCfqHhPjD9qg4BwH6EZHjaWde5lEviXQWrjQdfWWxYj9mVBxEzPj3wjLJf5rvzhcIoSzJr11mXyFsuhCwFxaZIj6XmxJIWN7HFE%2Fvb6U8%2BT45XwBU92kC4gyDwfZgfUbOwZR4B%2BH9uf%2F6%2Fef9r5r4rgk4bf9FPsIo6A99UfDr%2FusXjbgp%2FA%2Fy%2Fzssp%2Blw2W7TsXH5w4iKLU3RG388iufyhBG9xJPZgIXyxDIov5JnxR4WZyKPlkl8sih58SU8iFYqdzYl1kzNB2O3ab8S7i3X0qXlM10w5PLY%2BHk5CnF4OI1G5jfeWPNbC0%2BrNSDOMBhsD%2Fb4PWcWJD1NPRNWMxLmqW4lWrMRsutDLIl7uv8cxPLXn6lcyZddZl8hjMQy5ZXTFb5tfPKRhZ3LY2YIwvJyefJ9cn0Bs2Br4rx4%2FzeJ8vVsRqpx64QWrTzarmFG15qa6Olwb7mWLoyG0whZh3s%2BQgTiJlPmtB81v7XwtFoD4gyDwfZgj42cwz1lNSq024PpkXNpPOqWUWkOd31Utsm6DveWa%2BnS8i%2Fah%2Bliw8TPy1GIw8NpMvKv%2Ba2Fy3rF1sQ5TNWSsIh%2BlU9O03IYTYrwpGleUVZ3Wltv90WrnufCNLL48Zb5rzutzX51OF1sSPyZP73fcgHRUB7GrleAOMNgsD3Y4%2FecWWBlFOptXxQmT7jNSFub9SXrOtxbrqUL%2BacRcou%2FsC4jf54xqPithct6xdbEmSneOSaByvdSCZ7aPom6MSykLNg6biF2ajs%2FNFVRrGqe5GtKbwW0shz%2Bkg%2BbLkSZ8uE4dXE2cSdFXy4PY9crQJxhMNgerM8DYelpbRlZx2nfabs7cuZwjkfh86e1F6aRvTLKMv%2BlMs6ntWPZp%2FBUHteflIHjygVEQ3kKH2m9Yi3iXIeFdm2aegc0iuOngTjDYLA92BPirEa6vD2NZqKp%2B64p7p%2F5fjOZvl9trHjPWfuhPKYHsJxyecvhL%2Fmw6ch0PhynLs4mrvtA2DyNxCnWK%2FawOPP9Zsq%2FGDXvFYgzDAaDNVtdnL%2FBGsXx0%2FawOIOXA3GGwWB7MIjzDgzivB8gzjAYbA%2F23eJ8EIM47we0BxgMtgeDOO%2FAIM77Ae0BBoPtwYI4wz5vYB94xwYGg8HebT%2BpTwIAAADAToA4AwAAADsD4gwAAADsDIgzAAAAsDN2J85%2F%2F%2FvfYTDYC%2ByVeP5hMNjzVmOX4vy3v%2F0NBoM9Yf%2F%2B979Ti3oNaJcw2OttqZ3uVpwBAI%2FTS5wBABPe%2B8lbDOIMwGBAnAHojye4WwziDMBgQJwB6I8nuFvs2OLMPzWYfq7x53S6X17xw8UH%2BflCAB6lrzhf7%2Bcf%2BxviZdjtci7a7fmaWptuz2Hb%2BX6EXzwFwMMT3C12YHHmBk%2BCLI03NGzqAJ4V17X0EG9wcD4pzrfLiUT3Qu00brnfVDuWNhy3UDK0NXBcPMHdYscV514iCXEGX87nxPl2v%2FAMV63xWHF2fQFwDDzB3WIHHjlzQ%2F%2B5ny%2FU5HVjF%2FEMf8%2F385mu1H9%2B7ieKdwnLaRrNimyRLoVf1fRbSsd5xim3FIfin3NY6kiKvNG5gH3xMXG2bc7C23VajJzBgfEEV%2BzXr19uuLYDizNxE8GN4pmnxkRki%2BkyZ7tu%2BLVwwd2eLhDSHF2YsjtT18JxOL88dwfAfti3OKcL3dSmuTkBcEQ8wWVjYRbztosdW5wVNxrlhtGsJ6Lesg5jKunOJxF%2FMmf7qg8AdsZhRs52HYAD4QmuFuY1gf4acZ51ALoj8JZ1GDMLZ39q9OulW%2FUBwP7oK87OfeXcHrbec16JD8COsWJrBdmuWzusOMcp5EkAN4%2Bck5hLw%2Bf0ZTqz%2FWL8x9D6tHaOA8C%2B6CvOdJl8ntoEE9pmmp%2Fe9LS2XQfgQFix9YT4K8WZWi51AnrKmUfNHJyEUQtkZTl0FHJv62zFmbdPD4SdeHo7hF%2BDIOcHvSj%2B9EDYPA8A9kZvcaYGEJ4F4TYTTF1EM8V7zuG%2BctrK7SaHy7a4CYCjYcW2JsJfKM4AgEfoL84AAE9wtxjEGYDBgDgD0B9PcLcYxBmAwYA4A9AfT3C3GMQZgMGAOAPQH09wtxjEGYDBgDgD0B9PcLcYxBmAwYA4A9Cff%2F7znw8bxBmAAYE4A9AfT3RbDeIMwIBAnAHojye6rQZxBmBAIM4A9McT3VaDOAMwIBBnAPrjiW6rQZwBGBCIMwD98US31SDOAAwIxBmA%2Fnii22oQZwAGBOIMQH880W01iDMAAwJxBqA%2Fnui2GsQZgAGBOAPQH090Ww3iDMCAQJwB6I8nuq0GcQZzbjf%2BH3wxEOcDgnZ5ODzRbbUvFefb%2FXo%2B3X9%2BfoKdLg%2Be0bfL%2FXS6kLeDcT3ff85XWrjdL6fTvdh92qfzz%2FnOWz1ivZ3uJ6634CME1v29m57H5MH9lHNNqmuGV%2BeUF9dxOD8X6%2FlF57LhM%2BKMdvm17RK4eKLbat8pzuGklcbLJ%2B5Cx7nEOzqBHnkUjVYafKyH2DFWOoGiLKrBu%2F4%2BhJTxbfXmUOR9XehUa3XOaeScpDjntOzl%2F6pz2fARcX7VvvQ49pa3nV%2BxHg7fLoGLJ7qt9lXifLuc7xfnDL1d6IrzkcvKd3QCPaByn9P%2BXs%2B20S6ISW7skauIxqK%2FN9PzmLTupy5DU3lMnXM9e2ka8s%2Fn8pXjXh%2Buh3eKM9plYvH4HrxdAhdPdFvtO8T5Ric2XU36nVW6QqeTN3eI3Li5IYRGfqZtcartROkvafrofKWYbifAjUhNIYmvtHyWq2DyG%2BIUeVAYdUjxKpnLa%2FIw6cUnp4%2FlSumeaoX1TsB2ls2d58J%2Bu%2BUOxyvFl7oO4c7%2BMyr8RMc5HMfgX%2F7W8tH%2BUrq0qQnJI63KPmmfMjVdHfUEyjrnetWdbTvpXA5Jb6TP57jvm3Yq8hZxRrvcQId2CT6OJ7qtdnBxjvewTucLNegUZOCrTOkIeTk0dO4wOIgbmDRou8wNU%2F5yYkX0E0OnjlZNNzHaB%2FsNBVQNMIRLR8R5SMdr%2FKb0WcDoKjqXia%2BoQ8cw2XoH8epOYHm%2F5%2BVO%2BykJuAMP9V7Zf1svMupszUfCJT4vt9abTsPoPCXcxnEp6zzUK4lSvuBYP2gBfS5nqP5YINjHchlK%2Booz2mXT%2BVXw6nYJ9oAnuq12bHHmBrF01nMjKRoxNwDVweUGWFnWYZocrho%2Bh5kGyVfTl6v2ERs6j7jCaELSeXmthafV7by4E%2BDyrO43Udsfobafa%2BFb06XVJlp8mzhBdLgOivNyLs6b773OzuUS9rkuABNdxRnt8gEgzt%2BIJ7qt9tUj59lJzA2IG6c0It2gvOVqg5PGb9J4jcvzkUY7YSq0ltdaOC9zJ2c6nvUOut4JBH%2FKAQvNqj8uT8t%2B1%2FZHaI1vw7em4%2BXWemvxbeO4mDpn8drY2VbjHHDkjHbp8eJ2CXaBJ7qtNsA9ZyE2XJ6GCh0Hdw66QXnLtgEqQgdD%2FqZOJl59T9O1ng9ugOmKPsTXV%2FApvTd9psuwUKY2FjqBwrd0dGFlgZb9JvK6jS91Utl%2Fia%2FDtf%2B1fEQdWBB1vCZiXU1FTT50njZ%2FF1vnaT06SOUMGzZA5%2FGh7zkLvP9ol%2FNzRFH4TuV7PCPwRjzRbbXvEOeEfSo0NNR0Fk%2BdPZMao57a0g1AlpcaHG%2FLDToROqN0tVw8eDL54DLKNJvXEU3pTVl4mbHrm7GdQLnOHSRP%2B3EZW%2B%2BFtux3uZ8qPuWVBdTbf4bThrhcJu58aZv4W8xnSvfQA2FEOG%2BCDyrnWQSe749yGAusyd%2FF1jnBQp%2F3ab2e9bkcoHN3WfSWeYs4J9AuW7DnSLn%2BULsEH8cT3Vb7KnEGL4JGseG%2B2xfBo95JBMA7xRm8iC9sl9%2BOJ7qtBnEGX0scbZgREwhAnAHojye6rQZxBmBAIM4A9McT3VaDOAMwIBBnAPrjiW6rQZwBGJCvEeenH8RaID%2BnsO0JabmdUn3EgR8wa3lA0M0%2FPtUut2uKhwTB7vBEt9UgzgAMyNeJcw%2BRLsTRiKmmyNt5Mj8TX8uKwmqfzBYxpzjyHrOXfwiTvKK%2FmA7sEU90Ww3iDMCAYOTcAI9w08j0238IBfTBE91WgzgDMCBdxZlFxX2vmJbzlCy%2F3x6jt733rsRJheOHUKYR9zMfpQF98ES31SDOAAxIP3FmwVD3Z7VoauGl0WIUuiQwkoCFmuLhh1DWCd9xt3Gp%2Fh75nCvogye6rQZxBmBAuokzi5MROh69lj80QXjCprHhtfg2fGu6tNpEi28T5yg%2FhAL64Iluq0GcARiQvuLsTOm2CJumNb4N35qOlz88cub89VPXYSS9MjddjYOR867wRLfVIM4ADEg3cSZJKKepHQFj8rqNv3Fam8O1%2F7V8ZtPdW4iiOhU1%2BdB52vxdjDjLenSQyhk2bAD3nPeIJ7qtBnEGYED6iTOhH%2FASsaiKJi%2Br%2BPp%2BMcWZ%2FJi0aYSLH0JJ4GntXeKJbqtBnAEYkK7ifAB41PvYE9IAtOOJbqtBnAEYkBHFGT%2BEAt6NJ7qtBnEGYEBGHzkD8A480W01iDMAAwJxBqA%2Fnui22veKs3n445JuL%2BX3Dq3x%2FSedRll8SNTbpt4ltA%2BCVPJnbvxUpdqWH4BpxeYFwEYgzgD0xxPdVvtSceanIfl1jLQahNI8Hek9Mbkkes42fqgkhxXb6%2FnLqx9Zj%2FOrI2m9haVyAtAAxBmA%2Fnii22pfJc48Ig0j1Cbxel6cCx96e9UPv8O4UYg9WvYPr1aABSDOAPTHE91W%2Bw5xDu9JnpQYpRf5eb2qTs%2BLc33kXMl%2Fwf%2F0kYUIT7%2FH6XTetzQFHqbRKbX2Q8uzd0oD%2BCgBqANxBqA%2Fnui22sHFOf7w%2BOmspokFEjX9yzRzgaqIs9wLzqZGxnYbCd80PW2E18vfxtEE%2F1IeKZuIfEohU%2BD5O8VmJO75T%2BXA5%2FyABuIMQH880W21Y4szj1zVaLMGj3DnXwN6cuTMohce5pL1etqc%2F5J%2FIo%2BWOT4v1OJLOP%2B1FwyV%2B9c8Mm%2BoKjAIEGcA%2BuOJbqt978i5wBHiZ8WZERFlltLmvFbuOSd%2FvE%2BLI20J57%2Bz%2FTJg5AwcIM4A9McT3Vb7ynvO8f7tJGpdRs4B5UNtX8p%2F%2BWlt3g8a%2FeZ8Wqa19XZdRtxzBnUgzgD0xxPdVvsOcU7kp7VZmPL9XhY7EtCZQFXEuZgijhY%2BMO%2BKsxoJW2FcyL94z5nEVr%2FnzFPbxQftw4WHiavz0tu1EONpbbAAxBmA%2Fnii22pfJc7Hh4XWXDAA0AGIMwD98US31SDOe4Gnvmn0u%2FYj6wC8AogzAP3xRLfVIM4ADAjEGYD%2BeKLbahBnAAYE4gxAfzzRbbWxxHn2wFf5MNa7WPzxjd7oOuCH2Z7J0n1Irif8BPrVeb97wOP4JB8T58r5t1iXs%2BMdLVSzu43Ph%2Bh3do5W8mfwgzTg1Xii22rjiXPRUPlDIg%2Fe531JQ3SeGO8K55eeLmdCR8VPkm%2FcF4lv%2F6bN3bhS58mFt%2FkNdxyf5zPiXDn%2F0mrEqculY%2BRsu%2FF5ImHF9nr%2By684NrJUTjAknui22hDivPiDGB9tUJ069dprVLV9fbQOOtbd9FqcwK%2Btpboa%2FTi%2BgHeK82L7m%2FG8OBc%2B9Paqn5WPA7XSsn94xXEoPNFtte8W5%2FAO8GlqDA0Nef7OMG9fGW3qd40pbp4Oc%2F1pVN5E%2FHjJ1C2Fz3leOJ9z4SfHqPqvfYBEPlrCU8MpKIVFH1MnNvMb9pfKIe9vc1ypA%2FlL0crpyYV6LfzpfTLHTJBRM6PymxjpOD7PW8R5diy9889S1mVAHyOLs%2B1WHTlX8l%2Fw7x5LXvXOFe2Hlt99TMH%2B8ES31b5UnONHQGaf9XQboVw1y18JnuJygxRhyI01b5cGnxJyow0iUPc3YToijpPX07YUlt3nzqLBP5Vl9unOFCadSkhfpK34DeWgcN0J2b8pCbNaTu0vbvCPWYB9mHoy%2BU351Ovlq47jk%2FQV54Vj6Z1%2FBaYumVB3SeiypTjeNj5XavW5ev4bgn9zLCmme64UX%2B57%2FzEF%2B8MT3Vb7TnHmK%2BfQ8RncRqg7T9PIZ41XNToJc30SS%2F4y844oX5nTPpTikdD5rvqPsBC41cF52H2o%2Bc0dT4qj0%2Bn0TPCR9qvFH1M7Zgxv0ztm8wuMexwfoas4Lx1LRT7%2F0npkXpezutPM6pVEj45tzn4hrXv%2BO6weS0HC%2Be8HjinYH57othpGzkWDMp1CRjpzlV6nsz6ZRX%2BC0xGlDoDLXwpKQue75n%2F16lwJmt4vz6%2BNI2XQf2NEqqvUmYXVBn%2BB2miL%2FZn0s7SELku1Xr71OG7nYyPnAqfevLDasWG8bSKizFLanJe6WPNYO5aChPPfDxxTsD880W21se85h6tsEZIkKtJCTVy%2Bwj2Rr%2Fl9T5uOGzw34mV%2FkUrnROn0%2FV9u6JMbPR1a80%2Bdo3NfK6ZV%2B8SdDqcxaV2%2FOo4NU9um8gkN%2FjT2mFEZi1EzY9MOdhxfQV9xTphjWT3%2F0nrEqUu3zhNrx0NtX8o%2FbKPlaTqcfYhgm2NJ%2F7rnSjGt%2Ff5jCvaHJ7qt9t3inCieFjVTTcW7jKEzSdts4wlppbGmdWlwOp32ueQvwI16foWt743GfMhn9iONnKj5rz4RGkc0sZwxTSxqFLfpPp7jt9jftGz%2F0n%2FRj1iqrzV%2FDvGYsb95%2FYS0OY%2BYz1jH8XneIs6J6cn72vmncepydryjhbrVxy%2FD542ce3r7cv5czimf8pwqjiXjnSu1c%2BlNxxTsD090W20IcT4W3KhV5%2BR2PmD%2F7Ps4vlOcj485lgA04oluq0Gc9wRPs9GVdnmFDnE%2BHAc4jhDnRrxjCUAjnui2GsQZgAGBOAPQH090Ww3iDMCAQJwB6I8nuq0GcQZgQHYlzjzlHx6sMg9YvRl%2B6Gsqg7Li7YNO6Drgh9meyfLtt1D4CfRrfDBU19uIx9HgiW6rQZwBGJDdibMWk1t8e%2BCh%2B7wvEaar%2B%2FR9Pzg%2F8wYB5791XyS%2B%2FZs2d%2BOaXne0%2BQ13HOd4ottqEGcABmQP4rz4gxjvEhaXTp167TWq2r4%2BWgcd6256LU5QrzuOfhwdPNFtNYgzAAPyUXEO7wCfpg7O7cBVx0rb5%2B8M8%2FaV0ab3LnII9%2Fxpyk59%2BmBMhKdN8YM0CRk1Myq%2FiZGO4xxPdFsN4gzAgHxGnONHQJo%2Bq0tr8UMi6oMiIXiKy52rCEPuePN2EbyUkDv4IAJ1fxNlpx7i5PW0LYVl97njb%2FBPZZl9ujOFiQCF9EXait9QDgrnCtVh%2Bm9KwqyWU%2FuLG%2FxjFmAfpp5MflM%2B9Xr5quNo8ES31SDOAAzIR8SZR1mh4zMsdayh80yjl2yp08zpVEcqYa5PYslfxnTqRBhlcQC%2F91yIR0Lnu%2Bo%2FwkLgVgfnYfeh5vdq4uh0Oj0TfKT9avHH1I4Zo0fNjM0vMO5xZDzRbTWIMwADsvuRc9FJlh3shHTmKr1OZ30yi%2F6EeacunTmXvxSUhM53zf%2FqiEsJmt4vz6%2BNI2XQf2NEqqskTGG1wV%2BgNnJmfyb9LC2hy1Ktl289jhBnAMBGPiPOCZ6apM64es%2BZO70sJElUZMhi4vKoBT9Ik%2BLYMLVtKp%2FQ4E9jj5kdNTM27WDH0cMT3VaDOAMwIB8V50TxtLaZPizejw3CkLbZDjGkTaMgWc8dr0qnfS75C3idOuuRei0o5EM%2Bsx8lDDX%2F1ad84%2Bg0ljOmiUWN4oYfpFHpdn0c53ii22oQZwAGZA%2FifCy4o1Yd%2FYqIgb3y3uPoiW6rQZwBGBCI8wZ4mplGT8U0LsT5eHzgOHqi22oQZwAGBOIMQH880W01iDMAAwJxBqA%2Fnui22lji7E1hvGpaA9Nc4EBAnAHojye6rQZxhjiDAYE4A9AfT3RbbQhxfssH9rf62fA4PgCvBuIMQH880W217xbn8J7aaRLBNXGmZf%2B9trN6f4%2Ffs0vhKj6%2FK6dfbJ%2F5CfnoD8q3v8gOwKuBOAPQH090W%2B1LxbnyyTkWyCyyyoKo8ov1lZfgNTk8fUEmZXCTr%2FrU%2FIS8KbwoEEEXEGufgAPg1UCcAeiPJ7qt9p3izCPd4lN1CU9wC%2FG0wi1f0uGRsP6CT4qvfa35sR%2BUN%2FBn47wiA9ADiDMA%2FfFEt9XGGzlbgSxE1fkkHX9RRo94dXzta82PjS9g5Aw%2BAMQZgP54ottquOecw9I0tcxH53AW5%2Bm%2BMD9cNk1fq2lt%2FmD6kp9Z3rjnDD4HxBmA%2Fnii22rfLc6J5qe1Kx865%2FQyVW0f%2FMrhPPpd8mPzxtPa4INAnAHojye6rTaEOAMASiDOAPTHE91WgzgDMCAQZwD644luq0GcARgQiDMA%2FfFEt9UgzgAMCMQZgP54ottqEOdXoh4Qi3acd5evZ11uZd12gJ9WvzrvheN973ewK3G2D0syXtgjvMoPAA%2FgiW6rQZxfie0IDtkxxFfHuusjfyiGH2P%2Fijo7HhBnAPrjiW6rQZxfQP1VrTcJ3RZWX%2BF6fZlz%2FWT4XfCUx1fU2fHYgzg3v%2BL4DFv94BVH8EI80W01iPMzrHzk5MajQ14P4epHL2jdf59aPhHKPmPgLMx2NrLemAcloP5n6eMnjjgaX5OoSn4xfPpRj4StH0FGzYyUP64dtM6Ox0fFedPHgeKye1z4XAnHmY38yYmn4uMHacAn8US31SDOD0ENmBrz6g9r6A6AOo%2F4CdDKD2NoUQzxedkJy%2FETsh62r%2BWhoA7S%2F2yoFWfnS2jcC%2Br8irxDLL9%2BAmrUzIS0R6%2Bz4%2FEZcW5sN%2Flc4PpvOC5MDjfnKwn4op%2BQt5wDii861uBzeKLbahDnR%2BAr9nyZrljtONLyrCPiTiN2Kj%2FUgYQRRYw8D7N5yHpTHiFFAYttuStGnFvz03Fq9cPwNl0Qm1aw%2Ft392UudHY%2BPiPOWdqOPUe240Db8IA3YM57othrE%2BSEWRgBeQ9fhoZNQ4mdJV%2Bx2ejiH2TxkfUseTOvIuTU%2FHYeW%2FJEzC6cp1yxtwvrfdZ0dj92NnO05oI%2BRe1z4PGVxTal0fO1rzY%2BNL3zRsQafwxPdVoM4PwM14NV7Z0wRHkd2sx%2FGkM4mOqI4vFwLm%2B6H3Xg0Ip3Pah5hZeM95%2BQrdYLFtLb4LPwrbP3YUTNTTduyP3ups%2BPxGXFO2PPCOwdy2NKxV8eUjs80fW3O1yU%2Fs7y%2F71iDz%2BGJbqtBnF%2FA4lOnjA0PnVOaWlOdAPuRqTcRMT%2BMR4RxWu589oSGqORBPc%2FUKbrETq8YYZDvyVfKQ%2BdX2%2B9ErB%2FuHLeMXI5UZ8fjo%2BKciOdFWJifAzqs5diT2BfnpoTz6HfJj80bT2uDF%2BKJbqtBnAEYkD2IMwDfjie6rQZxBmBAIM4A9McT3VaDOAMwIBBnAPrjiW6rQZwBGBCIMwD98US31SDOC7z%2FxyD2i374JrxDXLwLswY%2FAcuvpqg61DZgfX6aocRZPSAWjc%2FftG3n4Adpjo0nuq0GcW7CeYJ5L9inTTsgr6NkPeanXvPrSg3MXqEauz73wHDirI%2FpIY%2Fxm9qMtNWvqLPP44luq0GcHfIrHplBxMR9jYRfgWoX4nndea9QjVyf%2B2AEca6%2FqrXD8%2B%2BRVxyfZLGtfkWdfR5PdFsN4qwJ70GenAPunJh08vrvTE4%2FBnEiP%2FErVWkaWLardNnnqj%2BKy1e1YYqJLfrkDyvENNSQQnzVoGTd%2BvHyCjgfYLA%2Ba9TqzvvwyMj1uRO%2BWpztuWiO442P%2B4bjWLwjnwJnYSaP158r620mbCvyi%2BE575CIaGmrUv64dtA6%2Bzye6LYaxDlAB5lOBP%2BHGhjbMMxoUp9UdOKFcLuct5sTONzIWfHnFUrH4b86LEQgXD%2BVvNJqgBpv%2FnSht71gqe44L11vwsD1mYI%2BzXeKc%2BVcDMcrde66g286jupcDfF52QnL8ROyHra%2F4lzx2oz5Ehqf%2Bzq%2FIu8Qq72thrRHr7PP44luq0GcGb4qDJ16DdMwwsmjTtxgfDKpE0efRPqk0yeWDl%2Fzx1A8vuLNcazPJf86TpEPmzr5Fdzgzxfj07JUd%2FpKvGDg%2Blw6zd7IV4pz7Vy0x1FoOo5RBPGDNAnr392fvdTZ5%2FFEt9UgzoGlK0rGExO1LtiTyi7rMEaHr%2FkLZaCTUgro%2BSziE7U4Xl6a4krUXLnOqNUdp6vlM3J97oPhRs76OApbjmM6hnZ6OIfZPGR9Sx5M9Vx5gTjTUnNbnaVNWP%2B7rrPP44luq0GcNXSQ3XsxdGoUDYO2hiklUazaSWWX04k2JaOTNFzqNfhLZZiipA%2F9L8Xhq%2BFZnEpeccW9hxPKSXFyg%2BZ6slevtu6qo2Zm7PrcA98pzgl7LhbHRNF0HPkckHOd4%2FByLaznuRL9z9pMapT53Nc%2BC%2F%2BKlrZaTduyP3ups8%2FjiW6rQZwd5k8x2oZBhBM8TbPIyaFPHG85%2FKVGkdPJSUas%2BQurdCKmqZ3pQ%2F901RjSxfKFRhriUD4v%2FIEHnXfwXV56Z2LdcYMy9VWA%2Bvw0Xy3OidyO7fESGo9jcZ6kQD%2Bs57lC6WZthm%2FLiK%2BUh86vtt%2BJxbZaS9u4P%2Fuos8%2FjiW6rQZzfyUpjARtBfT7MCOIMwKfxRLfVIM7vBGLyWlCfDwNxBqA%2Fnui2GsQZgAGBOAPQH090Ww3iDMCAQJwB6I8nuq0GcZ7BTwBe5w8lMDqMl%2FkBhfB0sBCfLHQfzvAe6HDDAOgPxBmA%2Fnii22oQZ4u8VtAizqdTGUcE%2B1XiLOkLPwA8D8QZgP54ottqQ4tzfJUgrQTUawWeIOqwtMwvv0%2BP9pOwy%2BsAvF74eGLk3CLOB3itAOwHiDMA%2FfFEt9XGFOfw3txpLmb6ZfxGcb6pNPz1neonJ5fEOcSjC4Xw5Rx%2Bn4%2FKxhFTuH2XsXg3MF8Z7P%2BFfLAfIM4A9McT3VYbTJxJwMJn3rzPdJqX8VkYgwAas8KbBZgFX6%2BrOLy8Js5BkFOh7Jdyan5COuOTLjz2%2Bik7sB8gzgD0xxPdVhtLnMO0cymPGT1qZgpBTOiwvJxEXXy7cZgVcdZ5ybr9Gzemh87SyD8nKuHRdW1XAYA4A9AfT3RbDSPngBk1M1YwGR2mllkIw2ck2UElDq1QHur%2BNCPbi3iEDbfbmTRCLj4qz2DkDBqAOAPQH090Ww33nHndjpoZVxBVmF3WU81eHOJ6nj5Uz9wo39nH6hlZt3%2FDRh5t2w%2FIx2XccwatQJwB6I8nuq02pjgnNn%2F4XYd525nFOJQXj2pJUIPRCN6NJ%2Bs53P4YA4lwugeeLyrwtDbYAMQZgP54ottqQ4szAKMCcQagP57othrEGYABgTgD0B9PdFsN4gzAgECcAeiPJ7qtBnEGYEAgzgD0xxPdVoM4AzAgEGcA%2BuOJbqtBnAEYEIgzAP3xRLfVIM4ADAjEGYD%2BsMA%2BYxBnAAYD4gxAfzzB3WIQZwAGA%2BIM7v%2F9f8jw2aKeeIK7xSDOAAzGZ8WZBOG%2FqGv5v8b%2B6%2F%2Bl7WAZW38ksv%2BbNjXDPjgdjkVPPMHdYhBnAAbjM%2BKchOB%2F0ipz2NGbiFtafRX%2Fc24Qxq15O%2FX%2Bv5SHzQfHoqTpWCzjCe4WgzgDMBhvF%2Bd%2FUFfijfA8QWDh0KO4vP0aO8vgi406Tx1X%2B1nzwfnabZzmH2QsZKFTprjaRy4%2FxdejzX%2FwF%2B85LpUno9ZnflOY9u2VPfj14PwbxWhLvXc5FimeV99MzT%2BHH%2BJYLOMJ7haDOAMwGG8TZ%2BmU9ahNMxME27Fy5ysdMW9TvoIwqE43p2vwocVDOvrgQ%2BI58Hbp0GcCafNU6zO%2FS%2BVT8MjNrTuOz%2Fsupn0lFuu9kl%2B3Y0HbvPpe8n%2BYY7GMJ7hbDOIMwGDsVpxD58kdvbGQnjrS3CETRVrbAS%2F4KDpjgoWFtxUdfkI6ZbFHBUH7XSyfQvIuBJOpCIhmqd69%2FWR6HIu1%2Bq7598q4y2OxjCe4WwziDMBgvE2chTCycgTFEwRPOAKNgrDmY0ksZh23iltsf1IQquUjRAh6TWvbOhd6HIst9a3x6myXx2IZT3C3GMQZgMF4uzgHuBNNHbMwEwruSHVHq6FtuiNdFIQFH3oEpDv9tY6b88vrVhDMOset%2BV0qH4vBqhDYvNfg%2BFLvC2m7HYtKfS%2F5P8yxWMYT3C0GcQZgMD4jzg4zQSBCB05dTzbVmTcJArHkg5fDiDKZXCzMOm4idOwp3j8onc0%2FhKcOXEZZIYx9pTw9v9XytWDFaANeWYQux2Khvpmaf6%2BcuzwWy3iCu8W%2BV5yv5%2FvPz%2Bl%2BMedbM7fL%2FXS6cFPYDqf9%2BaH8xU7383Xd0%2FV8CvHP6Rz7PLf79XJ9rA7AbtmNOL8dLRwDwiKmxbE7Y9e3J7hb7GvFmYXufD7fT4%2Bq87PirNPervfL6WelLNf7%2BefMp%2FN63rJdx3umvDXoAufh%2BgO7BeI8ItSOZQT5NiDOz9jXiPPtcr7TIC9xIzFkoSPBe1SwnhE7L%2B2av0fy6yHIGalD4nq5nzGC%2FhrGFWcA3ocnuFvs%2BOJMo9LziUbJWjxYtMLcMAtMmtoOQkYCnqaO41RziB1HiMUUNIVp4aPlM418w3YRLKYIJ78q%2Flw0y5Gx9nfhfcj5UxxJH%2F46ZU7hkw%2BJu1Demq8axaiZp7dpPZQ1BYHDAnEGoD%2Be4G6xA4szCQYJzel8ITFLQYnbZRIeXg4iw%2BKk7%2F2y%2BMwElBCRy2LHAs%2F3gWNM9vcTFbIIz%2BnsckYuFNQFQwi2%2BZkwr8xLaUI%2BTnlrvuKagX2oixCBp%2BdDnWMUfWQgzgD0xxPcLXZccWZxcYd%2BUZzi6FBGj0bIGCNsPPp249fS1cLtciaNnHmbLlswEuurk76Wh7e9NU0K9suYKEbNc%2FTFDzgeEGcA%2BuMJ7hb7vpEzi06hHGmkqsWPyeLEosnb0xYrZlbE1sLtsqDTyfS2xktv%2FdjwR9Kk4CK%2FgsqomcHI%2BSuAOAPQH09wt9iBxTlh7jnnaWxFCOMnt11xiiNaScIPlpUj7co0sQkvpolnQhif1o7XDCndlGGMq9N4YYwN99KIf1vemq%2B0mnFHzbjn%2FE1AnAHojye4W%2Bz44pyIT2uzMKn7uQILkUxXpyAtTpxWpppPPL3N4Vq8aLl4%2BIrDGPEbwlM6Gx5M3etlwgWFpEuCZ%2FILyzqMmYVH0S8eIkvxZuWt%2BUqrEa4%2FZ9SMp7W%2FCogzAP3xBHeLfY04f5objTjjiBqAfQNxBqA%2FnuBuMYjzE8gXvYoRMAA7B%2BIMQH88wd1iEGcABgPiDEB%2FPMHdYhBnAAYD4gxAfzzB3WKDijM%2FfXydP3DFuA9KPcCr%2FADwYo4nzo3tlZf5FlPx7Ed8e8F%2FMDJ9eyAsC14YANvxBHeLjSnO8rrQWmN%2Fhlf5AeDFHE6cW9trWD6VcTis%2BtbCA%2BIs6Qs%2FAMzxBHeLfb04lz%2BIwajXhbwG9qpGt9UPXlcCb2LP4vxUe03L%2FKGc%2FHAmC7v%2BxkHh44mRc0v7RpseGk9wt9j3irP5OElGf2SjobHP3kdm2Ic8pR3eYU7hKn5%2BX9qEl%2B81n%2B%2Fn8MQ3dwb40Ad4D7sU5xe117Cs0vAbFe6ncePWujin9tn0ozMhWMXLDRhtemQ8wd1iXyjO1CCoQXk%2FiMHbio9scEMLDcpYaHAcV12BF41akcPjva38ZS7qIBb9hLy54zAe%2BWtiofy44gZ92Jc4v6q9pu3StkIYC75eV3F4WYQ4LAtKnPXHg1jwta%2Ban5DO%2BESbHhJPcLfY94kzN6LigRCFvgpnigaW0I1v1hEkkaVt1R%2FKiF7W%2FdhvfRv4Sry2GwA8w67E%2BVXttVhOoi6%2B3TjMijjrvGTd%2Fo0bw4U5fyUwjPxzohK06bHwBHeLDTRyNlfhjG2AjG58s4bLcONVI163sRJrfmx8AVfZoDPHGDlvbK9mmYWQby0FMazEoRXKQ81qMbK9iEfYcLudSW033qZSoE0PiSe4W%2BwLxTlBDaK4h2Wvwhm3gUlYvBqe%2FUBFEOfpHlL%2BoQyJn3qYcA9qyc8sb%2FKM%2B1PgDexLnBNPt1dnWUSyFoe4nqc2y9wo38UfirF%2Fw8Z0wR4zUIKPNj0ynuBuse8V58T0gxiNo1cdFjqMNBWtGpj7QxlxwxTOV8pLfmzeeLITvIldinPiufbqbGcW41Beoa0moxG8G0%2FWcziNhkObjuUs%2BgTpKNCmh8YT3C329eIMACjZszgD8C14grvFIM4ADAbEGYD%2BeIK7xSDOAAwGxBmA%2FniCu8UgzgAMBsQZgP54grvFIM4ADMahxJmfns5PQj%2FA7AGwDXDa9JBXNH41a90TvxrG8ffzTjM%2FNY4H096NJ7hbDOIMwGAcSZxZ6M78bexH1flZcS6e2I5PaC%2BXJb5qGXR5LW%2FZruM9U94a3mtpoDue4G4xiDMAg7FncY6vUqUVkqj4ShW%2FivigYD0jdl7aNX%2BP5NdDkDPqtTS82vVWPMHdYhBnAAZjl%2BJsP0LCsGjFT3yRwKSp7SBkJOBp6jhONYfYcYRYTEFTmBY%2BWtbfG5iuAXS4%2BW7BTDTLkXH5%2FQLeltY5jqQPf50yp%2FDJh8RdKG%2FNV41i1IyPorwTT3C3GMQZgMHYlziTYJDQeD98ob9FHT7HyYrC4qTv%2FbL4zASUEJHLYscCb77gFxWyCM%2Fp7HJGLhTUBUMItvmZMK%2FMS2lCPk55a77imoF9qIsQgafnQ51jFN0TT3C3GMQZgMHYlTizuLhDvyhOcXQoo0cjZIwRtuoP0tTS1cLtciaNnHmbLlswEmvv5ylreXjbW9OkYL%2BMiWLUPEdf%2FIDX4wnuFoM4AzAYhxg5s%2BgUypFGqvbX3LI4sWjy9rTFipkVsbVwuyzodDK9rfHSWz82%2FJE0KbjIr6AyamYwcn4LnuBuMYgzAIOxL3FOmHvOeRpbEcL4yW1XnOKIVpLwg2XlSLsyTWzCi2nimRDGp7XjNUNKN2UY4%2Bo0Xhhjw7004t%2BWt%2BYrrWbcUTPuOb8TT3C3GMQZgMHYpTgnph%2B%2BUPdzBRYima5OQVqcih%2Bf4OltDtfiRcvFw1ccxojfEJ7S2fBg6l4vEy4oJF0SPJNfWNZhzCxc%2FYiGST8rb81XWo1w%2FTmjZjyt%2FVY8wd1iEGcABmPP4vxpbjTijCNqAJ7DE9wtBnEGYDAgziXyRa9iBAzAk3iCu8UgzgAMBsQZgP54grvFIM4ADAbEGYD%2BeIK7xSDOAAzGfsWZnya%2Bzh%2BgYtwHnx7gVX4AWMET3C0GcQZgMHYrzvL6D8QZfAGe4G4xiDMAg7EHcS5%2F4IJRr%2F%2FsSZzx%2BhF4EE9wtxjEGYDB%2BKg4m4%2BNZPRHM9bEmZZn7xcz7EOeug7vJKdwFT%2B%2F%2F2zCy%2FeUz%2FdzeIKbLxbw4Q7wGJ7gbjGIMwCD8RlxJpHzPtMZMB%2FNYIHMIqssiKr5QEkQU2cknMM5vvrSFr%2FHvOQn5K0%2BAyrgk5dgI57gbjGIMwCD8RFx5lFt7eMeetTMeIJbiKcV7iSytK36wxfRy7of%2B%2B1uA34sArTiCe4WgzgDMBj7GjmbUTNjBZUpRNX5NCWFLP7wRQxd92PjCxg5g414grvFIM4ADMZnxDlh7znbUTPjCWQOS9PUkiaHV374QuLLtDb%2FgMSSn1neuOcMHsMT3C0GcQZgMD4qzonpBy4aR686zPvBCQ5mEU1T1PbBrxzOo98lPzZvPK0NHsQT3C0GcQZgMPYgzgB8O57gbjGIMwCDAXEGoD%2Be4G4xiDMAgwFxBqA%2FnuBuMYgzAIMBcQagP57gbjGIMwCDAXEGoD%2Be4G4xiDMAgwFxBqA%2FnuBuMYgzAIMBcQagP57gbjGIMwCDAXEGoD%2Be4G4xiDMAgwFxBqA%2FnuBuMYgzAIMBcQagP57gbjGIMwCDAXEGoD%2Be4G4xiDMAgwFxBqA%2FVmx%2F%2Ffo1C1sKhzgDMBgQZwD6Y8WWRdgKsRcmBnEGYDAgzgD0x4qtCLGIsV23BnEGYDAgzgD0xxNcLchLwswGcQZgMCDOAPTHE1y2FmFmgzgDMBgQZwD64wmu2Jows0GcARgMiDMA%2FfEEd4tBnAEYDIgzAP3xBHeLQZwBGAyIMwD98QR3i0GcARgMiDMA%2FfEEd4tBnAEYDIgzAP3xBHeLHU6cucAwGOw5eyVolzBYH6uxO3EGAAAARgfiDAAAAOwMiDMAAACwK%2B73%2Fw9IsknvHsBweAAAAABJRU5ErkJggg%3D%3D%3B%22%20vertex%3D%221%22%20parent%3D%221%22%3E%3CmxGeometry%20x%3D%22559%22%20y%3D%22316%22%20width%3D%22285.92%22%20height%3D%22155%22%20as%3D%22geometry%22%2F%3E%3C%2FmxCell%3E%3C%2Froot%3E%3C%2FmxGraphModel%3E&lt;/span&gt;&lt;span style=&quot;color: rgba(0 , 0 , 0 , 0) ; font-family: monospace ; font-size: 0px ; white-space: nowrap&quot;&gt;%3CmxGraphModel%3E%3Croot%3E%3CmxCell%20id%3D%220%22%2F%3E%3CmxCell%20id%3D%221%22%20parent%3D%220%22%2F%3E%3CmxCell%20id%3D%222%22%20value%3D%22%22%20style%3D%22shape%3Dimage%3BimageAspect%3D0%3Baspect%3Dfixed%3BverticalLabelPosition%3Dbottom%3BverticalAlign%3Dtop%3Bimage%3Ddata%3Aimage%2Fpng%2CiVBORw0KGgoAAAANSUhEUgAAAecAAAEICAYAAABlHzwDAAAAAXNSR0IArs4c6QAAAARnQU1BAACxjwv8YQUAAAAJcEhZcwAADsMAAA7DAcdvqGQAADD1SURBVHhe7Z09sus4sq33pMrQG82xFNGzeNZx9bzrtl%2FRrgZw%2FS7zRnTIbPM6PQO9TAAJJpIJEpQEiRTWV5VnkyCQAEECiwB%2F9POf%2F%2FznDoPBYDAYbD8GcYbBYDAYbGcGcYbBYDAYbGcGcYbBYDAYbGcGcd6B%2Fetf%2F4LtyLxjBIPBYO80iPMOjAUB7AOIMwwG24P96BED7HMG9gEfC6%2BhwGAw2DstiLO3AfY%2BgzjvB7QHGAy2B4M478AgzvsB7QEGg%2B3BIM47sBZxvl3O99PPz%2F2H7XS6n6%2B3tKWR2%2BV%2BOl3uW1I9necBQXuAwWB7MIjzDmxNnG%2BXE4nj5Z618Xa9n39O98s2pd0kzi%2FJ81U8cGHxKGgPMBhsD1YX579%2B3%2F%2F44%2Ff9L1mWEVS2P%2B6%2F%2FlRxZ9v%2BmvuT7X%2F8cf8taY399ftXEW%2Fm5wttTZwvNGp9WhQ3CdztNXkeEIgzDAbbg7WLsywn%2B%2BtPEtHa9r%2F%2BvP%2F%2B4%2Bf%2Bx28R1j%2Fvv0iwf%2F8l21mof93%2FlPjJ%2Fvr9Bwny7%2FufOZ5J905z9rmXrYlzTVTD6PZ8TWv3%2B%2FX8cw%2BrPMo9pQscGu2G6WgtzrSct5%2FOcxFeE3KTPpQgpDnfz2cqE4WfLtf7JSzr%2FGm7Tcdc1fR5iE9hxh%2BP4rk8YZ8lnhR8oTyxDMrvChBnGAy2B3tYnKPgJoH1tq%2Bmt%2FYXCfqHhPjD9qg4BwH6EZHjaWde5lEviXQWrjQdfWWxYj9mVBxEzPj3wjLJf5rvzhcIoSzJr11mXyFsuhCwFxaZIj6XmxJIWN7HFE%2Fvb6U8%2BT45XwBU92kC4gyDwfZgfUbOwZR4B%2BH9uf%2F6%2Fef9r5r4rgk4bf9FPsIo6A99UfDr%2FusXjbgp%2FA%2Fy%2Fzssp%2Blw2W7TsXH5w4iKLU3RG388iufyhBG9xJPZgIXyxDIov5JnxR4WZyKPlkl8sih58SU8iFYqdzYl1kzNB2O3ab8S7i3X0qXlM10w5PLY%2BHk5CnF4OI1G5jfeWPNbC0%2BrNSDOMBhsD%2Fb4PWcWJD1NPRNWMxLmqW4lWrMRsutDLIl7uv8cxPLXn6lcyZddZl8hjMQy5ZXTFb5tfPKRhZ3LY2YIwvJyefJ9cn0Bs2Br4rx4%2FzeJ8vVsRqpx64QWrTzarmFG15qa6Olwb7mWLoyG0whZh3s%2BQgTiJlPmtB81v7XwtFoD4gyDwfZgj42cwz1lNSq024PpkXNpPOqWUWkOd31Utsm6DveWa%2BnS8i%2Fah%2Bliw8TPy1GIw8NpMvKv%2Ba2Fy3rF1sQ5TNWSsIh%2BlU9O03IYTYrwpGleUVZ3Wltv90WrnufCNLL48Zb5rzutzX51OF1sSPyZP73fcgHRUB7GrleAOMNgsD3Y4%2FecWWBlFOptXxQmT7jNSFub9SXrOtxbrqUL%2BacRcou%2FsC4jf54xqPithct6xdbEmSneOSaByvdSCZ7aPom6MSykLNg6biF2ajs%2FNFVRrGqe5GtKbwW0shz%2Bkg%2BbLkSZ8uE4dXE2cSdFXy4PY9crQJxhMNgerM8DYelpbRlZx2nfabs7cuZwjkfh86e1F6aRvTLKMv%2BlMs6ntWPZp%2FBUHteflIHjygVEQ3kKH2m9Yi3iXIeFdm2aegc0iuOngTjDYLA92BPirEa6vD2NZqKp%2B64p7p%2F5fjOZvl9trHjPWfuhPKYHsJxyecvhL%2Fmw6ch0PhynLs4mrvtA2DyNxCnWK%2FawOPP9Zsq%2FGDXvFYgzDAaDNVtdnL%2FBGsXx0%2FawOIOXA3GGwWB7MIjzDgzivB8gzjAYbA%2F23eJ8EIM47we0BxgMtgeDOO%2FAIM77Ae0BBoPtwYI4wz5vYB94xwYGg8HebT%2BpTwIAAADAToA4AwAAADsD4gwAAADsDIgzAAAAsDN2J85%2F%2F%2FvfYTDYC%2ByVeP5hMNjzVmOX4vy3v%2F0NBoM9Yf%2F%2B979Ti3oNaJcw2OttqZ3uVpwBAI%2FTS5wBABPe%2B8lbDOIMwGBAnAHojye4WwziDMBgQJwB6I8nuFvs2OLMPzWYfq7x53S6X17xw8UH%2BflCAB6lrzhf7%2Bcf%2BxviZdjtci7a7fmaWptuz2Hb%2BX6EXzwFwMMT3C12YHHmBk%2BCLI03NGzqAJ4V17X0EG9wcD4pzrfLiUT3Qu00brnfVDuWNhy3UDK0NXBcPMHdYscV514iCXEGX87nxPl2v%2FAMV63xWHF2fQFwDDzB3WIHHjlzQ%2F%2B5ny%2FU5HVjF%2FEMf8%2F385mu1H9%2B7ieKdwnLaRrNimyRLoVf1fRbSsd5xim3FIfin3NY6kiKvNG5gH3xMXG2bc7C23VajJzBgfEEV%2BzXr19uuLYDizNxE8GN4pmnxkRki%2BkyZ7tu%2BLVwwd2eLhDSHF2YsjtT18JxOL88dwfAfti3OKcL3dSmuTkBcEQ8wWVjYRbztosdW5wVNxrlhtGsJ6Lesg5jKunOJxF%2FMmf7qg8AdsZhRs52HYAD4QmuFuY1gf4acZ51ALoj8JZ1GDMLZ39q9OulW%2FUBwP7oK87OfeXcHrbec16JD8COsWJrBdmuWzusOMcp5EkAN4%2Bck5hLw%2Bf0ZTqz%2FWL8x9D6tHaOA8C%2B6CvOdJl8ntoEE9pmmp%2Fe9LS2XQfgQFix9YT4K8WZWi51AnrKmUfNHJyEUQtkZTl0FHJv62zFmbdPD4SdeHo7hF%2BDIOcHvSj%2B9EDYPA8A9kZvcaYGEJ4F4TYTTF1EM8V7zuG%2BctrK7SaHy7a4CYCjYcW2JsJfKM4AgEfoL84AAE9wtxjEGYDBgDgD0B9PcLcYxBmAwYA4A9AfT3C3GMQZgMGAOAPQH09wtxjEGYDBgDgD0B9PcLcYxBmAwYA4A9Cff%2F7znw8bxBmAAYE4A9AfT3RbDeIMwIBAnAHojye6rQZxBmBAIM4A9McT3VaDOAMwIBBnAPrjiW6rQZwBGBCIMwD98US31SDOAAwIxBmA%2Fnii22oQZwAGBOIMQH880W01iDMAAwJxBqA%2Fnui2GsQZgAGBOAPQH090Ww3iDMCAQJwB6I8nuq0GcQZzbjf%2BH3wxEOcDgnZ5ODzRbbUvFefb%2FXo%2B3X9%2BfoKdLg%2Be0bfL%2FXS6kLeDcT3ff85XWrjdL6fTvdh92qfzz%2FnOWz1ivZ3uJ6634CME1v29m57H5MH9lHNNqmuGV%2BeUF9dxOD8X6%2FlF57LhM%2BKMdvm17RK4eKLbat8pzuGklcbLJ%2B5Cx7nEOzqBHnkUjVYafKyH2DFWOoGiLKrBu%2F4%2BhJTxbfXmUOR9XehUa3XOaeScpDjntOzl%2F6pz2fARcX7VvvQ49pa3nV%2BxHg7fLoGLJ7qt9lXifLuc7xfnDL1d6IrzkcvKd3QCPaByn9P%2BXs%2B20S6ISW7skauIxqK%2FN9PzmLTupy5DU3lMnXM9e2ka8s%2Fn8pXjXh%2Buh3eKM9plYvH4HrxdAhdPdFvtO8T5Ric2XU36nVW6QqeTN3eI3Li5IYRGfqZtcartROkvafrofKWYbifAjUhNIYmvtHyWq2DyG%2BIUeVAYdUjxKpnLa%2FIw6cUnp4%2FlSumeaoX1TsB2ls2d58J%2Bu%2BUOxyvFl7oO4c7%2BMyr8RMc5HMfgX%2F7W8tH%2BUrq0qQnJI63KPmmfMjVdHfUEyjrnetWdbTvpXA5Jb6TP57jvm3Yq8hZxRrvcQId2CT6OJ7qtdnBxjvewTucLNegUZOCrTOkIeTk0dO4wOIgbmDRou8wNU%2F5yYkX0E0OnjlZNNzHaB%2FsNBVQNMIRLR8R5SMdr%2FKb0WcDoKjqXia%2BoQ8cw2XoH8epOYHm%2F5%2BVO%2BykJuAMP9V7Zf1svMupszUfCJT4vt9abTsPoPCXcxnEp6zzUK4lSvuBYP2gBfS5nqP5YINjHchlK%2Booz2mXT%2BVXw6nYJ9oAnuq12bHHmBrF01nMjKRoxNwDVweUGWFnWYZocrho%2Bh5kGyVfTl6v2ERs6j7jCaELSeXmthafV7by4E%2BDyrO43Udsfobafa%2BFb06XVJlp8mzhBdLgOivNyLs6b773OzuUS9rkuABNdxRnt8gEgzt%2BIJ7qt9tUj59lJzA2IG6c0It2gvOVqg5PGb9J4jcvzkUY7YSq0ltdaOC9zJ2c6nvUOut4JBH%2FKAQvNqj8uT8t%2B1%2FZHaI1vw7em4%2BXWemvxbeO4mDpn8drY2VbjHHDkjHbp8eJ2CXaBJ7qtNsA9ZyE2XJ6GCh0Hdw66QXnLtgEqQgdD%2FqZOJl59T9O1ng9ugOmKPsTXV%2FApvTd9psuwUKY2FjqBwrd0dGFlgZb9JvK6jS91Utl%2Fia%2FDtf%2B1fEQdWBB1vCZiXU1FTT50njZ%2FF1vnaT06SOUMGzZA5%2FGh7zkLvP9ol%2FNzRFH4TuV7PCPwRjzRbbXvEOeEfSo0NNR0Fk%2BdPZMao57a0g1AlpcaHG%2FLDToROqN0tVw8eDL54DLKNJvXEU3pTVl4mbHrm7GdQLnOHSRP%2B3EZW%2B%2BFtux3uZ8qPuWVBdTbf4bThrhcJu58aZv4W8xnSvfQA2FEOG%2BCDyrnWQSe749yGAusyd%2FF1jnBQp%2F3ab2e9bkcoHN3WfSWeYs4J9AuW7DnSLn%2BULsEH8cT3Vb7KnEGL4JGseG%2B2xfBo95JBMA7xRm8iC9sl9%2BOJ7qtBnEGX0scbZgREwhAnAHojye6rQZxBmBAIM4A9McT3VaDOAMwIBBnAPrjiW6rQZwBGJCvEeenH8RaID%2BnsO0JabmdUn3EgR8wa3lA0M0%2FPtUut2uKhwTB7vBEt9UgzgAMyNeJcw%2BRLsTRiKmmyNt5Mj8TX8uKwmqfzBYxpzjyHrOXfwiTvKK%2FmA7sEU90Ww3iDMCAYOTcAI9w08j0238IBfTBE91WgzgDMCBdxZlFxX2vmJbzlCy%2F3x6jt733rsRJheOHUKYR9zMfpQF98ES31SDOAAxIP3FmwVD3Z7VoauGl0WIUuiQwkoCFmuLhh1DWCd9xt3Gp%2Fh75nCvogye6rQZxBmBAuokzi5MROh69lj80QXjCprHhtfg2fGu6tNpEi28T5yg%2FhAL64Iluq0GcARiQvuLsTOm2CJumNb4N35qOlz88cub89VPXYSS9MjddjYOR867wRLfVIM4ADEg3cSZJKKepHQFj8rqNv3Fam8O1%2F7V8ZtPdW4iiOhU1%2BdB52vxdjDjLenSQyhk2bAD3nPeIJ7qtBnEGYED6iTOhH%2FASsaiKJi%2Br%2BPp%2BMcWZ%2FJi0aYSLH0JJ4GntXeKJbqtBnAEYkK7ifAB41PvYE9IAtOOJbqtBnAEYkBHFGT%2BEAt6NJ7qtBnEGYEBGHzkD8A480W01iDMAAwJxBqA%2Fnui22veKs3n445JuL%2BX3Dq3x%2FSedRll8SNTbpt4ltA%2BCVPJnbvxUpdqWH4BpxeYFwEYgzgD0xxPdVvtSceanIfl1jLQahNI8Hek9Mbkkes42fqgkhxXb6%2FnLqx9Zj%2FOrI2m9haVyAtAAxBmA%2Fnii22pfJc48Ig0j1Cbxel6cCx96e9UPv8O4UYg9WvYPr1aABSDOAPTHE91W%2Bw5xDu9JnpQYpRf5eb2qTs%2BLc33kXMl%2Fwf%2F0kYUIT7%2FH6XTetzQFHqbRKbX2Q8uzd0oD%2BCgBqANxBqA%2Fnui22sHFOf7w%2BOmspokFEjX9yzRzgaqIs9wLzqZGxnYbCd80PW2E18vfxtEE%2F1IeKZuIfEohU%2BD5O8VmJO75T%2BXA5%2FyABuIMQH880W21Y4szj1zVaLMGj3DnXwN6cuTMohce5pL1etqc%2F5J%2FIo%2BWOT4v1OJLOP%2B1FwyV%2B9c8Mm%2BoKjAIEGcA%2BuOJbqt978i5wBHiZ8WZERFlltLmvFbuOSd%2FvE%2BLI20J57%2Bz%2FTJg5AwcIM4A9McT3Vb7ynvO8f7tJGpdRs4B5UNtX8p%2F%2BWlt3g8a%2FeZ8Wqa19XZdRtxzBnUgzgD0xxPdVvsOcU7kp7VZmPL9XhY7EtCZQFXEuZgijhY%2BMO%2BKsxoJW2FcyL94z5nEVr%2FnzFPbxQftw4WHiavz0tu1EONpbbAAxBmA%2Fnii22pfJc7Hh4XWXDAA0AGIMwD98US31SDOe4Gnvmn0u%2FYj6wC8AogzAP3xRLfVIM4ADAjEGYD%2BeKLbahBnAAYE4gxAfzzRbbWxxHn2wFf5MNa7WPzxjd7oOuCH2Z7J0n1Irif8BPrVeb97wOP4JB8T58r5t1iXs%2BMdLVSzu43Ph%2Bh3do5W8mfwgzTg1Xii22rjiXPRUPlDIg%2Fe531JQ3SeGO8K55eeLmdCR8VPkm%2FcF4lv%2F6bN3bhS58mFt%2FkNdxyf5zPiXDn%2F0mrEqculY%2BRsu%2FF5ImHF9nr%2By684NrJUTjAknui22hDivPiDGB9tUJ069dprVLV9fbQOOtbd9FqcwK%2Btpboa%2FTi%2BgHeK82L7m%2FG8OBc%2B9Paqn5WPA7XSsn94xXEoPNFtte8W5%2FAO8GlqDA0Nef7OMG9fGW3qd40pbp4Oc%2F1pVN5E%2FHjJ1C2Fz3leOJ9z4SfHqPqvfYBEPlrCU8MpKIVFH1MnNvMb9pfKIe9vc1ypA%2FlL0crpyYV6LfzpfTLHTJBRM6PymxjpOD7PW8R5diy9889S1mVAHyOLs%2B1WHTlX8l%2Fw7x5LXvXOFe2Hlt99TMH%2B8ES31b5UnONHQGaf9XQboVw1y18JnuJygxRhyI01b5cGnxJyow0iUPc3YToijpPX07YUlt3nzqLBP5Vl9unOFCadSkhfpK34DeWgcN0J2b8pCbNaTu0vbvCPWYB9mHoy%2BU351Ovlq47jk%2FQV54Vj6Z1%2FBaYumVB3SeiypTjeNj5XavW5ev4bgn9zLCmme64UX%2B57%2FzEF%2B8MT3Vb7TnHmK%2BfQ8RncRqg7T9PIZ41XNToJc30SS%2F4y844oX5nTPpTikdD5rvqPsBC41cF52H2o%2Bc0dT4qj0%2Bn0TPCR9qvFH1M7Zgxv0ztm8wuMexwfoas4Lx1LRT7%2F0npkXpezutPM6pVEj45tzn4hrXv%2BO6weS0HC%2Be8HjinYH57othpGzkWDMp1CRjpzlV6nsz6ZRX%2BC0xGlDoDLXwpKQue75n%2F16lwJmt4vz6%2BNI2XQf2NEqqvUmYXVBn%2BB2miL%2FZn0s7SELku1Xr71OG7nYyPnAqfevLDasWG8bSKizFLanJe6WPNYO5aChPPfDxxTsD880W21se85h6tsEZIkKtJCTVy%2Bwj2Rr%2Fl9T5uOGzw34mV%2FkUrnROn0%2FV9u6JMbPR1a80%2Bdo3NfK6ZV%2B8SdDqcxaV2%2FOo4NU9um8gkN%2FjT2mFEZi1EzY9MOdhxfQV9xTphjWT3%2F0nrEqUu3zhNrx0NtX8o%2FbKPlaTqcfYhgm2NJ%2F7rnSjGt%2Ff5jCvaHJ7qt9t3inCieFjVTTcW7jKEzSdts4wlppbGmdWlwOp32ueQvwI16foWt743GfMhn9iONnKj5rz4RGkc0sZwxTSxqFLfpPp7jt9jftGz%2F0n%2FRj1iqrzV%2FDvGYsb95%2FYS0OY%2BYz1jH8XneIs6J6cn72vmncepydryjhbrVxy%2FD542ce3r7cv5czimf8pwqjiXjnSu1c%2BlNxxTsD090W20IcT4W3KhV5%2BR2PmD%2F7Ps4vlOcj485lgA04oluq0Gc9wRPs9GVdnmFDnE%2BHAc4jhDnRrxjCUAjnui2GsQZgAGBOAPQH090Ww3iDMCAQJwB6I8nuq0GcQZgQHYlzjzlHx6sMg9YvRl%2B6Gsqg7Li7YNO6Drgh9meyfLtt1D4CfRrfDBU19uIx9HgiW6rQZwBGJDdibMWk1t8e%2BCh%2B7wvEaar%2B%2FR9Pzg%2F8wYB5791XyS%2B%2FZs2d%2BOaXne0%2BQ13HOd4ottqEGcABmQP4rz4gxjvEhaXTp167TWq2r4%2BWgcd6256LU5QrzuOfhwdPNFtNYgzAAPyUXEO7wCfpg7O7cBVx0rb5%2B8M8%2FaV0ab3LnII9%2Fxpyk59%2BmBMhKdN8YM0CRk1Myq%2FiZGO4xxPdFsN4gzAgHxGnONHQJo%2Bq0tr8UMi6oMiIXiKy52rCEPuePN2EbyUkDv4IAJ1fxNlpx7i5PW0LYVl97njb%2FBPZZl9ujOFiQCF9EXait9QDgrnCtVh%2Bm9KwqyWU%2FuLG%2FxjFmAfpp5MflM%2B9Xr5quNo8ES31SDOAAzIR8SZR1mh4zMsdayh80yjl2yp08zpVEcqYa5PYslfxnTqRBhlcQC%2F91yIR0Lnu%2Bo%2FwkLgVgfnYfeh5vdq4uh0Oj0TfKT9avHH1I4Zo0fNjM0vMO5xZDzRbTWIMwADsvuRc9FJlh3shHTmKr1OZ30yi%2F6EeacunTmXvxSUhM53zf%2FqiEsJmt4vz6%2BNI2XQf2NEqqskTGG1wV%2BgNnJmfyb9LC2hy1Ktl289jhBnAMBGPiPOCZ6apM64es%2BZO70sJElUZMhi4vKoBT9Ik%2BLYMLVtKp%2FQ4E9jj5kdNTM27WDH0cMT3VaDOAMwIB8V50TxtLaZPizejw3CkLbZDjGkTaMgWc8dr0qnfS75C3idOuuRei0o5EM%2Bsx8lDDX%2F1ad84%2Bg0ljOmiUWN4oYfpFHpdn0c53ii22oQZwAGZA%2FifCy4o1Yd%2FYqIgb3y3uPoiW6rQZwBGBCI8wZ4mplGT8U0LsT5eHzgOHqi22oQZwAGBOIMQH880W01iDMAAwJxBqA%2Fnui22lji7E1hvGpaA9Nc4EBAnAHojye6rQZxhjiDAYE4A9AfT3RbbQhxfssH9rf62fA4PgCvBuIMQH880W217xbn8J7aaRLBNXGmZf%2B9trN6f4%2Ffs0vhKj6%2FK6dfbJ%2F5CfnoD8q3v8gOwKuBOAPQH090W%2B1LxbnyyTkWyCyyyoKo8ov1lZfgNTk8fUEmZXCTr%2FrU%2FIS8KbwoEEEXEGufgAPg1UCcAeiPJ7qt9p3izCPd4lN1CU9wC%2FG0wi1f0uGRsP6CT4qvfa35sR%2BUN%2FBn47wiA9ADiDMA%2FfFEt9XGGzlbgSxE1fkkHX9RRo94dXzta82PjS9g5Aw%2BAMQZgP54ottquOecw9I0tcxH53AW5%2Bm%2BMD9cNk1fq2lt%2FmD6kp9Z3rjnDD4HxBmA%2Fnii22rfLc6J5qe1Kx865%2FQyVW0f%2FMrhPPpd8mPzxtPa4INAnAHojye6rTaEOAMASiDOAPTHE91WgzgDMCAQZwD644luq0GcARgQiDMA%2FfFEt9UgzgAMCMQZgP54ottqEOdXoh4Qi3acd5evZ11uZd12gJ9WvzrvheN973ewK3G2D0syXtgjvMoPAA%2FgiW6rQZxfie0IDtkxxFfHuusjfyiGH2P%2Fijo7HhBnAPrjiW6rQZxfQP1VrTcJ3RZWX%2BF6fZlz%2FWT4XfCUx1fU2fHYgzg3v%2BL4DFv94BVH8EI80W01iPMzrHzk5MajQ14P4epHL2jdf59aPhHKPmPgLMx2NrLemAcloP5n6eMnjjgaX5OoSn4xfPpRj4StH0FGzYyUP64dtM6Ox0fFedPHgeKye1z4XAnHmY38yYmn4uMHacAn8US31SDOD0ENmBrz6g9r6A6AOo%2F4CdDKD2NoUQzxedkJy%2FETsh62r%2BWhoA7S%2F2yoFWfnS2jcC%2Br8irxDLL9%2BAmrUzIS0R6%2Bz4%2FEZcW5sN%2Flc4PpvOC5MDjfnKwn4op%2BQt5wDii861uBzeKLbahDnR%2BAr9nyZrljtONLyrCPiTiN2Kj%2FUgYQRRYw8D7N5yHpTHiFFAYttuStGnFvz03Fq9cPwNl0Qm1aw%2Ft392UudHY%2BPiPOWdqOPUe240Db8IA3YM57othrE%2BSEWRgBeQ9fhoZNQ4mdJV%2Bx2ejiH2TxkfUseTOvIuTU%2FHYeW%2FJEzC6cp1yxtwvrfdZ0dj92NnO05oI%2BRe1z4PGVxTal0fO1rzY%2BNL3zRsQafwxPdVoM4PwM14NV7Z0wRHkd2sx%2FGkM4mOqI4vFwLm%2B6H3Xg0Ip3Pah5hZeM95%2BQrdYLFtLb4LPwrbP3YUTNTTduyP3ups%2BPxGXFO2PPCOwdy2NKxV8eUjs80fW3O1yU%2Fs7y%2F71iDz%2BGJbqtBnF%2FA4lOnjA0PnVOaWlOdAPuRqTcRMT%2BMR4RxWu589oSGqORBPc%2FUKbrETq8YYZDvyVfKQ%2BdX2%2B9ErB%2FuHLeMXI5UZ8fjo%2BKciOdFWJifAzqs5diT2BfnpoTz6HfJj80bT2uDF%2BKJbqtBnAEYkD2IMwDfjie6rQZxBmBAIM4A9McT3VaDOAMwIBBnAPrjiW6rQZwBGBCIMwD98US31SDOC7z%2FxyD2i374JrxDXLwLswY%2FAcuvpqg61DZgfX6aocRZPSAWjc%2FftG3n4Adpjo0nuq0GcW7CeYJ5L9inTTsgr6NkPeanXvPrSg3MXqEauz73wHDirI%2FpIY%2Fxm9qMtNWvqLPP44luq0GcHfIrHplBxMR9jYRfgWoX4nndea9QjVyf%2B2AEca6%2FqrXD8%2B%2BRVxyfZLGtfkWdfR5PdFsN4qwJ70GenAPunJh08vrvTE4%2FBnEiP%2FErVWkaWLardNnnqj%2BKy1e1YYqJLfrkDyvENNSQQnzVoGTd%2BvHyCjgfYLA%2Ba9TqzvvwyMj1uRO%2BWpztuWiO442P%2B4bjWLwjnwJnYSaP158r620mbCvyi%2BE575CIaGmrUv64dtA6%2Bzye6LYaxDlAB5lOBP%2BHGhjbMMxoUp9UdOKFcLuct5sTONzIWfHnFUrH4b86LEQgXD%2BVvNJqgBpv%2FnSht71gqe44L11vwsD1mYI%2BzXeKc%2BVcDMcrde66g286jupcDfF52QnL8ROyHra%2F4lzx2oz5Ehqf%2Bzq%2FIu8Qq72thrRHr7PP44luq0GcGb4qDJ16DdMwwsmjTtxgfDKpE0efRPqk0yeWDl%2Fzx1A8vuLNcazPJf86TpEPmzr5Fdzgzxfj07JUd%2FpKvGDg%2Blw6zd7IV4pz7Vy0x1FoOo5RBPGDNAnr392fvdTZ5%2FFEt9UgzoGlK0rGExO1LtiTyi7rMEaHr%2FkLZaCTUgro%2BSziE7U4Xl6a4krUXLnOqNUdp6vlM3J97oPhRs76OApbjmM6hnZ6OIfZPGR9Sx5M9Vx5gTjTUnNbnaVNWP%2B7rrPP44luq0GcNXSQ3XsxdGoUDYO2hiklUazaSWWX04k2JaOTNFzqNfhLZZiipA%2F9L8Xhq%2BFZnEpeccW9hxPKSXFyg%2BZ6slevtu6qo2Zm7PrcA98pzgl7LhbHRNF0HPkckHOd4%2FByLaznuRL9z9pMapT53Nc%2BC%2F%2BKlrZaTduyP3ups8%2FjiW6rQZwd5k8x2oZBhBM8TbPIyaFPHG85%2FKVGkdPJSUas%2BQurdCKmqZ3pQ%2F901RjSxfKFRhriUD4v%2FIEHnXfwXV56Z2LdcYMy9VWA%2Bvw0Xy3OidyO7fESGo9jcZ6kQD%2Bs57lC6WZthm%2FLiK%2BUh86vtt%2BJxbZaS9u4P%2Fuos8%2FjiW6rQZzfyUpjARtBfT7MCOIMwKfxRLfVIM7vBGLyWlCfDwNxBqA%2Fnui2GsQZgAGBOAPQH090Ww3iDMCAQJwB6I8nuq0GcZ7BTwBe5w8lMDqMl%2FkBhfB0sBCfLHQfzvAe6HDDAOgPxBmA%2Fnii22oQZ4u8VtAizqdTGUcE%2B1XiLOkLPwA8D8QZgP54ottqQ4tzfJUgrQTUawWeIOqwtMwvv0%2BP9pOwy%2BsAvF74eGLk3CLOB3itAOwHiDMA%2FfFEt9XGFOfw3txpLmb6ZfxGcb6pNPz1neonJ5fEOcSjC4Xw5Rx%2Bn4%2FKxhFTuH2XsXg3MF8Z7P%2BFfLAfIM4A9McT3VYbTJxJwMJn3rzPdJqX8VkYgwAas8KbBZgFX6%2BrOLy8Js5BkFOh7Jdyan5COuOTLjz2%2Bik7sB8gzgD0xxPdVhtLnMO0cymPGT1qZgpBTOiwvJxEXXy7cZgVcdZ5ybr9Gzemh87SyD8nKuHRdW1XAYA4A9AfT3RbDSPngBk1M1YwGR2mllkIw2ck2UElDq1QHur%2BNCPbi3iEDbfbmTRCLj4qz2DkDBqAOAPQH090Ww33nHndjpoZVxBVmF3WU81eHOJ6nj5Uz9wo39nH6hlZt3%2FDRh5t2w%2FIx2XccwatQJwB6I8nuq02pjgnNn%2F4XYd525nFOJQXj2pJUIPRCN6NJ%2Bs53P4YA4lwugeeLyrwtDbYAMQZgP54ottqQ4szAKMCcQagP57othrEGYABgTgD0B9PdFsN4gzAgECcAeiPJ7qtBnEGYEAgzgD0xxPdVoM4AzAgEGcA%2BuOJbqtBnAEYEIgzAP3xRLfVIM4ADAjEGYD%2BsMA%2BYxBnAAYD4gxAfzzB3WIQZwAGA%2BIM7v%2F9f8jw2aKeeIK7xSDOAAzGZ8WZBOG%2FqGv5v8b%2B6%2F%2Bl7WAZW38ksv%2BbNjXDPjgdjkVPPMHdYhBnAAbjM%2BKchOB%2F0ipz2NGbiFtafRX%2Fc24Qxq15O%2FX%2Bv5SHzQfHoqTpWCzjCe4WgzgDMBhvF%2Bd%2FUFfijfA8QWDh0KO4vP0aO8vgi406Tx1X%2B1nzwfnabZzmH2QsZKFTprjaRy4%2FxdejzX%2FwF%2B85LpUno9ZnflOY9u2VPfj14PwbxWhLvXc5FimeV99MzT%2BHH%2BJYLOMJ7haDOAMwGG8TZ%2BmU9ahNMxME27Fy5ysdMW9TvoIwqE43p2vwocVDOvrgQ%2BI58Hbp0GcCafNU6zO%2FS%2BVT8MjNrTuOz%2Fsupn0lFuu9kl%2B3Y0HbvPpe8n%2BYY7GMJ7hbDOIMwGDsVpxD58kdvbGQnjrS3CETRVrbAS%2F4KDpjgoWFtxUdfkI6ZbFHBUH7XSyfQvIuBJOpCIhmqd69%2FWR6HIu1%2Bq7598q4y2OxjCe4WwziDMBgvE2chTCycgTFEwRPOAKNgrDmY0ksZh23iltsf1IQquUjRAh6TWvbOhd6HIst9a3x6myXx2IZT3C3GMQZgMF4uzgHuBNNHbMwEwruSHVHq6FtuiNdFIQFH3oEpDv9tY6b88vrVhDMOset%2BV0qH4vBqhDYvNfg%2BFLvC2m7HYtKfS%2F5P8yxWMYT3C0GcQZgMD4jzg4zQSBCB05dTzbVmTcJArHkg5fDiDKZXCzMOm4idOwp3j8onc0%2FhKcOXEZZIYx9pTw9v9XytWDFaANeWYQux2Khvpmaf6%2BcuzwWy3iCu8W%2BV5yv5%2FvPz%2Bl%2BMedbM7fL%2FXS6cFPYDqf9%2BaH8xU7383Xd0%2FV8CvHP6Rz7PLf79XJ9rA7AbtmNOL8dLRwDwiKmxbE7Y9e3J7hb7GvFmYXufD7fT4%2Bq87PirNPervfL6WelLNf7%2BefMp%2FN63rJdx3umvDXoAufh%2BgO7BeI8ItSOZQT5NiDOz9jXiPPtcr7TIC9xIzFkoSPBe1SwnhE7L%2B2av0fy6yHIGalD4nq5nzGC%2FhrGFWcA3ocnuFvs%2BOJMo9LziUbJWjxYtMLcMAtMmtoOQkYCnqaO41RziB1HiMUUNIVp4aPlM418w3YRLKYIJ78q%2Flw0y5Gx9nfhfcj5UxxJH%2F46ZU7hkw%2BJu1Demq8axaiZp7dpPZQ1BYHDAnEGoD%2Be4G6xA4szCQYJzel8ITFLQYnbZRIeXg4iw%2BKk7%2F2y%2BMwElBCRy2LHAs%2F3gWNM9vcTFbIIz%2BnsckYuFNQFQwi2%2BZkwr8xLaUI%2BTnlrvuKagX2oixCBp%2BdDnWMUfWQgzgD0xxPcLXZccWZxcYd%2BUZzi6FBGj0bIGCNsPPp249fS1cLtciaNnHmbLlswEuurk76Wh7e9NU0K9suYKEbNc%2FTFDzgeEGcA%2BuMJ7hb7vpEzi06hHGmkqsWPyeLEosnb0xYrZlbE1sLtsqDTyfS2xktv%2FdjwR9Kk4CK%2FgsqomcHI%2BSuAOAPQH09wt9iBxTlh7jnnaWxFCOMnt11xiiNaScIPlpUj7co0sQkvpolnQhif1o7XDCndlGGMq9N4YYwN99KIf1vemq%2B0mnFHzbjn%2FE1AnAHojye4W%2Bz44pyIT2uzMKn7uQILkUxXpyAtTpxWpppPPL3N4Vq8aLl4%2BIrDGPEbwlM6Gx5M3etlwgWFpEuCZ%2FILyzqMmYVH0S8eIkvxZuWt%2BUqrEa4%2FZ9SMp7W%2FCogzAP3xBHeLfY04f5objTjjiBqAfQNxBqA%2FnuBuMYjzE8gXvYoRMAA7B%2BIMQH88wd1iEGcABgPiDEB%2FPMHdYhBnAAYD4gxAfzzB3WKDijM%2FfXydP3DFuA9KPcCr%2FADwYo4nzo3tlZf5FlPx7Ed8e8F%2FMDJ9eyAsC14YANvxBHeLjSnO8rrQWmN%2Fhlf5AeDFHE6cW9trWD6VcTis%2BtbCA%2BIs6Qs%2FAMzxBHeLfb04lz%2BIwajXhbwG9qpGt9UPXlcCb2LP4vxUe03L%2FKGc%2FHAmC7v%2BxkHh44mRc0v7RpseGk9wt9j3irP5OElGf2SjobHP3kdm2Ic8pR3eYU7hKn5%2BX9qEl%2B81n%2B%2Fn8MQ3dwb40Ad4D7sU5xe117Cs0vAbFe6ncePWujin9tn0ozMhWMXLDRhtemQ8wd1iXyjO1CCoQXk%2FiMHbio9scEMLDcpYaHAcV12BF41akcPjva38ZS7qIBb9hLy54zAe%2BWtiofy44gZ92Jc4v6q9pu3StkIYC75eV3F4WYQ4LAtKnPXHg1jwta%2Ban5DO%2BESbHhJPcLfY94kzN6LigRCFvgpnigaW0I1v1hEkkaVt1R%2FKiF7W%2FdhvfRv4Sry2GwA8w67E%2BVXttVhOoi6%2B3TjMijjrvGTd%2Fo0bw4U5fyUwjPxzohK06bHwBHeLDTRyNlfhjG2AjG58s4bLcONVI163sRJrfmx8AVfZoDPHGDlvbK9mmYWQby0FMazEoRXKQ81qMbK9iEfYcLudSW033qZSoE0PiSe4W%2BwLxTlBDaK4h2Wvwhm3gUlYvBqe%2FUBFEOfpHlL%2BoQyJn3qYcA9qyc8sb%2FKM%2B1PgDexLnBNPt1dnWUSyFoe4nqc2y9wo38UfirF%2Fw8Z0wR4zUIKPNj0ynuBuse8V58T0gxiNo1cdFjqMNBWtGpj7QxlxwxTOV8pLfmzeeLITvIldinPiufbqbGcW41Beoa0moxG8G0%2FWcziNhkObjuUs%2BgTpKNCmh8YT3C329eIMACjZszgD8C14grvFIM4ADAbEGYD%2BeIK7xSDOAAwGxBmA%2FniCu8UgzgAMBsQZgP54grvFIM4ADMahxJmfns5PQj%2FA7AGwDXDa9JBXNH41a90TvxrG8ffzTjM%2FNY4H096NJ7hbDOIMwGAcSZxZ6M78bexH1flZcS6e2I5PaC%2BXJb5qGXR5LW%2FZruM9U94a3mtpoDue4G4xiDMAg7FncY6vUqUVkqj4ShW%2FivigYD0jdl7aNX%2BP5NdDkDPqtTS82vVWPMHdYhBnAAZjl%2BJsP0LCsGjFT3yRwKSp7SBkJOBp6jhONYfYcYRYTEFTmBY%2BWtbfG5iuAXS4%2BW7BTDTLkXH5%2FQLeltY5jqQPf50yp%2FDJh8RdKG%2FNV41i1IyPorwTT3C3GMQZgMHYlziTYJDQeD98ob9FHT7HyYrC4qTv%2FbL4zASUEJHLYscCb77gFxWyCM%2Fp7HJGLhTUBUMItvmZMK%2FMS2lCPk55a77imoF9qIsQgafnQ51jFN0TT3C3GMQZgMHYlTizuLhDvyhOcXQoo0cjZIwRtuoP0tTS1cLtciaNnHmbLlswEmvv5ylreXjbW9OkYL%2BMiWLUPEdf%2FIDX4wnuFoM4AzAYhxg5s%2BgUypFGqvbX3LI4sWjy9rTFipkVsbVwuyzodDK9rfHSWz82%2FJE0KbjIr6AyamYwcn4LnuBuMYgzAIOxL3FOmHvOeRpbEcL4yW1XnOKIVpLwg2XlSLsyTWzCi2nimRDGp7XjNUNKN2UY4%2Bo0Xhhjw7004t%2BWt%2BYrrWbcUTPuOb8TT3C3GMQZgMHYpTgnph%2B%2BUPdzBRYima5OQVqcih%2Bf4OltDtfiRcvFw1ccxojfEJ7S2fBg6l4vEy4oJF0SPJNfWNZhzCxc%2FYiGST8rb81XWo1w%2FTmjZjyt%2FVY8wd1iEGcABmPP4vxpbjTijCNqAJ7DE9wtBnEGYDAgziXyRa9iBAzAk3iCu8UgzgAMBsQZgP54grvFIM4ADAbEGYD%2BeIK7xSDOAAzGfsWZnya%2Bzh%2BgYtwHnx7gVX4AWMET3C0GcQZgMHYrzvL6D8QZfAGe4G4xiDMAg7EHcS5%2F4IJRr%2F%2FsSZzx%2BhF4EE9wtxjEGYDB%2BKg4m4%2BNZPRHM9bEmZZn7xcz7EOeug7vJKdwFT%2B%2F%2F2zCy%2FeUz%2FdzeIKbLxbw4Q7wGJ7gbjGIMwCD8RlxJpHzPtMZMB%2FNYIHMIqssiKr5QEkQU2cknMM5vvrSFr%2FHvOQn5K0%2BAyrgk5dgI57gbjGIMwCD8RFx5lFt7eMeetTMeIJbiKcV7iSytK36wxfRy7of%2B%2B1uA34sArTiCe4WgzgDMBj7GjmbUTNjBZUpRNX5NCWFLP7wRQxd92PjCxg5g414grvFIM4ADMZnxDlh7znbUTPjCWQOS9PUkiaHV374QuLLtDb%2FgMSSn1neuOcMHsMT3C0GcQZgMD4qzonpBy4aR686zPvBCQ5mEU1T1PbBrxzOo98lPzZvPK0NHsQT3C0GcQZgMPYgzgB8O57gbjGIMwCDAXEGoD%2Be4G4xiDMAgwFxBqA%2FnuBuMYgzAIMBcQagP57gbjGIMwCDAXEGoD%2Be4G4xiDMAgwFxBqA%2FnuBuMYgzAIMBcQagP57gbjGIMwCDAXEGoD%2Be4G4xiDMAgwFxBqA%2FnuBuMYgzAIMBcQagP57gbjGIMwCDAXEGoD%2Be4G4xiDMAgwFxBqA%2FVmx%2F%2Ffo1C1sKhzgDMBgQZwD6Y8WWRdgKsRcmBnEGYDAgzgD0x4qtCLGIsV23BnEGYDAgzgD0xxNcLchLwswGcQZgMCDOAPTHE1y2FmFmgzgDMBgQZwD64wmu2Jows0GcARgMiDMA%2FfEEd4tBnAEYDIgzAP3xBHeLQZwBGAyIMwD98QR3i0GcARgMiDMA%2FfEEd4tBnAEYDIgzAP3xBHeLHU6cucAwGOw5eyVolzBYH6uxO3EGAAAARgfiDAAAAOwMiDMAAACwK%2B73%2Fw9IsknvHsBweAAAAABJRU5ErkJggg%3D%3D%3B%22%20vertex%3D%221%22%20parent%3D%221%22%3E%3CmxGeometry%20x%3D%22559%22%20y%3D%22316%22%20width%3D%22285.92%22%20height%3D%22155%22%20as%3D%22geometry%22%2F%3E%3C%2FmxCell%3E%3C%2Froot%3E%3C%2FmxGraphModel%3E&lt;/span&gt;&lt;b&gt;&lt;br&gt;&lt;br&gt;&lt;br&gt;&lt;br&gt;&lt;br&gt;&lt;br&gt;&lt;br&gt;&lt;/b&gt;" style="rounded=0;whiteSpace=wrap;html=1;fillColor=#ffe6cc;strokeColor=#d79b00;" vertex="1" parent="1">
          <mxGeometry x="831" y="413" width="259" height="176" as="geometry"/>
        </mxCell>
        <mxCell id="IiBEUlHa28SNpaY48bWn-37" value="" style="shape=image;imageAspect=0;aspect=fixed;verticalLabelPosition=bottom;verticalAlign=top;image=data:image/png,iVBORw0KGgoAAAANSUhEUgAAAecAAAEICAYAAABlHzwDAAAAAXNSR0IArs4c6QAAAARnQU1BAACxjwv8YQUAAAAJcEhZcwAADsMAAA7DAcdvqGQAADD1SURBVHhe7Z09sus4sq33pMrQG82xFNGzeNZx9bzrtl/RrgZw/S7zRnTIbPM6PQO9TAAJJpIJEpQEiRTWV5VnkyCQAEECiwB/9POf//znDoPBYDAYbD8GcYbBYDAYbGcGcYbBYDAYbGcGcYbBYDAYbGcGcd6B/etf/4LtyLxjBIPBYO80iPMOjAUB7AOIMwwG24P96BED7HMG9gEfC6+hwGAw2DstiLO3AfY+gzjvB7QHGAy2B4M478AgzvsB7QEGg+3BIM47sBZxvl3O99PPz/2H7XS6n6+3tKWR2+V+Ol3uW1I9necBQXuAwWB7MIjzDmxNnG+XE4nj5Z618Xa9n39O98s2pd0kzi/J81U8cGHxKGgPMBhsD1YX579+3//44/f9L1mWEVS2P+6//lRxZ9v+mvuT7X/8cf8taY399ftXEW/m5wttTZwvNGp9WhQ3CdztNXkeEIgzDAbbg7WLsywn++tPEtHa9r/+vP/+4+f+x28R1j/vv0iwf/8l21mof93/lPjJ/vr9Bwny7/ufOZ5J905z9rmXrYlzTVTD6PZ8TWv3+/X8cw+rPMo9pQscGu2G6WgtzrSct5/OcxFeE3KTPpQgpDnfz2cqE4WfLtf7JSzr/Gm7Tcdc1fR5iE9hxh+P4rk8YZ8lnhR8oTyxDMrvChBnGAy2B3tYnKPgJoH1tq+mt/YXCfqHhPjD9qg4BwH6EZHjaWde5lEviXQWrjQdfWWxYj9mVBxEzPj3wjLJf5rvzhcIoSzJr11mXyFsuhCwFxaZIj6XmxJIWN7HFE/vb6U8+T45XwBU92kC4gyDwfZgfUbOwZR4B+H9uf/6/ef9r5r4rgk4bf9FPsIo6A99UfDr/usXjbgp/A/y/zssp+lw2W7TsXH5w4iKLU3RG388iufyhBG9xJPZgIXyxDIov5JnxR4WZyKPlkl8sih58SU8iFYqdzYl1kzNB2O3ab8S7i3X0qXlM10w5PLY+Hk5CnF4OI1G5jfeWPNbC0+rNSDOMBhsD/b4PWcWJD1NPRNWMxLmqW4lWrMRsutDLIl7uv8cxPLXn6lcyZddZl8hjMQy5ZXTFb5tfPKRhZ3LY2YIwvJyefJ9cn0Bs2Br4rx4/zeJ8vVsRqpx64QWrTzarmFG15qa6Olwb7mWLoyG0whZh3s+QgTiJlPmtB81v7XwtFoD4gyDwfZgj42cwz1lNSq024PpkXNpPOqWUWkOd31Utsm6DveWa+nS8i/ah+liw8TPy1GIw8NpMvKv+a2Fy3rF1sQ5TNWSsIh+lU9O03IYTYrwpGleUVZ3Wltv90WrnufCNLL48Zb5rzutzX51OF1sSPyZP73fcgHRUB7GrleAOMNgsD3Y4/ecWWBlFOptXxQmT7jNSFub9SXrOtxbrqUL+acRcou/sC4jf54xqPithct6xdbEmSneOSaByvdSCZ7aPom6MSykLNg6biF2ajs/NFVRrGqe5GtKbwW0shz+kg+bLkSZ8uE4dXE2cSdFXy4PY9crQJxhMNgerM8DYelpbRlZx2nfabs7cuZwjkfh86e1F6aRvTLKMv+lMs6ntWPZp/BUHteflIHjygVEQ3kKH2m9Yi3iXIeFdm2aegc0iuOngTjDYLA92BPirEa6vD2NZqKp+64p7p/5fjOZvl9trHjPWfuhPKYHsJxyecvhL/mw6ch0PhynLs4mrvtA2DyNxCnWK/awOPP9Zsq/GDXvFYgzDAaDNVtdnL/BGsXx0/awOIOXA3GGwWB7MIjzDgzivB8gzjAYbA/23eJ8EIM47we0BxgMtgeDOO/AIM77Ae0BBoPtwYI4wz5vYB94xwYGg8HebT+pTwIAAADAToA4AwAAADsD4gwAAADsDIgzAAAAsDN2J85///vfYTDYC+yVeP5hMNjzVmOX4vy3v/0NBoM9Yf/+979Ti3oNaJcw2OttqZ3uVpwBAI/TS5wBABPe+8lbDOIMwGBAnAHojye4WwziDMBgQJwB6I8nuFvs2OLMPzWYfq7x53S6X17xw8UH+flCAB6lrzhf7+cf+xviZdjtci7a7fmaWptuz2Hb+X6EXzwFwMMT3C12YHHmBk+CLI03NGzqAJ4V17X0EG9wcD4pzrfLiUT3Qu00brnfVDuWNhy3UDK0NXBcPMHdYscV514iCXEGX87nxPl2v/AMV63xWHF2fQFwDDzB3WIHHjlzQ/+5ny/U5HVjF/EMf8/385mu1H9+7ieKdwnLaRrNimyRLoVf1fRbSsd5xim3FIfin3NY6kiKvNG5gH3xMXG2bc7C23VajJzBgfEEV+zXr19uuLYDizNxE8GN4pmnxkRki+kyZ7tu+LVwwd2eLhDSHF2YsjtT18JxOL88dwfAfti3OKcL3dSmuTkBcEQ8wWVjYRbztosdW5wVNxrlhtGsJ6Lesg5jKunOJxF/Mmf7qg8AdsZhRs52HYAD4QmuFuY1gf4acZ51ALoj8JZ1GDMLZ39q9OulW/UBwP7oK87OfeXcHrbec16JD8COsWJrBdmuWzusOMcp5EkAN4+ck5hLw+f0ZTqz/WL8x9D6tHaOA8C+6CvOdJl8ntoEE9pmmp/e9LS2XQfgQFix9YT4K8WZWi51AnrKmUfNHJyEUQtkZTl0FHJv62zFmbdPD4SdeHo7hF+DIOcHvSj+9EDYPA8A9kZvcaYGEJ4F4TYTTF1EM8V7zuG+ctrK7SaHy7a4CYCjYcW2JsJfKM4AgEfoL84AAE9wtxjEGYDBgDgD0B9PcLcYxBmAwYA4A9AfT3C3GMQZgMGAOAPQH09wtxjEGYDBgDgD0B9PcLcYxBmAwYA4A9Cff/7znw8bxBmAAYE4A9AfT3RbDeIMwIBAnAHojye6rQZxBmBAIM4A9McT3VaDOAMwIBBnAPrjiW6rQZwBGBCIMwD98US31SDOAAwIxBmA/nii22oQZwAGBOIMQH880W01iDMAAwJxBqA/nui2GsQZgAGBOAPQH090Ww3iDMCAQJwB6I8nuq0GcQZzbjf+H3wxEOcDgnZ5ODzRbbUvFefb/Xo+3X9+foKdLg+e0bfL/XS6kLeDcT3ff85XWrjdL6fTvdh92qfzz/nOWz1ivZ3uJ6634CME1v29m57H5MH9lHNNqmuGV+eUF9dxOD8X6/lF57LhM+KMdvm17RK4eKLbat8pzuGklcbLJ+5Cx7nEOzqBHnkUjVYafKyH2DFWOoGiLKrBu/4+hJTxbfXmUOR9XehUa3XOaeScpDjntOzl/6pz2fARcX7VvvQ49pa3nV+xHg7fLoGLJ7qt9lXifLuc7xfnDL1d6IrzkcvKd3QCPaByn9P+Xs+20S6ISW7skauIxqK/N9PzmLTupy5DU3lMnXM9e2ka8s/n8pXjXh+uh3eKM9plYvH4HrxdAhdPdFvtO8T5Ric2XU36nVW6QqeTN3eI3Li5IYRGfqZtcartROkvafrofKWYbifAjUhNIYmvtHyWq2DyG+IUeVAYdUjxKpnLa/Iw6cUnp4/lSumeaoX1TsB2ls2d58J+u+UOxyvFl7oO4c7+Myr8RMc5HMfgX/7W8tH+Urq0qQnJI63KPmmfMjVdHfUEyjrnetWdbTvpXA5Jb6TP57jvm3Yq8hZxRrvcQId2CT6OJ7qtdnBxjvewTucLNegUZOCrTOkIeTk0dO4wOIgbmDRou8wNU/5yYkX0E0OnjlZNNzHaB/sNBVQNMIRLR8R5SMdr/Kb0WcDoKjqXia+oQ8cw2XoH8epOYHm/5+VO+ykJuAMP9V7Zf1svMupszUfCJT4vt9abTsPoPCXcxnEp6zzUK4lSvuBYP2gBfS5nqP5YINjHchlK+ooz2mXT+VXw6nYJ9oAnuq12bHHmBrF01nMjKRoxNwDVweUGWFnWYZocrho+h5kGyVfTl6v2ERs6j7jCaELSeXmthafV7by4E+DyrO43Udsfobafa+Fb06XVJlp8mzhBdLgOivNyLs6b773OzuUS9rkuABNdxRnt8gEgzt+IJ7qt9tUj59lJzA2IG6c0It2gvOVqg5PGb9J4jcvzkUY7YSq0ltdaOC9zJ2c6nvUOut4JBH/KAQvNqj8uT8t+1/ZHaI1vw7em4+XWemvxbeO4mDpn8drY2VbjHHDkjHbp8eJ2CXaBJ7qtNsA9ZyE2XJ6GCh0Hdw66QXnLtgEqQgdD/qZOJl59T9O1ng9ugOmKPsTXV/ApvTd9psuwUKY2FjqBwrd0dGFlgZb9JvK6jS91Utl/ia/Dtf+1fEQdWBB1vCZiXU1FTT50njZ/F1vnaT06SOUMGzZA5/Gh7zkLvP9ol/NzRFH4TuV7PCPwRjzRbbXvEOeEfSo0NNR0Fk+dPZMao57a0g1AlpcaHG/LDToROqN0tVw8eDL54DLKNJvXEU3pTVl4mbHrm7GdQLnOHSRP+3EZW++Ftux3uZ8qPuWVBdTbf4bThrhcJu58aZv4W8xnSvfQA2FEOG+CDyrnWQSe749yGAusyd/F1jnBQp/3ab2e9bkcoHN3WfSWeYs4J9AuW7DnSLn+ULsEH8cT3Vb7KnEGL4JGseG+2xfBo95JBMA7xRm8iC9sl9+OJ7qtBnEGX0scbZgREwhAnAHojye6rQZxBmBAIM4A9McT3VaDOAMwIBBnAPrjiW6rQZwBGJCvEeenH8RaID+nsO0JabmdUn3EgR8wa3lA0M0/PtUut2uKhwTB7vBEt9UgzgAMyNeJcw+RLsTRiKmmyNt5Mj8TX8uKwmqfzBYxpzjyHrOXfwiTvKK/mA7sEU90Ww3iDMCAYOTcAI9w08j0238IBfTBE91WgzgDMCBdxZlFxX2vmJbzlCy/3x6jt733rsRJheOHUKYR9zMfpQF98ES31SDOAAxIP3FmwVD3Z7VoauGl0WIUuiQwkoCFmuLhh1DWCd9xt3Gp/h75nCvogye6rQZxBmBAuokzi5MROh69lj80QXjCprHhtfg2fGu6tNpEi28T5yg/hAL64Iluq0GcARiQvuLsTOm2CJumNb4N35qOlz88cub89VPXYSS9MjddjYOR867wRLfVIM4ADEg3cSZJKKepHQFj8rqNv3Fam8O1/7V8ZtPdW4iiOhU1+dB52vxdjDjLenSQyhk2bAD3nPeIJ7qtBnEGYED6iTOhH/ASsaiKJi+r+Pp+McWZ/Ji0aYSLH0JJ4GntXeKJbqtBnAEYkK7ifAB41PvYE9IAtOOJbqtBnAEYkBHFGT+EAt6NJ7qtBnEGYEBGHzkD8A480W01iDMAAwJxBqA/nui22veKs3n445JuL+X3Dq3x/SedRll8SNTbpt4ltA+CVPJnbvxUpdqWH4BpxeYFwEYgzgD0xxPdVvtSceanIfl1jLQahNI8Hek9Mbkkes42fqgkhxXb6/nLqx9Zj/OrI2m9haVyAtAAxBmA/nii22pfJc48Ig0j1Cbxel6cCx96e9UPv8O4UYg9WvYPr1aABSDOAPTHE91W+w5xDu9JnpQYpRf5eb2qTs+Lc33kXMl/wf/0kYUIT7/H6XTetzQFHqbRKbX2Q8uzd0oD+CgBqANxBqA/nui22sHFOf7w+OmspokFEjX9yzRzgaqIs9wLzqZGxnYbCd80PW2E18vfxtEE/1IeKZuIfEohU+D5O8VmJO75T+XA5/yABuIMQH880W21Y4szj1zVaLMGj3DnXwN6cuTMohce5pL1etqc/5J/Io+WOT4v1OJLOP+1FwyV+9c8Mm+oKjAIEGcA+uOJbqt978i5wBHiZ8WZERFlltLmvFbuOSd/vE+LI20J57+z/TJg5AwcIM4A9McT3Vb7ynvO8f7tJGpdRs4B5UNtX8p/+Wlt3g8a/eZ8Wqa19XZdRtxzBnUgzgD0xxPdVvsOcU7kp7VZmPL9XhY7EtCZQFXEuZgijhY+MO+KsxoJW2FcyL94z5nEVr/nzFPbxQftw4WHiavz0tu1EONpbbAAxBmA/nii22pfJc7Hh4XWXDAA0AGIMwD98US31SDOe4Gnvmn0u/Yj6wC8AogzAP3xRLfVIM4ADAjEGYD+eKLbahBnAAYE4gxAfzzRbbWxxHn2wFf5MNa7WPzxjd7oOuCH2Z7J0n1Irif8BPrVeb97wOP4JB8T58r5t1iXs+MdLVSzu43Ph+h3do5W8mfwgzTg1Xii22rjiXPRUPlDIg/e531JQ3SeGO8K55eeLmdCR8VPkm/cF4lv/6bN3bhS58mFt/kNdxyf5zPiXDn/0mrEqculY+Rsu/F5ImHF9nr+y684NrJUTjAknui22hDivPiDGB9tUJ069dprVLV9fbQOOtbd9FqcwK+tpboa/Ti+gHeK82L7m/G8OBc+9Paqn5WPA7XSsn94xXEoPNFtte8W5/AO8GlqDA0Nef7OMG9fGW3qd40pbp4Oc/1pVN5E/HjJ1C2Fz3leOJ9z4SfHqPqvfYBEPlrCU8MpKIVFH1MnNvMb9pfKIe9vc1ypA/lL0crpyYV6LfzpfTLHTJBRM6PymxjpOD7PW8R5diy9889S1mVAHyOLs+1WHTlX8l/w7x5LXvXOFe2Hlt99TMH+8ES31b5UnONHQGaf9XQboVw1y18JnuJygxRhyI01b5cGnxJyow0iUPc3YToijpPX07YUlt3nzqLBP5Vl9unOFCadSkhfpK34DeWgcN0J2b8pCbNaTu0vbvCPWYB9mHoy+U351Ovlq47jk/QV54Vj6Z1/BaYumVB3SeiypTjeNj5XavW5ev4bgn9zLCmme64UX+57/zEF+8MT3Vb7TnHmK+fQ8RncRqg7T9PIZ41XNToJc30SS/4y844oX5nTPpTikdD5rvqPsBC41cF52H2o+c0dT4qj0+n0TPCR9qvFH1M7Zgxv0ztm8wuMexwfoas4Lx1LRT7/0npkXpezutPM6pVEj45tzn4hrXv+O6weS0HC+e8HjinYH57othpGzkWDMp1CRjpzlV6nsz6ZRX+C0xGlDoDLXwpKQue75n/16lwJmt4vz6+NI2XQf2NEqqvUmYXVBn+B2miL/Zn0s7SELku1Xr71OG7nYyPnAqfevLDasWG8bSKizFLanJe6WPNYO5aChPPfDxxTsD880W21se85h6tsEZIkKtJCTVy+wj2Rr/l9T5uOGzw34mV/kUrnROn0/V9u6JMbPR1a80+do3NfK6ZV+8SdDqcxaV2/Oo4NU9um8gkN/jT2mFEZi1EzY9MOdhxfQV9xTphjWT3/0nrEqUu3zhNrx0NtX8o/bKPlaTqcfYhgm2NJ/7rnSjGt/f5jCvaHJ7qt9t3inCieFjVTTcW7jKEzSdts4wlppbGmdWlwOp32ueQvwI16foWt743GfMhn9iONnKj5rz4RGkc0sZwxTSxqFLfpPp7jt9jftGz/0n/Rj1iqrzV/DvGYsb95/YS0OY+Yz1jH8XneIs6J6cn72vmncepydryjhbrVxy/D542ce3r7cv5czimf8pwqjiXjnSu1c+lNxxTsD090W20IcT4W3KhV5+R2PmD/7Ps4vlOcj485lgA04oluq0Gc9wRPs9GVdnmFDnE+HAc4jhDnRrxjCUAjnui2GsQZgAGBOAPQH090Ww3iDMCAQJwB6I8nuq0GcQZgQHYlzjzlHx6sMg9YvRl+6Gsqg7Li7YNO6Drgh9meyfLtt1D4CfRrfDBU19uIx9HgiW6rQZwBGJDdibMWk1t8e+Ch+7wvEaar+/R9Pzg/8wYB5791XyS+/Zs2d+OaXne0+Q13HOd4ottqEGcABmQP4rz4gxjvEhaXTp167TWq2r4+Wgcd6256LU5QrzuOfhwdPNFtNYgzAAPyUXEO7wCfpg7O7cBVx0rb5+8M8/aV0ab3LnII9/xpyk59+mBMhKdN8YM0CRk1Myq/iZGO4xxPdFsN4gzAgHxGnONHQJo+q0tr8UMi6oMiIXiKy52rCEPuePN2EbyUkDv4IAJ1fxNlpx7i5PW0LYVl97njb/BPZZl9ujOFiQCF9EXait9QDgrnCtVh+m9KwqyWU/uLG/xjFmAfpp5MflM+9Xr5quNo8ES31SDOAAzIR8SZR1mh4zMsdayh80yjl2yp08zpVEcqYa5PYslfxnTqRBhlcQC/91yIR0Lnu+o/wkLgVgfnYfeh5vdq4uh0Oj0TfKT9avHH1I4Zo0fNjM0vMO5xZDzRbTWIMwADsvuRc9FJlh3shHTmKr1OZ30yi/6EeacunTmXvxSUhM53zf/qiEsJmt4vz6+NI2XQf2NEqqskTGG1wV+gNnJmfyb9LC2hy1Ktl289jhBnAMBGPiPOCZ6apM64es+ZO70sJElUZMhi4vKoBT9Ik+LYMLVtKp/Q4E9jj5kdNTM27WDH0cMT3VaDOAMwIB8V50TxtLaZPizejw3CkLbZDjGkTaMgWc8dr0qnfS75C3idOuuRei0o5EM+sx8lDDX/1ad84+g0ljOmiUWN4oYfpFHpdn0c53ii22oQZwAGZA/ifCy4o1Yd/YqIgb3y3uPoiW6rQZwBGBCI8wZ4mplGT8U0LsT5eHzgOHqi22oQZwAGBOIMQH880W01iDMAAwJxBqA/nui22lji7E1hvGpaA9Nc4EBAnAHojye6rQZxhjiDAYE4A9AfT3RbbQhxfssH9rf62fA4PgCvBuIMQH880W217xbn8J7aaRLBNXGmZf+9trN6f4/fs0vhKj6/K6dfbJ/5CfnoD8q3v8gOwKuBOAPQH090W+1LxbnyyTkWyCyyyoKo8ov1lZfgNTk8fUEmZXCTr/rU/IS8KbwoEEEXEGufgAPg1UCcAeiPJ7qt9p3izCPd4lN1CU9wC/G0wi1f0uGRsP6CT4qvfa35sR+UN/Bn47wiA9ADiDMA/fFEt9XGGzlbgSxE1fkkHX9RRo94dXzta82PjS9g5Aw+AMQZgP54ottquOecw9I0tcxH53AW5+m+MD9cNk1fq2lt/mD6kp9Z3rjnDD4HxBmA/nii22rfLc6J5qe1Kx865/QyVW0f/MrhPPpd8mPzxtPa4INAnAHojye6rTaEOAMASiDOAPTHE91WgzgDMCAQZwD644luq0GcARgQiDMA/fFEt9UgzgAMCMQZgP54ottqEOdXoh4Qi3acd5evZ11uZd12gJ9WvzrvheN973ewK3G2D0syXtgjvMoPAA/giW6rQZxfie0IDtkxxFfHuusjfyiGH2P/ijo7HhBnAPrjiW6rQZxfQP1VrTcJ3RZWX+F6fZlz/WT4XfCUx1fU2fHYgzg3v+L4DFv94BVH8EI80W01iPMzrHzk5MajQ14P4epHL2jdf59aPhHKPmPgLMx2NrLemAcloP5n6eMnjjgaX5OoSn4xfPpRj4StH0FGzYyUP64dtM6Ox0fFedPHgeKye1z4XAnHmY38yYmn4uMHacAn8US31SDOD0ENmBrz6g9r6A6AOo/4CdDKD2NoUQzxedkJy/ETsh62r+WhoA7S/2yoFWfnS2jcC+r8irxDLL9+AmrUzIS0R6+z4/EZcW5sN/lc4PpvOC5MDjfnKwn4op+Qt5wDii861uBzeKLbahDnR+Ar9nyZrljtONLyrCPiTiN2Kj/UgYQRRYw8D7N5yHpTHiFFAYttuStGnFvz03Fq9cPwNl0Qm1aw/t392UudHY+PiPOWdqOPUe240Db8IA3YM57othrE+SEWRgBeQ9fhoZNQ4mdJV+x2ejiH2TxkfUseTOvIuTU/HYeW/JEzC6cp1yxtwvrfdZ0dj92NnO05oI+Re1z4PGVxTal0fO1rzY+NL3zRsQafwxPdVoM4PwM14NV7Z0wRHkd2sx/GkM4mOqI4vFwLm+6H3Xg0Ip3Pah5hZeM95+QrdYLFtLb4LPwrbP3YUTNTTduyP3ups+PxGXFO2PPCOwdy2NKxV8eUjs80fW3O1yU/s7y/71iDz+GJbqtBnF/A4lOnjA0PnVOaWlOdAPuRqTcRMT+MR4RxWu589oSGqORBPc/UKbrETq8YYZDvyVfKQ+dX2+9ErB/uHLeMXI5UZ8fjo+KciOdFWJifAzqs5diT2BfnpoTz6HfJj80bT2uDF+KJbqtBnAEYkD2IMwDfjie6rQZxBmBAIM4A9McT3VaDOAMwIBBnAPrjiW6rQZwBGBCIMwD98US31SDOC7z/xyD2i374JrxDXLwLswY/Acuvpqg61DZgfX6aocRZPSAWjc/ftG3n4Adpjo0nuq0GcW7CeYJ5L9inTTsgr6NkPeanXvPrSg3MXqEauz73wHDirI/pIY/xm9qMtNWvqLPP44luq0GcHfIrHplBxMR9jYRfgWoX4nndea9QjVyf+2AEca6/qrXD8++RVxyfZLGtfkWdfR5PdFsN4qwJ70GenAPunJh08vrvTE4/BnEiP/ErVWkaWLardNnnqj+Ky1e1YYqJLfrkDyvENNSQQnzVoGTd+vHyCjgfYLA+a9TqzvvwyMj1uRO+WpztuWiO442P+4bjWLwjnwJnYSaP158r620mbCvyi+E575CIaGmrUv64dtA6+zye6LYaxDlAB5lOBP+HGhjbMMxoUp9UdOKFcLuct5sTONzIWfHnFUrH4b86LEQgXD+VvNJqgBpv/nSht71gqe44L11vwsD1mYI+zXeKc+VcDMcrde66g286jupcDfF52QnL8ROyHra/4lzx2oz5Ehqf+zq/Iu8Qq72thrRHr7PP44luq0GcGb4qDJ16DdMwwsmjTtxgfDKpE0efRPqk0yeWDl/zx1A8vuLNcazPJf86TpEPmzr5Fdzgzxfj07JUd/pKvGDg+lw6zd7IV4pz7Vy0x1FoOo5RBPGDNAnr392fvdTZ5/FEt9UgzoGlK0rGExO1LtiTyi7rMEaHr/kLZaCTUgro+SziE7U4Xl6a4krUXLnOqNUdp6vlM3J97oPhRs76OApbjmM6hnZ6OIfZPGR9Sx5M9Vx5gTjTUnNbnaVNWP+7rrPP44luq0GcNXSQ3XsxdGoUDYO2hiklUazaSWWX04k2JaOTNFzqNfhLZZiipA/9L8Xhq+FZnEpeccW9hxPKSXFyg+Z6slevtu6qo2Zm7PrcA98pzgl7LhbHRNF0HPkckHOd4/ByLaznuRL9z9pMapT53Nc+C/+KlrZaTduyP3ups8/jiW6rQZwd5k8x2oZBhBM8TbPIyaFPHG85/KVGkdPJSUas+QurdCKmqZ3pQ/901RjSxfKFRhriUD4v/IEHnXfwXV56Z2LdcYMy9VWA+vw0Xy3OidyO7fESGo9jcZ6kQD+s57lC6WZthm/LiK+Uh86vtt+JxbZaS9u4P/uos8/jiW6rQZzfyUpjARtBfT7MCOIMwKfxRLfVIM7vBGLyWlCfDwNxBqA/nui2GsQZgAGBOAPQH090Ww3iDMCAQJwB6I8nuq0GcZ7BTwBe5w8lMDqMl/kBhfB0sBCfLHQfzvAe6HDDAOgPxBmA/nii22oQZ4u8VtAizqdTGUcE+1XiLOkLPwA8D8QZgP54ottqQ4tzfJUgrQTUawWeIOqwtMwvv0+P9pOwy+sAvF74eGLk3CLOB3itAOwHiDMA/fFEt9XGFOfw3txpLmb6ZfxGcb6pNPz1neonJ5fEOcSjC4Xw5Rx+n4/KxhFTuH2XsXg3MF8Z7P+FfLAfIM4A9McT3VYbTJxJwMJn3rzPdJqX8VkYgwAas8KbBZgFX6+rOLy8Js5BkFOh7Jdyan5COuOTLjz2+ik7sB8gzgD0xxPdVhtLnMO0cymPGT1qZgpBTOiwvJxEXXy7cZgVcdZ5ybr9Gzemh87SyD8nKuHRdW1XAYA4A9AfT3RbDSPngBk1M1YwGR2mllkIw2ck2UElDq1QHur+NCPbi3iEDbfbmTRCLj4qz2DkDBqAOAPQH090Ww33nHndjpoZVxBVmF3WU81eHOJ6nj5Uz9wo39nH6hlZt3/DRh5t2w/Ix2XccwatQJwB6I8nuq02pjgnNn/4XYd525nFOJQXj2pJUIPRCN6NJ+s53P4YA4lwugeeLyrwtDbYAMQZgP54ottqQ4szAKMCcQagP57othrEGYABgTgD0B9PdFsN4gzAgECcAeiPJ7qtBnEGYEAgzgD0xxPdVoM4AzAgEGcA+uOJbqtBnAEYEIgzAP3xRLfVIM4ADAjEGYD+sMA+YxBnAAYD4gxAfzzB3WIQZwAGA+IM7v/9f8jw2aKeeIK7xSDOAAzGZ8WZBOG/qGv5v8b+6/+l7WAZW38ksv+bNjXDPjgdjkVPPMHdYhBnAAbjM+KchOB/0ipz2NGbiFtafRX/c24Qxq15O/X+v5SHzQfHoqTpWCzjCe4WgzgDMBhvF+d/UFfijfA8QWDh0KO4vP0aO8vgi406Tx1X+1nzwfnabZzmH2QsZKFTprjaRy4/xdejzX/wF+85LpUno9ZnflOY9u2VPfj14PwbxWhLvXc5FimeV99MzT+HH+JYLOMJ7haDOAMwGG8TZ+mU9ahNMxME27Fy5ysdMW9TvoIwqE43p2vwocVDOvrgQ+I58Hbp0GcCafNU6zO/S+VT8MjNrTuOz/supn0lFuu9kl+3Y0HbvPpe8n+YY7GMJ7hbDOIMwGDsVpxD58kdvbGQnjrS3CETRVrbAS/4KDpjgoWFtxUdfkI6ZbFHBUH7XSyfQvIuBJOpCIhmqd69/WR6HIu1+q7598q4y2OxjCe4WwziDMBgvE2chTCycgTFEwRPOAKNgrDmY0ksZh23iltsf1IQquUjRAh6TWvbOhd6HIst9a3x6myXx2IZT3C3GMQZgMF4uzgHuBNNHbMwEwruSHVHq6FtuiNdFIQFH3oEpDv9tY6b88vrVhDMOset+V0qH4vBqhDYvNfg+FLvC2m7HYtKfS/5P8yxWMYT3C0GcQZgMD4jzg4zQSBCB05dTzbVmTcJArHkg5fDiDKZXCzMOm4idOwp3j8onc0/hKcOXEZZIYx9pTw9v9XytWDFaANeWYQux2Khvpmaf6+cuzwWy3iCu8W+V5yv5/vPz+l+MedbM7fL/XS6cFPYDqf9+aH8xU7383Xd0/V8CvHP6Rz7PLf79XJ9rA7AbtmNOL8dLRwDwiKmxbE7Y9e3J7hb7GvFmYXufD7fT4+q87PirNPervfL6WelLNf7+efMp/N63rJdx3umvDXoAufh+gO7BeI8ItSOZQT5NiDOz9jXiPPtcr7TIC9xIzFkoSPBe1SwnhE7L+2av0fy6yHIGalD4nq5nzGC/hrGFWcA3ocnuFvs+OJMo9LziUbJWjxYtMLcMAtMmtoOQkYCnqaO41RziB1HiMUUNIVp4aPlM418w3YRLKYIJ78q/lw0y5Gx9nfhfcj5UxxJH/46ZU7hkw+Ju1Demq8axaiZp7dpPZQ1BYHDAnEGoD+e4G6xA4szCQYJzel8ITFLQYnbZRIeXg4iw+Kk7/2y+MwElBCRy2LHAs/3gWNM9vcTFbIIz+nsckYuFNQFQwi2+Zkwr8xLaUI+TnlrvuKagX2oixCBp+dDnWMUfWQgzgD0xxPcLXZccWZxcYd+UZzi6FBGj0bIGCNsPPp249fS1cLtciaNnHmbLlswEuurk76Wh7e9NU0K9suYKEbNc/TFDzgeEGcA+uMJ7hb7vpEzi06hHGmkqsWPyeLEosnb0xYrZlbE1sLtsqDTyfS2xktv/djwR9Kk4CK/gsqomcHI+SuAOAPQH09wt9iBxTlh7jnnaWxFCOMnt11xiiNaScIPlpUj7co0sQkvpolnQhif1o7XDCndlGGMq9N4YYwN99KIf1vemq+0mnFHzbjn/E1AnAHojye4W+z44pyIT2uzMKn7uQILkUxXpyAtTpxWpppPPL3N4Vq8aLl4+IrDGPEbwlM6Gx5M3etlwgWFpEuCZ/ILyzqMmYVH0S8eIkvxZuWt+UqrEa4/Z9SMp7W/CogzAP3xBHeLfY04f5objTjjiBqAfQNxBqA/nuBuMYjzE8gXvYoRMAA7B+IMQH88wd1iEGcABgPiDEB/PMHdYhBnAAYD4gxAfzzB3WKDijM/fXydP3DFuA9KPcCr/ADwYo4nzo3tlZf5FlPx7Ed8e8F/MDJ9eyAsC14YANvxBHeLjSnO8rrQWmN/hlf5AeDFHE6cW9trWD6VcTis+tbCA+Is6Qs/AMzxBHeLfb04lz+IwajXhbwG9qpGt9UPXlcCb2LP4vxUe03L/KGc/HAmC7v+xkHh44mRc0v7RpseGk9wt9j3irP5OElGf2SjobHP3kdm2Ic8pR3eYU7hKn5+X9qEl+81n+/n8MQ3dwb40Ad4D7sU5xe117Cs0vAbFe6ncePWujin9tn0ozMhWMXLDRhtemQ8wd1iXyjO1CCoQXk/iMHbio9scEMLDcpYaHAcV12BF41akcPjva38ZS7qIBb9hLy54zAe+Wtiofy44gZ92Jc4v6q9pu3StkIYC75eV3F4WYQ4LAtKnPXHg1jwta+an5DO+ESbHhJPcLfY94kzN6LigRCFvgpnigaW0I1v1hEkkaVt1R/KiF7W/dhvfRv4Sry2GwA8w67E+VXttVhOoi6+3TjMijjrvGTd/o0bw4U5fyUwjPxzohK06bHwBHeLDTRyNlfhjG2AjG58s4bLcONVI163sRJrfmx8AVfZoDPHGDlvbK9mmYWQby0FMazEoRXKQ81qMbK9iEfYcLudSW033qZSoE0PiSe4W+wLxTlBDaK4h2Wvwhm3gUlYvBqe/UBFEOfpHlL+oQyJn3qYcA9qyc8sb/KM+1PgDexLnBNPt1dnWUSyFoe4nqc2y9wo38UfirF/w8Z0wR4zUIKPNj0ynuBuse8V58T0gxiNo1cdFjqMNBWtGpj7QxlxwxTOV8pLfmzeeLITvIldinPiufbqbGcW41Beoa0moxG8G0/WcziNhkObjuUs+gTpKNCmh8YT3C329eIMACjZszgD8C14grvFIM4ADAbEGYD+eIK7xSDOAAwGxBmA/niCu8UgzgAMBsQZgP54grvFIM4ADMahxJmfns5PQj/A7AGwDXDa9JBXNH41a90TvxrG8ffzTjM/NY4H096NJ7hbDOIMwGAcSZxZ6M78bexH1flZcS6e2I5PaC+XJb5qGXR5LW/ZruM9U94a3mtpoDue4G4xiDMAg7FncY6vUqUVkqj4ShW/ivigYD0jdl7aNX+P5NdDkDPqtTS82vVWPMHdYhBnAAZjl+JsP0LCsGjFT3yRwKSp7SBkJOBp6jhONYfYcYRYTEFTmBY+WtbfG5iuAXS4+W7BTDTLkXH5/QLeltY5jqQPf50yp/DJh8RdKG/NV41i1IyPorwTT3C3GMQZgMHYlziTYJDQeD98ob9FHT7HyYrC4qTv/bL4zASUEJHLYscCb77gFxWyCM/p7HJGLhTUBUMItvmZMK/MS2lCPk55a77imoF9qIsQgafnQ51jFN0TT3C3GMQZgMHYlTizuLhDvyhOcXQoo0cjZIwRtuoP0tTS1cLtciaNnHmbLlswEmvv5ylreXjbW9OkYL+MiWLUPEdf/IDX4wnuFoM4AzAYhxg5s+gUypFGqvbX3LI4sWjy9rTFipkVsbVwuyzodDK9rfHSWz82/JE0KbjIr6AyamYwcn4LnuBuMYgzAIOxL3FOmHvOeRpbEcL4yW1XnOKIVpLwg2XlSLsyTWzCi2nimRDGp7XjNUNKN2UY4+o0Xhhjw7004t+Wt+YrrWbcUTPuOb8TT3C3GMQZgMHYpTgnph++UPdzBRYima5OQVqcih+f4OltDtfiRcvFw1ccxojfEJ7S2fBg6l4vEy4oJF0SPJNfWNZhzCxc/YiGST8rb81XWo1w/TmjZjyt/VY8wd1iEGcABmPP4vxpbjTijCNqAJ7DE9wtBnEGYDAgziXyRa9iBAzAk3iCu8UgzgAMBsQZgP54grvFIM4ADAbEGYD+eIK7xSDOAAzGfsWZnya+zh+gYtwHnx7gVX4AWMET3C0GcQZgMHYrzvL6D8QZfAGe4G4xiDMAg7EHcS5/4IJRr//sSZzx+hF4EE9wtxjEGYDB+Kg4m4+NZPRHM9bEmZZn7xcz7EOeug7vJKdwFT+//2zCy/eUz/dzeIKbLxbw4Q7wGJ7gbjGIMwCD8RlxJpHzPtMZMB/NYIHMIqssiKr5QEkQU2cknMM5vvrSFr/HvOQn5K0+Ayrgk5dgI57gbjGIMwCD8RFx5lFt7eMeetTMeIJbiKcV7iSytK36wxfRy7of++1uA34sArTiCe4WgzgDMBj7GjmbUTNjBZUpRNX5NCWFLP7wRQxd92PjCxg5g414grvFIM4ADMZnxDlh7znbUTPjCWQOS9PUkiaHV374QuLLtDb/gMSSn1neuOcMHsMT3C0GcQZgMD4qzonpBy4aR686zPvBCQ5mEU1T1PbBrxzOo98lPzZvPK0NHsQT3C0GcQZgMPYgzgB8O57gbjGIMwCDAXEGoD+e4G4xiDMAgwFxBqA/nuBuMYgzAIMBcQagP57gbjGIMwCDAXEGoD+e4G4xiDMAgwFxBqA/nuBuMYgzAIMBcQagP57gbjGIMwCDAXEGoD+e4G4xiDMAgwFxBqA/nuBuMYgzAIMBcQagP57gbjGIMwCDAXEGoD+e4G4xiDMAgwFxBqA/Vmx//fo1C1sKhzgDMBgQZwD6Y8WWRdgKsRcmBnEGYDAgzgD0x4qtCLGIsV23BnEGYDAgzgD0xxNcLchLwswGcQZgMCDOAPTHE1y2FmFmgzgDMBgQZwD64wmu2Jows0GcARgMiDMA/fEEd4tBnAEYDIgzAP3xBHeLQZwBGAyIMwD98QR3i0GcARgMiDMA/fEEd4tBnAEYDIgzAP3xBHeLHU6cucAwGOw5eyVolzBYH6uxO3EGAAAARgfiDAAAAOwMiDMAAACwK+73/w9IsknvHsBweAAAAABJRU5ErkJggg==;" vertex="1" parent="1">
          <mxGeometry x="842" y="440" width="225.04" height="122" as="geometry"/>
        </mxCell>
        <mxCell id="IiBEUlHa28SNpaY48bWn-39" value="&lt;b&gt;IRDS&amp;nbsp; Comparison&lt;br&gt;&lt;br&gt;&lt;br&gt;&lt;br&gt;&lt;br&gt;&lt;br&gt;&lt;br&gt;&lt;br&gt;&lt;br&gt;&lt;br&gt;&lt;br&gt;&lt;br&gt;&lt;/b&gt;" style="rounded=0;whiteSpace=wrap;html=1;fillColor=#ffe6cc;strokeColor=#d79b00;" vertex="1" parent="1">
          <mxGeometry x="630" y="409" width="194" height="179" as="geometry"/>
        </mxCell>
        <mxCell id="IiBEUlHa28SNpaY48bWn-38" value="" style="shape=image;imageAspect=0;aspect=fixed;verticalLabelPosition=bottom;verticalAlign=top;image=data:image/png,iVBORw0KGgoAAAANSUhEUgAAAWIAAACRCAYAAAD5LbJ5AAAAAXNSR0IArs4c6QAAAARnQU1BAACxjwv8YQUAAAAJcEhZcwAADsMAAA7DAcdvqGQAABQjSURBVHhe7Z29juM2F4Z9U1N4y+1zAemmWKhNmyuY1nMJQZoU7jaAyy1yAVMEC3wIDARJsUCQH2CyCHbzC33nUCR1SJGyZFnUsfU+wZuR+GdZR3xF015x8/z8XEMQBEHLCUYMQRC0sGDEEARBCwtGDEEQtLCMEX/33XeQUsUBgyDo9uSNGOgDRgxB6xCMWDFuVAyVU9xBIKiEYMSKgTGUFc43tJRgxIqBMZQVzje0lIYZ8XFXb7e7+ui2N5t6E2hbVwdTMpHPeaZmiyyz3dY7VzfiuKuCcp12bhwYQ1nhfENL6TwjdtuW44EMM5d/PNS77abe7lzKoa7InP2uMeWKUkOOuy2Z76723kvtBPVKknjPJYAxlBXON7SULmLEjblaM03ln6wfcyTzXsh0FZEzhqeH+/rOfVK4u6vv90/Jclk9PdR3dw/1Uyovo8mveQWCEUNLaf4RsUEYtTHZTV3tDvUxZ7SnzJryK2qjmbKQN4CqrioaSVP6ltrfmW07peHy43oMH78zGTfNErXHo3M+HjNSd+XcnaLneJpjEO2OIGUMTw93ZIQP9f7Jpj3t6/vNXf3g9odopBFf5DUvpTNuIkMFI4aW0mXmiNl8nGvKsp5ohMvTFcKgOiPfZBsOa+T2BY0xssOZ47JtxdvclkkjY7SN+noxQXlqw5s4H0808jfb/cfj57XlzWogKWN4oNHoZAMcZWZPl3nNKxCMGFpK00fEZg5YjPbifIMcEYccyaDcaNOTbMPSeX27L9NT27l6drui99DeWKLyfrsxXfPFoRvR59rNpdvdIaSMIWegZtR6v/f7+/tNfb+nbR693tn3RaNYM6UgjZi2ff7dfddwT5l2VH9v0+5o+/6ejonS7x729YPZlq9P+XE91l5MgZjy3fZ4dM7HY96zK/dgp0p6jqc5BtGue00rGDG0lC4zR8xm6pw4ld9rQimTjkbQkrgtty/TU9u5eub17chXpqfaMAUIP6LnTwKZdnPpdncIY4zYmM3GGRpPHfA2j2bJkL1J2SmFPRsTtxONdo1hRe2n0rxs+3a+2N8MzLHYduNtbsuktaYf30S8gvJ83PIm4t6jLSffb+Z4/Lw2m33iPcGIoaU0/5d19lcTrU/zR/c2PzkiJkw5Snf+yO00v5romQpIHaPb5r90jN2piebY23R7PMn23DGYRHuzGHA8TLw/gFFGTPKjYDIab0Cp8i7dGJQdPXoJY5ZlZf1cnmzXpae2c/Xs9j3dHPzxxOX9dmO65otDGnE/SaOP282lu30rGDG0lC5kxGIEy/lBxxbzpAayMz8/TJLzyxHB74hlO/Qa7ZdjieNKbZu/1EZczxRpX4fL5I04Ktu6d//xMPH+AFLG0Dtfaw14Tx/BgxFoXE4alB9F5xSNmqVyBifTU9u5emaUa0e+Q9oz+27ag95Hrt1cutu3ghFDS2mYEd8CZxjh0qSMwXzcJhNJ/4KBts0o0ZmM/ajeOzUh89MGlX/NnqkA105qm/8mpya4XZlONxZXvtOefN/uZjHgeII27L4VjBhaSjBixeSMIfhNL5mRn/sk8fTEnTNWFpsmm7MsGxibyOcvtJzZRsq+JrXV1o/NMrNt/lIbcT2SfB0ukzfiqGzyy7puHVcm2LeCEUNLaT1GfIWMNwY21VNTDQqUMcKlBSOGlhKMWDGjjIHnh+XIULNgxBAUCEasGBhDWeF8Q0sJRqwYGENZ4XxDSwlGrBiOCwRBty8YMQAALAyMGAAAFgZGDAAACwMjBgCAhYERAwDAwsCIAQBgYWDEAACwMDBiAABYGBgxAAAszCgjNo8WhCAIgi6rsUb8xRdfQBAEQRfSfr8/z4h///13tdJ+fBAEQVKTjFgrfHxAD+/evbNbQAOIhy44HjBiMDvo+LpAPHQBIwZFQMfXBeKhCxgxKAI6vi4QD12s1ogPVeKnI6zqYEssw6HamuPoHAavPh0c65bKXM9a1Cc7/sD3J89P9lyBk1wqHmdzhaupz8lqjbjlUFebiv6vgZ5jiS/c46HebTf1dtdzKSu62Ad1/Nz783ny/GiK2/UxKR45hlxvrsyQsisCRqypQ/ddnKm8Uxezoot9dMdn4jS5r+i9XSMXiUfMmJggfgEw4siIjzv6uCs+6/IURrXji6aqKxoRmI9ptO1L0AUl092AwbTDafyRLjWKiOodzHHY/dSNIXnhimM/VOKjZPMxkkcwTfu2XqcMJ5bhrI7v3p/J20YflZ3s+0/FwdSjuJkpjKadXJmdneYIzguNAn15+dE81Y5JPhFzRUyKB292zsHA6821K9q/pvM2FzBieXExfIH4fWEE9DfocM1VRRff1qf7i0y2GbTnaC5a17F9e+Li7JDMi17f4cqObm8+zuv49v0dEu8nKJ+JA/+lzr0z57m/jDdZNg/Tro2RDzrHlOtn2jkZc11MikfuHCTrWOIyvux1nbe5gBHLC8FiRsGcQJ0yaZDyYvJ3/PbO70cHdLFWuwOVs/Ucfe3JdEkyL7yIK3o9fxyp9lJlbNbcTBqBuTxZJt5278mL4uAMfGgZJvVaklw7p2KujMnxSJ2DxLnMXpO+/es6b3MBI5Zm5rAGzN/Km7t+fFHKiymuK+EvONzHYptk6GtPpktSeT6N3wN3BJubbC9TptmbnbM6fvw+ZJl4OxWHsWUYtx+nO3LtOHIxV8bkeJw8lyeuyaAscSXnbS5gxOaCiYNPaeYubS8Ue+H5T6nB1IT8+OouLnsRNpXDj3EGW89epGdNTfCFa9rgneY9tIdBNxIuG9TJlGl2Z2d0x5fvz+XJMkH5TBxGlyH8flzexTTTzsmY62JSPDrnJnUuT1yTV3re5gJGbC8Yc30JeHrC/1THXDT00YkuPv8Rq8mhPKrv08MLz318S/7kh9rstBdcyBGcZ9trJOY1ieD16FibNpvO40YZ6TJlGNTx7bF13p87L/L8xOcqFYezysjXEOWD4zkz5oqYFA8meQ4GXG/u/IrzfE3nbS5gxEn4IhPmHHdWMJqTHR8UBfHQBYw4hueH4zszjHgy6Pi6QDx0ASMGRUDH1wXioQsYMSgCOr4uEA9dwIhBEdDxdYF46GKSEUMQBEGX0c2OiDef/w9SIo4H0APioQsYMVRE6Pi6QDx0ASOGiggdXxeIhy5gxFARoePrAvHQBYwYKiJ0fF0gHrqAEUNFhI6vC8RDFxc34g8fPtQfP36s//vvP5uyDB0jfvw1+ifKf9aHr74Py1xC/Do//1q/SOWtWNmOf9wlH7pk4H9aTtda86Q7R/Pkr1EPLEr8E/WzFx69kX/uDiPWxSxG/OrVq/qXX36p//33X5tanqQRS4N8fFc//kz96g2Z8SnzdPlDTBZGnFS341tDZaPtM+LtNjQ+Z87nGLE30UNr/mONdWx5pcCIdTGLEb98+XJxMz5pxLm0PsGIz1a+4wtTjLGmxw8M989g4qWMKtIU85xipisy4sfXP9XVj3bH8eNzvXn9h3n/h29+qjfffGzSwSRmM2LWp59+Wr99+7b++++/bW45Bhnx5+/IAN7Xlcyj7QONlA0//0midJP/XqTbsl+9Fx2Spzqa+jDirqYY8ZHN1zqxWTUlWgJJPhfXtyPSw2fhykVIqbw01qgtb/6ptmzWtTLEiI/f/tYxWjbfF9/+Y/fApZjViFmffPKJMeO//vrLlijDMCP+vn4ks338yuXxPl1sbu7Y1Yn/Bm1YDSmzYk0yYm+W/JxouW9XiohXOonT+dGmsp6vz5myLTHyzr2Ga8vsXS9DjLh+/qN+8eWziM3Huvryt/rxudljo5ambIz7Sxols6yBh2W4vhhlc/t2dL12ZjdiZ8Y8TVFyZDzMiKMRcVwmTk/kH3jU7EiVgYwmGbExQypjpiWoZMpQmaHpMl+mmVGyVDT6ZmTdK2aQEdf/hNMTYlqCCUw2MlUeOZt6sg6VqV63dVIj7rUyuxGrHhHHBhuX6c1nE+fRdGb07NqAjKYZMW/yl3a8XI9Ij01xaLrMl2mp45BlmXj/ShlmxAQbqTXLeFpCGnEwGrZq8ngU3IyquUz1I+2LOebOHPRKmdWIlzJh5qQR219NhPO60dQEzwFLcw3aaEbTj49Ney/evMeIuEdTjdhsu3I+feDUBKc7s5V/m8ywLTc30fcaru4VM9iIvZG2huroGHFmdOsM9/BNU7/5221vzcxmxPyriR9++KH+55/2DlqSpBHbvAbxO2JpnrJc8GUd5zfmXfN0BpVl83Vlj52y4rWh6UYsiYy0/YJNlOUyZnphU28r+xM4Vy+q327zHLRrK/yyrtOWzbpWhhtxY6QvXneNVhpxdz5ZYEbVz34kbEbG31J5TEt4ZjFilb8jPkMvaERcv32XzIPGaUzHB/MzKh5spPJLNktgxIQZFfupifZLPfclXWjamJaQzGLES5swc64RV2/ll2/t1AM0TTBiXSAeuri4EWvhXCOG5hE6vi6GxKMd3c4rACOGCglGrAvEQxcwYqiI0PF1gXjoAkYMFRE6vi4QD11MNmJeBlqj+PggCIKuRTc7IgZ6QDx0gXjoAkYMioB46ALx0AWMGBQB8dAF4qELGDEoAuKhC8RDFzBiUATEQxeIhy5gxKAIiIcuEA9drMeI5VO2eJcfMk7vg99L8KQtMAvZjk9xyT59DcwGjFgX6zRiXu6GO793ZX7MoVgmB1ycbsdvnvNrboTnGHF0Yz3J2PI3DoxYFys0YjaAhOmyOZuHioM5yHf8nucRg9mAEetifUZsRr+Jjp9LBxdhtBGbeFV1VW3N9bbdHcyy+ryOnFktw99YebMpY/LsHbaTJuPPU1G23aY9U8WUaR8MT/k3PIIeYsRYTr8c6zTiZAfDyGxOzjJiN10UbwdxFPVNOd5OpMl6xnztFcDfFZh2wiWR/Os0ezfHECNOLX8Ur1sHLsM6jTjb8RPp4CKcZcTOCFPbPs3ONfPCojRqPjaFummdepZT6Xb31hhixN3lj3ilDSynPwfrM2L6D3PE5ZnPiC1HN3Uh2pJp2Xon0u3urTHIiLGcfjFWaMRE9KuJ44Hy3EdfMAvzGTHXd7FzN9lEGsc4qGfx+80oujtlcZsMM2LCLPzZmGU8LSGNOBgNWzV57WrNXAbL6adZpxHzLnc0eh/8XvA74vmZz4g5qY3l1gayk5aoZ4jbtnXwZZ3DGWlrqI6OEWdGt85wD1hOP8t6jBgsyrXFg2/UtzxVNSYeZiSM5fRnBUYMinAN8Tj4n7TxiPi2PyWNigcbqfySzRIYMWFGxX5qAsvpjwFGDIqAeOgC8dAFjBgUAfHQxZB4tKPbeQVgxKAQiIcuEA9dwIhBERAPXSAeuphsxKkVlDWIjw+CIOhahBExmB3EQxeIhy5gxKAIiIcuEA9dwIhBERAPXSAeuoARgyIgHrpAPHQBIwZFQDx0gXjoAkYMioB46ALx0MX6jNg8AnPCIy/jp3eBQXTiYZ50FsXhjHMrn7JmHgQfLaME0sCIdbE6I+YHu1QVdd5znRid/CzSRszmKc7lyHNr1qWj8u4RwvwgePMcYvfsYZsMusCIdbEyI+aHf/Ozb6nDnttRYcRnkTRiOo+8goZcvHP4uc2stMIgRicZY8RYRHR+1mXE3EFNrxed2HTazKq+8uHxLl12ctpuV/0VDzcP0m/7AeNDyRlx8KD2IefWIcvGmLyxMR25snN0fO6GkFpRWiNjjDj10Pd4tQ4wjVUZMXcS18F426/cYDqe7TTcUVMd3HRWSnd/6T+5tI7pgE2vDpfc8eXXTdaIadNMF3lD7Du3gr7zynljY5osn4uluJEH6WK1EdNm4gaihDFG3H3oOz9fGIuIXpIVGXHTqZrRihvJ2E5oOpFF7tN2xaOgVPlcvVy63V0rfUZMzkfnWZy7Ieew77z21aftbExNYcLt96W7+l5szPYao/bbFaV1MsqIsYjo7KzHiLnzBKMqO6qJv9jxnc998WNzZCeUf5vcbr5NbttbN/1GzLv0CYW/RB18DqNRqSRb/0RMm9Rh6X2j3dSK0soYZ8SEWe6oMct4WkIacTAatmry2jXquAwWEQ1ZjRH7qQhB0Pltmu9sptPKub8qGj01o5/ux+cwPfuxeGWcMmIzKuaRZe+5DTHpVN6d6uyvJgbH1JKJcWfKom1ItO9uDlwmc6NQwGgj9kbaGqqjY8SZ0a0z3AMWEe2wEiPOdAruQL7zW0SnDFYCpvqdTkvb7Rc2URu2Hr6sazhtxJwkzlXu3EYEvyMmEzSmGbct9k/GlJH7vO3al7Fk0/fHF5q7b1+rCxPjjbgxUiwiOg8rMeLlONIo6pZXAx6KlnhM4ZZieVY82Ejll2yWwIgJMyr2UxNYRHQIMOIZWNNqwEO5ViO+1VheazxuFRgxKALioYsx8WhHt/NqzcCIQREQD10gHrqAEYMiIB66QDx0ASMGRUA8dIF46GKyEadWUNYgPj4IgqBrEUbEYHYQD10gHrqAEYMiIB66QDx0ASMGRUA8dIF46AJGDIqAeOgC8dAFjBgUAfHQBeKhCxgxKALioQvEQxcwYlAExEMXiIcuYMSgCIiHLhAPXcxuxB8+fAhUClxoukA8dIF46GJWI3bm++rVK6OSZowLTReIhy4QD13MasRv3rypX7586Y2YtzmtBLjQdIF46ALx0MVsRswj36+//rr+7LPPjAGzeJvTSoyKcaHpAvHQBeKhCxgxKALioQvEQxezGTHjpibYgJ0hY2pinSAeukA8dDGrETM8+mXzZZUYCTtwoekC8dAF4qGL2Y2YYQMuacIMLjRdIB66QDx0UcSIlwAXmi4QD10gHrqAEYMiIB66QDx0ASMGRUA8dIF46AJGDIqAeOgC8dAFjBgUAfHQBeKhi8lGnFpBWYP4+CAIgq5FZxkxV4IgCIIupX39fxHX0bu7a7QmAAAAAElFTkSuQmCC;" vertex="1" parent="1">
          <mxGeometry x="638" y="445" width="180.67" height="74" as="geometry"/>
        </mxCell>
      </root>
    </mxGraphModel>
  </diagram>
</mxfile>
